<?xml version="1.0" encoding="UTF-8" standalone="no"?><svg xmlns="http://www.w3.org/2000/svg" xmlns:xlink="http://www.w3.org/1999/xlink" contentStyleType="text/css" height="1219px" preserveAspectRatio="none" style="width:2524px;height:1219px;background:#FFFFFF;" version="1.1" viewBox="0 0 2524 1219" width="2524px" zoomAndPan="magnify"><defs/><g><!--MD5=[484357d9b741054533aabcb4a2cd8b83]
cluster ecoa_toolset--><g id="cluster_ecoa_toolset"><path d="M931.5,6 L1023.5,6 A3.75,3.75 0 0 1 1026,8.5 L1033,29.6094 L1785.5,29.6094 A2.5,2.5 0 0 1 1788,32.1094 L1788,788.5 A2.5,2.5 0 0 1 1785.5,791 L931.5,791 A2.5,2.5 0 0 1 929,788.5 L929,8.5 A2.5,2.5 0 0 1 931.5,6 " fill="none" style="stroke:#000000;stroke-width:1.5;"/><line style="stroke:#000000;stroke-width:1.5;" x1="929" x2="1033" y1="29.6094" y2="29.6094"/><text fill="#000000" font-family="sans-serif" font-size="14" font-weight="bold" lengthAdjust="spacing" textLength="91" x="933" y="22.5332">ecoa_toolset</text></g><!--MD5=[a60570e4b426f702ccbb0d459e3b9417]
cluster models--><g id="cluster_models"><path d="M961.5,50 L1013.5,50 A3.75,3.75 0 0 1 1016,52.5 L1023,73.6094 L1336.5,73.6094 A2.5,2.5 0 0 1 1339,76.1094 L1339,358.5 A2.5,2.5 0 0 1 1336.5,361 L961.5,361 A2.5,2.5 0 0 1 959,358.5 L959,52.5 A2.5,2.5 0 0 1 961.5,50 " fill="none" style="stroke:#000000;stroke-width:1.5;"/><line style="stroke:#000000;stroke-width:1.5;" x1="959" x2="1023" y1="73.6094" y2="73.6094"/><text fill="#000000" font-family="sans-serif" font-size="14" font-weight="bold" lengthAdjust="spacing" textLength="51" x="963" y="66.5332">models</text></g><!--MD5=[70c2a6f1494b8d6116cc4593d4cf8291]
cluster visitors--><g id="cluster_visitors"><path d="M955.5,385 L1009.5,385 A3.75,3.75 0 0 1 1012,387.5 L1019,408.6094 L1761.5,408.6094 A2.5,2.5 0 0 1 1764,411.1094 L1764,764.5 A2.5,2.5 0 0 1 1761.5,767 L955.5,767 A2.5,2.5 0 0 1 953,764.5 L953,387.5 A2.5,2.5 0 0 1 955.5,385 " fill="none" style="stroke:#000000;stroke-width:1.5;"/><line style="stroke:#000000;stroke-width:1.5;" x1="953" x2="1019" y1="408.6094" y2="408.6094"/><text fill="#000000" font-family="sans-serif" font-size="14" font-weight="bold" lengthAdjust="spacing" textLength="53" x="957" y="401.5332">visitors</text></g><!--MD5=[32bb0698b47dd59be4a07d5d1873b794]
cluster mscigt--><g id="cluster_mscigt"><path d="M8.5,815 L55.5,815 A3.75,3.75 0 0 1 58,817.5 L65,838.6094 L1772.5,838.6094 A2.5,2.5 0 0 1 1775,841.1094 L1775,1209.5 A2.5,2.5 0 0 1 1772.5,1212 L8.5,1212 A2.5,2.5 0 0 1 6,1209.5 L6,817.5 A2.5,2.5 0 0 1 8.5,815 " fill="none" style="stroke:#000000;stroke-width:1.5;"/><line style="stroke:#000000;stroke-width:1.5;" x1="6" x2="65" y1="838.6094" y2="838.6094"/><text fill="#000000" font-family="sans-serif" font-size="14" font-weight="bold" lengthAdjust="spacing" textLength="46" x="10" y="831.5332">mscigt</text></g><!--MD5=[4e3d5a24b4cd79758e3cec0cd58ba55f]
cluster mscigt.component--><g id="cluster_mscigt.component"><path d="M32.5,859 L162.5,859 A3.75,3.75 0 0 1 165,861.5 L172,882.6094 L1748.5,882.6094 A2.5,2.5 0 0 1 1751,885.1094 L1751,1185.5 A2.5,2.5 0 0 1 1748.5,1188 L32.5,1188 A2.5,2.5 0 0 1 30,1185.5 L30,861.5 A2.5,2.5 0 0 1 32.5,859 " fill="none" style="stroke:#000000;stroke-width:1.5;"/><line style="stroke:#000000;stroke-width:1.5;" x1="30" x2="172" y1="882.6094" y2="882.6094"/><text fill="#000000" font-family="sans-serif" font-size="14" font-weight="bold" lengthAdjust="spacing" textLength="129" x="34" y="875.5332">mscigt.component</text></g><!--MD5=[ce5ccd5b359d4259c2ab78015c688698]
cluster container--><g id="cluster_container"><path d="M1483.5,929.5 L1551.5,929.5 A3.75,3.75 0 0 1 1554,932 L1561,953.1094 L1724.5,953.1094 A2.5,2.5 0 0 1 1727,955.6094 L1727,1027 A2.5,2.5 0 0 1 1724.5,1029.5 L1483.5,1029.5 A2.5,2.5 0 0 1 1481,1027 L1481,932 A2.5,2.5 0 0 1 1483.5,929.5 " fill="none" style="stroke:#000000;stroke-width:1.5;"/><line style="stroke:#000000;stroke-width:1.5;" x1="1481" x2="1561" y1="953.1094" y2="953.1094"/><text fill="#000000" font-family="sans-serif" font-size="14" font-weight="bold" lengthAdjust="spacing" textLength="67" x="1485" y="946.0332">container</text></g><!--MD5=[0e004d10fa3aa19825bb85d3d0c3cd6e]
cluster module--><g id="cluster_module"><path d="M1006.5,929.5 L1059.5,929.5 A3.75,3.75 0 0 1 1062,932 L1069,953.1094 L1454.5,953.1094 A2.5,2.5 0 0 1 1457,955.6094 L1457,1027 A2.5,2.5 0 0 1 1454.5,1029.5 L1006.5,1029.5 A2.5,2.5 0 0 1 1004,1027 L1004,932 A2.5,2.5 0 0 1 1006.5,929.5 " fill="none" style="stroke:#000000;stroke-width:1.5;"/><line style="stroke:#000000;stroke-width:1.5;" x1="1004" x2="1069" y1="953.1094" y2="953.1094"/><text fill="#000000" font-family="sans-serif" font-size="14" font-weight="bold" lengthAdjust="spacing" textLength="52" x="1008" y="946.0332">module</text></g><!--MD5=[dbda7fa30050486b74b2dae4c69efe7f]
cluster unit_test--><g id="cluster_unit_test"><path d="M56.5,903 L119.5,903 A3.75,3.75 0 0 1 122,905.5 L129,926.6094 L977.5,926.6094 A2.5,2.5 0 0 1 980,929.1094 L980,1161.5 A2.5,2.5 0 0 1 977.5,1164 L56.5,1164 A2.5,2.5 0 0 1 54,1161.5 L54,905.5 A2.5,2.5 0 0 1 56.5,903 " fill="none" style="stroke:#000000;stroke-width:1.5;"/><line style="stroke:#000000;stroke-width:1.5;" x1="54" x2="129" y1="926.6094" y2="926.6094"/><text fill="#000000" font-family="sans-serif" font-size="14" font-weight="bold" lengthAdjust="spacing" textLength="62" x="58" y="919.5332">unit_test</text></g><!--MD5=[b763e8363af43e39ecac53b57a3ebff8]
cluster csmgvt--><g id="cluster_csmgvt"><path d="M1801.5,859 L1853.5,859 A3.75,3.75 0 0 1 1856,861.5 L1863,882.6094 L2514.5,882.6094 A2.5,2.5 0 0 1 2517,885.1094 L2517,1185.5 A2.5,2.5 0 0 1 2514.5,1188 L1801.5,1188 A2.5,2.5 0 0 1 1799,1185.5 L1799,861.5 A2.5,2.5 0 0 1 1801.5,859 " fill="none" style="stroke:#000000;stroke-width:1.5;"/><line style="stroke:#000000;stroke-width:1.5;" x1="1799" x2="1863" y1="882.6094" y2="882.6094"/><text fill="#000000" font-family="sans-serif" font-size="14" font-weight="bold" lengthAdjust="spacing" textLength="51" x="1803" y="875.5332">csmgvt</text></g><!--MD5=[5d90b6d12c1c1f6b5deea15b0855ee7c]
cluster csm--><g id="cluster_csm"><path d="M2085.5,903 L2114.5,903 A3.75,3.75 0 0 1 2117,905.5 L2124,926.6094 L2490.5,926.6094 A2.5,2.5 0 0 1 2493,929.1094 L2493,1161.5 A2.5,2.5 0 0 1 2490.5,1164 L2085.5,1164 A2.5,2.5 0 0 1 2083,1161.5 L2083,905.5 A2.5,2.5 0 0 1 2085.5,903 " fill="none" style="stroke:#000000;stroke-width:1.5;"/><line style="stroke:#000000;stroke-width:1.5;" x1="2083" x2="2124" y1="926.6094" y2="926.6094"/><text fill="#000000" font-family="sans-serif" font-size="14" font-weight="bold" lengthAdjust="spacing" textLength="28" x="2087" y="919.5332">csm</text></g><!--MD5=[124fbd50f2f1e2f2f566b632da3159cd]
cluster csmgvt.component--><g id="cluster_csmgvt.component"><path d="M1825.5,929.5 L1960.5,929.5 A3.75,3.75 0 0 1 1963,932 L1970,953.1094 L2056.5,953.1094 A2.5,2.5 0 0 1 2059,955.6094 L2059,1027 A2.5,2.5 0 0 1 2056.5,1029.5 L1825.5,1029.5 A2.5,2.5 0 0 1 1823,1027 L1823,932 A2.5,2.5 0 0 1 1825.5,929.5 " fill="none" style="stroke:#000000;stroke-width:1.5;"/><line style="stroke:#000000;stroke-width:1.5;" x1="1823" x2="1970" y1="953.1094" y2="953.1094"/><text fill="#000000" font-family="sans-serif" font-size="14" font-weight="bold" lengthAdjust="spacing" textLength="134" x="1827" y="946.0332">csmgvt.component</text></g><!--MD5=[53bf68ed638bcf4718423098b3d480ea]
class Visitor--><g id="elem_Visitor"><rect codeLine="8" fill="#F1F1F1" height="259.3125" id="Visitor" rx="2.5" ry="2.5" style="stroke:#181818;stroke-width:0.5;" width="348" x="975" y="86"/><ellipse cx="1125.25" cy="102" fill="#ADD1B2" rx="11" ry="11" style="stroke:#181818;stroke-width:1.0;"/><path d="M1128.0156,97.875 Q1128.1719,97.6563 1128.3594,97.5469 Q1128.5469,97.4375 1128.7656,97.4375 Q1129.1406,97.4375 1129.375,97.6953 Q1129.6094,97.9531 1129.6094,98.5625 L1129.6094,100.0156 Q1129.6094,100.625 1129.375,100.8906 Q1129.1406,101.1563 1128.7656,101.1563 Q1128.4219,101.1563 1128.2188,100.9531 Q1128.0156,100.7656 1127.9063,100.25 Q1127.8594,99.8906 1127.6719,99.7031 Q1127.3438,99.3281 1126.7344,99.1094 Q1126.125,98.8906 1125.5,98.8906 Q1124.7344,98.8906 1124.1016,99.2188 Q1123.4688,99.5469 1122.9766,100.2969 Q1122.4844,101.0469 1122.4844,102.0781 L1122.4844,103.1719 Q1122.4844,104.4063 1123.375,105.2266 Q1124.2656,106.0469 1125.8594,106.0469 Q1126.7969,106.0469 1127.4531,105.7969 Q1127.8438,105.6406 1128.2656,105.2031 Q1128.5313,104.9375 1128.6797,104.8594 Q1128.8281,104.7813 1129.0313,104.7813 Q1129.3594,104.7813 1129.6172,105.0391 Q1129.875,105.2969 1129.875,105.6406 Q1129.875,105.9844 1129.5313,106.3906 Q1129.0313,106.9688 1128.2344,107.2969 Q1127.1563,107.75 1125.8594,107.75 Q1124.3438,107.75 1123.1406,107.125 Q1122.1563,106.625 1121.4688,105.5547 Q1120.7813,104.4844 1120.7813,103.2031 L1120.7813,102.0469 Q1120.7813,100.7188 1121.3984,99.5703 Q1122.0156,98.4219 1123.1094,97.8047 Q1124.2031,97.1875 1125.4375,97.1875 Q1126.1719,97.1875 1126.8203,97.3516 Q1127.4688,97.5156 1128.0156,97.875 Z " fill="#000000"/><text fill="#000000" font-family="sans-serif" font-size="14" lengthAdjust="spacing" textLength="39" x="1145.75" y="107.7285">Visitor</text><line style="stroke:#181818;stroke-width:0.5;" x1="976" x2="1322" y1="118" y2="118"/><line style="stroke:#181818;stroke-width:0.5;" x1="976" x2="1322" y1="126" y2="126"/><ellipse cx="986" cy="140.3047" fill="#84BE84" rx="3" ry="3" style="stroke:#038048;stroke-width:1.0;"/><text fill="#000000" font-family="sans-serif" font-size="14" lengthAdjust="spacing" textLength="229" x="995" y="144.5332">visit_data_read(element: DataRead)</text><ellipse cx="986" cy="157.9141" fill="#84BE84" rx="3" ry="3" style="stroke:#038048;stroke-width:1.0;"/><text fill="#000000" font-family="sans-serif" font-size="14" lengthAdjust="spacing" textLength="252" x="995" y="162.1426">visit_data_written(element: DataWritten)</text><ellipse cx="986" cy="175.5234" fill="#84BE84" rx="3" ry="3" style="stroke:#038048;stroke-width:1.0;"/><text fill="#000000" font-family="sans-serif" font-size="14" lengthAdjust="spacing" textLength="292" x="995" y="179.752">visit_event_received(element: EventReceived)</text><ellipse cx="986" cy="193.1328" fill="#84BE84" rx="3" ry="3" style="stroke:#038048;stroke-width:1.0;"/><text fill="#000000" font-family="sans-serif" font-size="14" lengthAdjust="spacing" textLength="243" x="995" y="197.3613">visit_event_send(element: EventSend)</text><ellipse cx="986" cy="210.7422" fill="#84BE84" rx="3" ry="3" style="stroke:#038048;stroke-width:1.0;"/><text fill="#000000" font-family="sans-serif" font-size="14" lengthAdjust="spacing" textLength="201" x="995" y="214.9707">visit_external(element: External)</text><ellipse cx="986" cy="228.3516" fill="#84BE84" rx="3" ry="3" style="stroke:#038048;stroke-width:1.0;"/><text fill="#000000" font-family="sans-serif" font-size="14" lengthAdjust="spacing" textLength="143" x="995" y="232.5801">visit_log(element: Log)</text><ellipse cx="986" cy="245.9609" fill="#84BE84" rx="3" ry="3" style="stroke:#038048;stroke-width:1.0;"/><text fill="#000000" font-family="sans-serif" font-size="14" lengthAdjust="spacing" textLength="231" x="995" y="250.1895">visit_parameter(element: Parameter)</text><ellipse cx="986" cy="263.5703" fill="#84BE84" rx="3" ry="3" style="stroke:#038048;stroke-width:1.0;"/><text fill="#000000" font-family="sans-serif" font-size="14" lengthAdjust="spacing" textLength="163" x="995" y="267.7988">visit_pinfo(element: Pinfo)</text><ellipse cx="986" cy="281.1797" fill="#84BE84" rx="3" ry="3" style="stroke:#038048;stroke-width:1.0;"/><text fill="#000000" font-family="sans-serif" font-size="14" lengthAdjust="spacing" textLength="207" x="995" y="285.4082">visit_property(element: Property)</text><ellipse cx="986" cy="298.7891" fill="#84BE84" rx="3" ry="3" style="stroke:#038048;stroke-width:1.0;"/><text fill="#000000" font-family="sans-serif" font-size="14" lengthAdjust="spacing" textLength="322" x="995" y="303.0176">visit_request_received(element: RequestReceived)</text><ellipse cx="986" cy="316.3984" fill="#84BE84" rx="3" ry="3" style="stroke:#038048;stroke-width:1.0;"/><text fill="#000000" font-family="sans-serif" font-size="14" lengthAdjust="spacing" textLength="273" x="995" y="320.627">visit_request_send(element: RequestSend)</text><ellipse cx="986" cy="334.0078" fill="#84BE84" rx="3" ry="3" style="stroke:#038048;stroke-width:1.0;"/><text fill="#000000" font-family="sans-serif" font-size="14" lengthAdjust="spacing" textLength="157" x="995" y="338.2363">visit_time(element: Time)</text></g><!--MD5=[df4b7e6509ada7268780aedd161eb998]
class ContainerVisitor--><g id="elem_ContainerVisitor"><rect codeLine="27" fill="#F1F1F1" height="329.75" id="ContainerVisitor" rx="2.5" ry="2.5" style="stroke:#181818;stroke-width:0.5;" width="372" x="1376" y="421"/><ellipse cx="1507.25" cy="437" fill="#ADD1B2" rx="11" ry="11" style="stroke:#181818;stroke-width:1.0;"/><path d="M1510.0156,432.875 Q1510.1719,432.6563 1510.3594,432.5469 Q1510.5469,432.4375 1510.7656,432.4375 Q1511.1406,432.4375 1511.375,432.6953 Q1511.6094,432.9531 1511.6094,433.5625 L1511.6094,435.0156 Q1511.6094,435.625 1511.375,435.8906 Q1511.1406,436.1563 1510.7656,436.1563 Q1510.4219,436.1563 1510.2188,435.9531 Q1510.0156,435.7656 1509.9063,435.25 Q1509.8594,434.8906 1509.6719,434.7031 Q1509.3438,434.3281 1508.7344,434.1094 Q1508.125,433.8906 1507.5,433.8906 Q1506.7344,433.8906 1506.1016,434.2188 Q1505.4688,434.5469 1504.9766,435.2969 Q1504.4844,436.0469 1504.4844,437.0781 L1504.4844,438.1719 Q1504.4844,439.4063 1505.375,440.2266 Q1506.2656,441.0469 1507.8594,441.0469 Q1508.7969,441.0469 1509.4531,440.7969 Q1509.8438,440.6406 1510.2656,440.2031 Q1510.5313,439.9375 1510.6797,439.8594 Q1510.8281,439.7813 1511.0313,439.7813 Q1511.3594,439.7813 1511.6172,440.0391 Q1511.875,440.2969 1511.875,440.6406 Q1511.875,440.9844 1511.5313,441.3906 Q1511.0313,441.9688 1510.2344,442.2969 Q1509.1563,442.75 1507.8594,442.75 Q1506.3438,442.75 1505.1406,442.125 Q1504.1563,441.625 1503.4688,440.5547 Q1502.7813,439.4844 1502.7813,438.2031 L1502.7813,437.0469 Q1502.7813,435.7188 1503.3984,434.5703 Q1504.0156,433.4219 1505.1094,432.8047 Q1506.2031,432.1875 1507.4375,432.1875 Q1508.1719,432.1875 1508.8203,432.3516 Q1509.4688,432.5156 1510.0156,432.875 Z " fill="#000000"/><text fill="#000000" font-family="sans-serif" font-size="14" lengthAdjust="spacing" textLength="101" x="1527.75" y="442.7285">ContainerVisitor</text><line style="stroke:#181818;stroke-width:0.5;" x1="1377" x2="1747" y1="453" y2="453"/><rect fill="none" height="6" style="stroke:#C82930;stroke-width:1.0;" width="6" x="1384" y="464.3047"/><text fill="#000000" font-family="sans-serif" font-size="14" lengthAdjust="spacing" textLength="135" x="1396" y="471.5332">generator: Generator</text><rect fill="none" height="6" style="stroke:#C82930;stroke-width:1.0;" width="6" x="1384" y="481.9141"/><text fill="#000000" font-family="sans-serif" font-size="14" lengthAdjust="spacing" textLength="168" x="1396" y="489.1426">data_read_generated: List</text><rect fill="none" height="6" style="stroke:#C82930;stroke-width:1.0;" width="6" x="1384" y="499.5234"/><text fill="#000000" font-family="sans-serif" font-size="14" lengthAdjust="spacing" textLength="180" x="1396" y="506.752">data_written_generated: List</text><rect fill="none" height="6" style="stroke:#C82930;stroke-width:1.0;" width="6" x="1384" y="517.1328"/><text fill="#000000" font-family="sans-serif" font-size="14" lengthAdjust="spacing" textLength="177" x="1396" y="524.3613">event_send_generated: List</text><rect fill="none" height="6" style="stroke:#C82930;stroke-width:1.0;" width="6" x="1384" y="534.7422"/><text fill="#000000" font-family="sans-serif" font-size="14" lengthAdjust="spacing" textLength="190" x="1396" y="541.9707">request_send_generated: List</text><rect fill="none" height="6" style="stroke:#C82930;stroke-width:1.0;" width="6" x="1384" y="552.3516"/><text fill="#000000" font-family="sans-serif" font-size="14" lengthAdjust="spacing" textLength="201" x="1396" y="559.5801">response_send_generated: List</text><line style="stroke:#181818;stroke-width:0.5;" x1="1377" x2="1747" y1="566.6563" y2="566.6563"/><ellipse cx="1387" cy="580.9609" fill="#84BE84" rx="3" ry="3" style="stroke:#038048;stroke-width:1.0;"/><text fill="#000000" font-family="sans-serif" font-size="14" lengthAdjust="spacing" textLength="253" x="1396" y="585.1895">visit_data_read(element: DataRead): str</text><ellipse cx="1387" cy="598.5703" fill="#84BE84" rx="3" ry="3" style="stroke:#038048;stroke-width:1.0;"/><text fill="#000000" font-family="sans-serif" font-size="14" lengthAdjust="spacing" textLength="276" x="1396" y="602.7988">visit_data_written(element: DataWritten): str</text><ellipse cx="1387" cy="616.1797" fill="#84BE84" rx="3" ry="3" style="stroke:#038048;stroke-width:1.0;"/><text fill="#000000" font-family="sans-serif" font-size="14" lengthAdjust="spacing" textLength="267" x="1396" y="620.4082">visit_event_send(element: EventSend): str</text><ellipse cx="1387" cy="633.7891" fill="#84BE84" rx="3" ry="3" style="stroke:#038048;stroke-width:1.0;"/><text fill="#000000" font-family="sans-serif" font-size="14" lengthAdjust="spacing" textLength="225" x="1396" y="638.0176">visit_external(element: External): str</text><ellipse cx="1387" cy="651.3984" fill="#84BE84" rx="3" ry="3" style="stroke:#038048;stroke-width:1.0;"/><text fill="#000000" font-family="sans-serif" font-size="14" lengthAdjust="spacing" textLength="167" x="1396" y="655.627">visit_log(element: Log): str</text><ellipse cx="1387" cy="669.0078" fill="#84BE84" rx="3" ry="3" style="stroke:#038048;stroke-width:1.0;"/><text fill="#000000" font-family="sans-serif" font-size="14" lengthAdjust="spacing" textLength="187" x="1396" y="673.2363">visit_pinfo(element: Pinfo): str</text><ellipse cx="1387" cy="686.6172" fill="#84BE84" rx="3" ry="3" style="stroke:#038048;stroke-width:1.0;"/><text fill="#000000" font-family="sans-serif" font-size="14" lengthAdjust="spacing" textLength="231" x="1396" y="690.8457">visit_property(element: Property): str</text><ellipse cx="1387" cy="704.2266" fill="#84BE84" rx="3" ry="3" style="stroke:#038048;stroke-width:1.0;"/><text fill="#000000" font-family="sans-serif" font-size="14" lengthAdjust="spacing" textLength="346" x="1396" y="708.4551">visit_request_received(element: RequestReceived): str</text><ellipse cx="1387" cy="721.8359" fill="#84BE84" rx="3" ry="3" style="stroke:#038048;stroke-width:1.0;"/><text fill="#000000" font-family="sans-serif" font-size="14" lengthAdjust="spacing" textLength="297" x="1396" y="726.0645">visit_request_send(element: RequestSend): str</text><ellipse cx="1387" cy="739.4453" fill="#84BE84" rx="3" ry="3" style="stroke:#038048;stroke-width:1.0;"/><text fill="#000000" font-family="sans-serif" font-size="14" lengthAdjust="spacing" textLength="181" x="1396" y="743.6738">visit_time(element: Time): str</text></g><!--MD5=[927815ce20cf11b522aa28b9d764b71e]
class ModuleVisitor--><g id="elem_ModuleVisitor"><rect codeLine="46" fill="#F1F1F1" height="206.4844" id="ModuleVisitor" rx="2.5" ry="2.5" style="stroke:#181818;stroke-width:0.5;" width="372" x="969" y="483"/><ellipse cx="1108.25" cy="499" fill="#ADD1B2" rx="11" ry="11" style="stroke:#181818;stroke-width:1.0;"/><path d="M1111.0156,494.875 Q1111.1719,494.6563 1111.3594,494.5469 Q1111.5469,494.4375 1111.7656,494.4375 Q1112.1406,494.4375 1112.375,494.6953 Q1112.6094,494.9531 1112.6094,495.5625 L1112.6094,497.0156 Q1112.6094,497.625 1112.375,497.8906 Q1112.1406,498.1563 1111.7656,498.1563 Q1111.4219,498.1563 1111.2188,497.9531 Q1111.0156,497.7656 1110.9063,497.25 Q1110.8594,496.8906 1110.6719,496.7031 Q1110.3438,496.3281 1109.7344,496.1094 Q1109.125,495.8906 1108.5,495.8906 Q1107.7344,495.8906 1107.1016,496.2188 Q1106.4688,496.5469 1105.9766,497.2969 Q1105.4844,498.0469 1105.4844,499.0781 L1105.4844,500.1719 Q1105.4844,501.4063 1106.375,502.2266 Q1107.2656,503.0469 1108.8594,503.0469 Q1109.7969,503.0469 1110.4531,502.7969 Q1110.8438,502.6406 1111.2656,502.2031 Q1111.5313,501.9375 1111.6797,501.8594 Q1111.8281,501.7813 1112.0313,501.7813 Q1112.3594,501.7813 1112.6172,502.0391 Q1112.875,502.2969 1112.875,502.6406 Q1112.875,502.9844 1112.5313,503.3906 Q1112.0313,503.9688 1111.2344,504.2969 Q1110.1563,504.75 1108.8594,504.75 Q1107.3438,504.75 1106.1406,504.125 Q1105.1563,503.625 1104.4688,502.5547 Q1103.7813,501.4844 1103.7813,500.2031 L1103.7813,499.0469 Q1103.7813,497.7188 1104.3984,496.5703 Q1105.0156,495.4219 1106.1094,494.8047 Q1107.2031,494.1875 1108.4375,494.1875 Q1109.1719,494.1875 1109.8203,494.3516 Q1110.4688,494.5156 1111.0156,494.875 Z " fill="#000000"/><text fill="#000000" font-family="sans-serif" font-size="14" lengthAdjust="spacing" textLength="85" x="1128.75" y="504.7285">ModuleVisitor</text><line style="stroke:#181818;stroke-width:0.5;" x1="970" x2="1340" y1="515" y2="515"/><rect fill="none" height="6" style="stroke:#C82930;stroke-width:1.0;" width="6" x="977" y="526.3047"/><text fill="#000000" font-family="sans-serif" font-size="14" lengthAdjust="spacing" textLength="135" x="989" y="533.5332">generator: Generator</text><rect fill="none" height="6" style="stroke:#C82930;stroke-width:1.0;" width="6" x="977" y="543.9141"/><text fill="#000000" font-family="sans-serif" font-size="14" lengthAdjust="spacing" textLength="191" x="989" y="551.1426">data_updated_generated: List</text><rect fill="none" height="6" style="stroke:#C82930;stroke-width:1.0;" width="6" x="977" y="561.5234"/><text fill="#000000" font-family="sans-serif" font-size="14" lengthAdjust="spacing" textLength="200" x="989" y="568.752">event_received_generated: List</text><rect fill="none" height="6" style="stroke:#C82930;stroke-width:1.0;" width="6" x="977" y="579.1328"/><text fill="#000000" font-family="sans-serif" font-size="14" lengthAdjust="spacing" textLength="213" x="989" y="586.3613">request_received_generated: List</text><rect fill="none" height="6" style="stroke:#C82930;stroke-width:1.0;" width="6" x="977" y="596.7422"/><text fill="#000000" font-family="sans-serif" font-size="14" lengthAdjust="spacing" textLength="224" x="989" y="603.9707">response_received_generated: List</text><line style="stroke:#181818;stroke-width:0.5;" x1="970" x2="1340" y1="611.0469" y2="611.0469"/><ellipse cx="980" cy="625.3516" fill="#84BE84" rx="3" ry="3" style="stroke:#038048;stroke-width:1.0;"/><text fill="#000000" font-family="sans-serif" font-size="14" lengthAdjust="spacing" textLength="253" x="989" y="629.5801">visit_data_read(element: DataRead): str</text><ellipse cx="980" cy="642.9609" fill="#84BE84" rx="3" ry="3" style="stroke:#038048;stroke-width:1.0;"/><text fill="#000000" font-family="sans-serif" font-size="14" lengthAdjust="spacing" textLength="316" x="989" y="647.1895">visit_event_received(element: EventReceived): str</text><ellipse cx="980" cy="660.5703" fill="#84BE84" rx="3" ry="3" style="stroke:#038048;stroke-width:1.0;"/><text fill="#000000" font-family="sans-serif" font-size="14" lengthAdjust="spacing" textLength="346" x="989" y="664.7988">visit_request_received(element: RequestReceived): str</text><ellipse cx="980" cy="678.1797" fill="#84BE84" rx="3" ry="3" style="stroke:#038048;stroke-width:1.0;"/><text fill="#000000" font-family="sans-serif" font-size="14" lengthAdjust="spacing" textLength="310" x="989" y="682.4082">visit_request_send(element: RequestSend) -&gt; str</text></g><!--MD5=[e62d99cc97ec87bb1def512f58e4db4f]
class ContainerInterfaceGenerator--><g id="elem_ContainerInterfaceGenerator"><rect codeLine="68" fill="#F1F1F1" height="48" id="ContainerInterfaceGenerator" rx="2.5" ry="2.5" style="stroke:#181818;stroke-width:0.5;" width="214" x="1497" y="965.5"/><ellipse cx="1512" cy="981.5" fill="#ADD1B2" rx="11" ry="11" style="stroke:#181818;stroke-width:1.0;"/><path d="M1514.7656,977.375 Q1514.9219,977.1563 1515.1094,977.0469 Q1515.2969,976.9375 1515.5156,976.9375 Q1515.8906,976.9375 1516.125,977.1953 Q1516.3594,977.4531 1516.3594,978.0625 L1516.3594,979.5156 Q1516.3594,980.125 1516.125,980.3906 Q1515.8906,980.6563 1515.5156,980.6563 Q1515.1719,980.6563 1514.9688,980.4531 Q1514.7656,980.2656 1514.6563,979.75 Q1514.6094,979.3906 1514.4219,979.2031 Q1514.0938,978.8281 1513.4844,978.6094 Q1512.875,978.3906 1512.25,978.3906 Q1511.4844,978.3906 1510.8516,978.7188 Q1510.2188,979.0469 1509.7266,979.7969 Q1509.2344,980.5469 1509.2344,981.5781 L1509.2344,982.6719 Q1509.2344,983.9063 1510.125,984.7266 Q1511.0156,985.5469 1512.6094,985.5469 Q1513.5469,985.5469 1514.2031,985.2969 Q1514.5938,985.1406 1515.0156,984.7031 Q1515.2813,984.4375 1515.4297,984.3594 Q1515.5781,984.2813 1515.7813,984.2813 Q1516.1094,984.2813 1516.3672,984.5391 Q1516.625,984.7969 1516.625,985.1406 Q1516.625,985.4844 1516.2813,985.8906 Q1515.7813,986.4688 1514.9844,986.7969 Q1513.9063,987.25 1512.6094,987.25 Q1511.0938,987.25 1509.8906,986.625 Q1508.9063,986.125 1508.2188,985.0547 Q1507.5313,983.9844 1507.5313,982.7031 L1507.5313,981.5469 Q1507.5313,980.2188 1508.1484,979.0703 Q1508.7656,977.9219 1509.8594,977.3047 Q1510.9531,976.6875 1512.1875,976.6875 Q1512.9219,976.6875 1513.5703,976.8516 Q1514.2188,977.0156 1514.7656,977.375 Z " fill="#000000"/><text fill="#000000" font-family="sans-serif" font-size="14" lengthAdjust="spacing" textLength="182" x="1526" y="987.2285">ContainerInterfaceGenerator</text><line style="stroke:#181818;stroke-width:0.5;" x1="1498" x2="1710" y1="997.5" y2="997.5"/><line style="stroke:#181818;stroke-width:0.5;" x1="1498" x2="1710" y1="1005.5" y2="1005.5"/></g><!--MD5=[4a10f44f31388b479f50232d0d55bb4a]
class ModuleInterfaceGenerator--><g id="elem_ModuleInterfaceGenerator"><rect codeLine="74" fill="#F1F1F1" height="48" id="ModuleInterfaceGenerator" rx="2.5" ry="2.5" style="stroke:#181818;stroke-width:0.5;" width="198" x="1243" y="965.5"/><ellipse cx="1258" cy="981.5" fill="#ADD1B2" rx="11" ry="11" style="stroke:#181818;stroke-width:1.0;"/><path d="M1260.7656,977.375 Q1260.9219,977.1563 1261.1094,977.0469 Q1261.2969,976.9375 1261.5156,976.9375 Q1261.8906,976.9375 1262.125,977.1953 Q1262.3594,977.4531 1262.3594,978.0625 L1262.3594,979.5156 Q1262.3594,980.125 1262.125,980.3906 Q1261.8906,980.6563 1261.5156,980.6563 Q1261.1719,980.6563 1260.9688,980.4531 Q1260.7656,980.2656 1260.6563,979.75 Q1260.6094,979.3906 1260.4219,979.2031 Q1260.0938,978.8281 1259.4844,978.6094 Q1258.875,978.3906 1258.25,978.3906 Q1257.4844,978.3906 1256.8516,978.7188 Q1256.2188,979.0469 1255.7266,979.7969 Q1255.2344,980.5469 1255.2344,981.5781 L1255.2344,982.6719 Q1255.2344,983.9063 1256.125,984.7266 Q1257.0156,985.5469 1258.6094,985.5469 Q1259.5469,985.5469 1260.2031,985.2969 Q1260.5938,985.1406 1261.0156,984.7031 Q1261.2813,984.4375 1261.4297,984.3594 Q1261.5781,984.2813 1261.7813,984.2813 Q1262.1094,984.2813 1262.3672,984.5391 Q1262.625,984.7969 1262.625,985.1406 Q1262.625,985.4844 1262.2813,985.8906 Q1261.7813,986.4688 1260.9844,986.7969 Q1259.9063,987.25 1258.6094,987.25 Q1257.0938,987.25 1255.8906,986.625 Q1254.9063,986.125 1254.2188,985.0547 Q1253.5313,983.9844 1253.5313,982.7031 L1253.5313,981.5469 Q1253.5313,980.2188 1254.1484,979.0703 Q1254.7656,977.9219 1255.8594,977.3047 Q1256.9531,976.6875 1258.1875,976.6875 Q1258.9219,976.6875 1259.5703,976.8516 Q1260.2188,977.0156 1260.7656,977.375 Z " fill="#000000"/><text fill="#000000" font-family="sans-serif" font-size="14" lengthAdjust="spacing" textLength="166" x="1272" y="987.2285">ModuleInterfaceGenerator</text><line style="stroke:#181818;stroke-width:0.5;" x1="1244" x2="1440" y1="997.5" y2="997.5"/><line style="stroke:#181818;stroke-width:0.5;" x1="1244" x2="1440" y1="1005.5" y2="1005.5"/></g><!--MD5=[42cc77cbd82cf8762119b62e246ca89e]
class ModuleSourceGenerator--><g id="elem_ModuleSourceGenerator"><rect codeLine="76" fill="#F1F1F1" height="48" id="ModuleSourceGenerator" rx="2.5" ry="2.5" style="stroke:#181818;stroke-width:0.5;" width="188" x="1020" y="965.5"/><ellipse cx="1035" cy="981.5" fill="#ADD1B2" rx="11" ry="11" style="stroke:#181818;stroke-width:1.0;"/><path d="M1037.7656,977.375 Q1037.9219,977.1563 1038.1094,977.0469 Q1038.2969,976.9375 1038.5156,976.9375 Q1038.8906,976.9375 1039.125,977.1953 Q1039.3594,977.4531 1039.3594,978.0625 L1039.3594,979.5156 Q1039.3594,980.125 1039.125,980.3906 Q1038.8906,980.6563 1038.5156,980.6563 Q1038.1719,980.6563 1037.9688,980.4531 Q1037.7656,980.2656 1037.6563,979.75 Q1037.6094,979.3906 1037.4219,979.2031 Q1037.0938,978.8281 1036.4844,978.6094 Q1035.875,978.3906 1035.25,978.3906 Q1034.4844,978.3906 1033.8516,978.7188 Q1033.2188,979.0469 1032.7266,979.7969 Q1032.2344,980.5469 1032.2344,981.5781 L1032.2344,982.6719 Q1032.2344,983.9063 1033.125,984.7266 Q1034.0156,985.5469 1035.6094,985.5469 Q1036.5469,985.5469 1037.2031,985.2969 Q1037.5938,985.1406 1038.0156,984.7031 Q1038.2813,984.4375 1038.4297,984.3594 Q1038.5781,984.2813 1038.7813,984.2813 Q1039.1094,984.2813 1039.3672,984.5391 Q1039.625,984.7969 1039.625,985.1406 Q1039.625,985.4844 1039.2813,985.8906 Q1038.7813,986.4688 1037.9844,986.7969 Q1036.9063,987.25 1035.6094,987.25 Q1034.0938,987.25 1032.8906,986.625 Q1031.9063,986.125 1031.2188,985.0547 Q1030.5313,983.9844 1030.5313,982.7031 L1030.5313,981.5469 Q1030.5313,980.2188 1031.1484,979.0703 Q1031.7656,977.9219 1032.8594,977.3047 Q1033.9531,976.6875 1035.1875,976.6875 Q1035.9219,976.6875 1036.5703,976.8516 Q1037.2188,977.0156 1037.7656,977.375 Z " fill="#000000"/><text fill="#000000" font-family="sans-serif" font-size="14" lengthAdjust="spacing" textLength="156" x="1049" y="987.2285">ModuleSourceGenerator</text><line style="stroke:#181818;stroke-width:0.5;" x1="1021" x2="1207" y1="997.5" y2="997.5"/><line style="stroke:#181818;stroke-width:0.5;" x1="1021" x2="1207" y1="1005.5" y2="1005.5"/></g><!--MD5=[86531748374418ef77462869d0cf6672]
class UnitTestContainerMockVisitor--><g id="elem_UnitTestContainerMockVisitor"><rect codeLine="82" fill="#F1F1F1" height="100.8281" id="UnitTestContainerMockVisitor" rx="2.5" ry="2.5" style="stroke:#181818;stroke-width:0.5;" width="378" x="586" y="939"/><ellipse cx="703.75" cy="955" fill="#ADD1B2" rx="11" ry="11" style="stroke:#181818;stroke-width:1.0;"/><path d="M706.5156,950.875 Q706.6719,950.6563 706.8594,950.5469 Q707.0469,950.4375 707.2656,950.4375 Q707.6406,950.4375 707.875,950.6953 Q708.1094,950.9531 708.1094,951.5625 L708.1094,953.0156 Q708.1094,953.625 707.875,953.8906 Q707.6406,954.1563 707.2656,954.1563 Q706.9219,954.1563 706.7188,953.9531 Q706.5156,953.7656 706.4063,953.25 Q706.3594,952.8906 706.1719,952.7031 Q705.8438,952.3281 705.2344,952.1094 Q704.625,951.8906 704,951.8906 Q703.2344,951.8906 702.6016,952.2188 Q701.9688,952.5469 701.4766,953.2969 Q700.9844,954.0469 700.9844,955.0781 L700.9844,956.1719 Q700.9844,957.4063 701.875,958.2266 Q702.7656,959.0469 704.3594,959.0469 Q705.2969,959.0469 705.9531,958.7969 Q706.3438,958.6406 706.7656,958.2031 Q707.0313,957.9375 707.1797,957.8594 Q707.3281,957.7813 707.5313,957.7813 Q707.8594,957.7813 708.1172,958.0391 Q708.375,958.2969 708.375,958.6406 Q708.375,958.9844 708.0313,959.3906 Q707.5313,959.9688 706.7344,960.2969 Q705.6563,960.75 704.3594,960.75 Q702.8438,960.75 701.6406,960.125 Q700.6563,959.625 699.9688,958.5547 Q699.2813,957.4844 699.2813,956.2031 L699.2813,955.0469 Q699.2813,953.7188 699.8984,952.5703 Q700.5156,951.4219 701.6094,950.8047 Q702.7031,950.1875 703.9375,950.1875 Q704.6719,950.1875 705.3203,950.3516 Q705.9688,950.5156 706.5156,950.875 Z " fill="#000000"/><text fill="#000000" font-family="sans-serif" font-size="14" lengthAdjust="spacing" textLength="134" x="724.25" y="960.7285">ContainerMockVisitor</text><line style="stroke:#181818;stroke-width:0.5;" x1="587" x2="963" y1="971" y2="971"/><rect fill="none" height="6" style="stroke:#C82930;stroke-width:1.0;" width="6" x="594" y="982.3047"/><text fill="#000000" font-family="sans-serif" font-size="14" lengthAdjust="spacing" textLength="77" x="606" y="989.5332">ecoa_model</text><line style="stroke:#181818;stroke-width:0.5;" x1="587" x2="963" y1="996.6094" y2="996.6094"/><ellipse cx="597" cy="1010.9141" fill="#84BE84" rx="3" ry="3" style="stroke:#038048;stroke-width:1.0;"/><text fill="#000000" font-family="sans-serif" font-size="14" lengthAdjust="spacing" textLength="352" x="606" y="1015.1426">visit_CMGlobalVariable(element: CMGlobalVariable): str</text><ellipse cx="597" cy="1028.5234" fill="#84BE84" rx="3" ry="3" style="stroke:#038048;stroke-width:1.0;"/><text fill="#000000" font-family="sans-serif" font-size="14" lengthAdjust="spacing" textLength="239" x="606" y="1032.752">visit_hook(element: PlatformHook): str</text></g><!--MD5=[2878561020d0e6eefb2a0318a966cfea]
class UnitTestContainerMockGenerator--><g id="elem_UnitTestContainerMockGenerator"><rect codeLine="88" fill="#F1F1F1" height="48" id="UnitTestContainerMockGenerator" rx="2.5" ry="2.5" style="stroke:#181818;stroke-width:0.5;" width="244" x="653" y="1100"/><ellipse cx="668" cy="1116" fill="#ADD1B2" rx="11" ry="11" style="stroke:#181818;stroke-width:1.0;"/><path d="M670.7656,1111.875 Q670.9219,1111.6563 671.1094,1111.5469 Q671.2969,1111.4375 671.5156,1111.4375 Q671.8906,1111.4375 672.125,1111.6953 Q672.3594,1111.9531 672.3594,1112.5625 L672.3594,1114.0156 Q672.3594,1114.625 672.125,1114.8906 Q671.8906,1115.1563 671.5156,1115.1563 Q671.1719,1115.1563 670.9688,1114.9531 Q670.7656,1114.7656 670.6563,1114.25 Q670.6094,1113.8906 670.4219,1113.7031 Q670.0938,1113.3281 669.4844,1113.1094 Q668.875,1112.8906 668.25,1112.8906 Q667.4844,1112.8906 666.8516,1113.2188 Q666.2188,1113.5469 665.7266,1114.2969 Q665.2344,1115.0469 665.2344,1116.0781 L665.2344,1117.1719 Q665.2344,1118.4063 666.125,1119.2266 Q667.0156,1120.0469 668.6094,1120.0469 Q669.5469,1120.0469 670.2031,1119.7969 Q670.5938,1119.6406 671.0156,1119.2031 Q671.2813,1118.9375 671.4297,1118.8594 Q671.5781,1118.7813 671.7813,1118.7813 Q672.1094,1118.7813 672.3672,1119.0391 Q672.625,1119.2969 672.625,1119.6406 Q672.625,1119.9844 672.2813,1120.3906 Q671.7813,1120.9688 670.9844,1121.2969 Q669.9063,1121.75 668.6094,1121.75 Q667.0938,1121.75 665.8906,1121.125 Q664.9063,1120.625 664.2188,1119.5547 Q663.5313,1118.4844 663.5313,1117.2031 L663.5313,1116.0469 Q663.5313,1114.7188 664.1484,1113.5703 Q664.7656,1112.4219 665.8594,1111.8047 Q666.9531,1111.1875 668.1875,1111.1875 Q668.9219,1111.1875 669.5703,1111.3516 Q670.2188,1111.5156 670.7656,1111.875 Z " fill="#000000"/><text fill="#000000" font-family="sans-serif" font-size="14" lengthAdjust="spacing" textLength="212" x="682" y="1121.7285">UnitTestContainerMockGenerator</text><line style="stroke:#181818;stroke-width:0.5;" x1="654" x2="896" y1="1132" y2="1132"/><line style="stroke:#181818;stroke-width:0.5;" x1="654" x2="896" y1="1140" y2="1140"/></g><!--MD5=[5a08800a9ac3b73b4e6c51d6693a3351]
class ModuleTestImplementationVisitor--><g id="elem_ModuleTestImplementationVisitor"><rect codeLine="90" fill="#F1F1F1" height="48" id="ModuleTestImplementationVisitor" rx="2.5" ry="2.5" style="stroke:#181818;stroke-width:0.5;" width="240" x="70" y="965.5"/><ellipse cx="85" cy="981.5" fill="#ADD1B2" rx="11" ry="11" style="stroke:#181818;stroke-width:1.0;"/><path d="M87.7656,977.375 Q87.9219,977.1563 88.1094,977.0469 Q88.2969,976.9375 88.5156,976.9375 Q88.8906,976.9375 89.125,977.1953 Q89.3594,977.4531 89.3594,978.0625 L89.3594,979.5156 Q89.3594,980.125 89.125,980.3906 Q88.8906,980.6563 88.5156,980.6563 Q88.1719,980.6563 87.9688,980.4531 Q87.7656,980.2656 87.6563,979.75 Q87.6094,979.3906 87.4219,979.2031 Q87.0938,978.8281 86.4844,978.6094 Q85.875,978.3906 85.25,978.3906 Q84.4844,978.3906 83.8516,978.7188 Q83.2188,979.0469 82.7266,979.7969 Q82.2344,980.5469 82.2344,981.5781 L82.2344,982.6719 Q82.2344,983.9063 83.125,984.7266 Q84.0156,985.5469 85.6094,985.5469 Q86.5469,985.5469 87.2031,985.2969 Q87.5938,985.1406 88.0156,984.7031 Q88.2813,984.4375 88.4297,984.3594 Q88.5781,984.2813 88.7813,984.2813 Q89.1094,984.2813 89.3672,984.5391 Q89.625,984.7969 89.625,985.1406 Q89.625,985.4844 89.2813,985.8906 Q88.7813,986.4688 87.9844,986.7969 Q86.9063,987.25 85.6094,987.25 Q84.0938,987.25 82.8906,986.625 Q81.9063,986.125 81.2188,985.0547 Q80.5313,983.9844 80.5313,982.7031 L80.5313,981.5469 Q80.5313,980.2188 81.1484,979.0703 Q81.7656,977.9219 82.8594,977.3047 Q83.9531,976.6875 85.1875,976.6875 Q85.9219,976.6875 86.5703,976.8516 Q87.2188,977.0156 87.7656,977.375 Z " fill="#000000"/><text fill="#000000" font-family="sans-serif" font-size="14" lengthAdjust="spacing" textLength="208" x="99" y="987.2285">ModuleTestImplementationVisitor</text><line style="stroke:#181818;stroke-width:0.5;" x1="71" x2="309" y1="997.5" y2="997.5"/><line style="stroke:#181818;stroke-width:0.5;" x1="71" x2="309" y1="1005.5" y2="1005.5"/></g><!--MD5=[9e15ba1b556791f9a5e132f556090d3d]
class ModuleTestPrototypeVisitor--><g id="elem_ModuleTestPrototypeVisitor"><rect codeLine="92" fill="#F1F1F1" height="48" id="ModuleTestPrototypeVisitor" rx="2.5" ry="2.5" style="stroke:#181818;stroke-width:0.5;" width="206" x="345" y="965.5"/><ellipse cx="360" cy="981.5" fill="#ADD1B2" rx="11" ry="11" style="stroke:#181818;stroke-width:1.0;"/><path d="M362.7656,977.375 Q362.9219,977.1563 363.1094,977.0469 Q363.2969,976.9375 363.5156,976.9375 Q363.8906,976.9375 364.125,977.1953 Q364.3594,977.4531 364.3594,978.0625 L364.3594,979.5156 Q364.3594,980.125 364.125,980.3906 Q363.8906,980.6563 363.5156,980.6563 Q363.1719,980.6563 362.9688,980.4531 Q362.7656,980.2656 362.6563,979.75 Q362.6094,979.3906 362.4219,979.2031 Q362.0938,978.8281 361.4844,978.6094 Q360.875,978.3906 360.25,978.3906 Q359.4844,978.3906 358.8516,978.7188 Q358.2188,979.0469 357.7266,979.7969 Q357.2344,980.5469 357.2344,981.5781 L357.2344,982.6719 Q357.2344,983.9063 358.125,984.7266 Q359.0156,985.5469 360.6094,985.5469 Q361.5469,985.5469 362.2031,985.2969 Q362.5938,985.1406 363.0156,984.7031 Q363.2813,984.4375 363.4297,984.3594 Q363.5781,984.2813 363.7813,984.2813 Q364.1094,984.2813 364.3672,984.5391 Q364.625,984.7969 364.625,985.1406 Q364.625,985.4844 364.2813,985.8906 Q363.7813,986.4688 362.9844,986.7969 Q361.9063,987.25 360.6094,987.25 Q359.0938,987.25 357.8906,986.625 Q356.9063,986.125 356.2188,985.0547 Q355.5313,983.9844 355.5313,982.7031 L355.5313,981.5469 Q355.5313,980.2188 356.1484,979.0703 Q356.7656,977.9219 357.8594,977.3047 Q358.9531,976.6875 360.1875,976.6875 Q360.9219,976.6875 361.5703,976.8516 Q362.2188,977.0156 362.7656,977.375 Z " fill="#000000"/><text fill="#000000" font-family="sans-serif" font-size="14" lengthAdjust="spacing" textLength="174" x="374" y="987.2285">ModuleTestPrototypeVisitor</text><line style="stroke:#181818;stroke-width:0.5;" x1="346" x2="550" y1="997.5" y2="997.5"/><line style="stroke:#181818;stroke-width:0.5;" x1="346" x2="550" y1="1005.5" y2="1005.5"/></g><!--MD5=[dc7041799a9fd4e3f3d21a76a34aa45d]
class UnitTestMainGenerator--><g id="elem_UnitTestMainGenerator"><rect codeLine="94" fill="#F1F1F1" height="48" id="UnitTestMainGenerator" rx="2.5" ry="2.5" style="stroke:#181818;stroke-width:0.5;" width="179" x="229.5" y="1100"/><ellipse cx="244.5" cy="1116" fill="#ADD1B2" rx="11" ry="11" style="stroke:#181818;stroke-width:1.0;"/><path d="M247.2656,1111.875 Q247.4219,1111.6563 247.6094,1111.5469 Q247.7969,1111.4375 248.0156,1111.4375 Q248.3906,1111.4375 248.625,1111.6953 Q248.8594,1111.9531 248.8594,1112.5625 L248.8594,1114.0156 Q248.8594,1114.625 248.625,1114.8906 Q248.3906,1115.1563 248.0156,1115.1563 Q247.6719,1115.1563 247.4688,1114.9531 Q247.2656,1114.7656 247.1563,1114.25 Q247.1094,1113.8906 246.9219,1113.7031 Q246.5938,1113.3281 245.9844,1113.1094 Q245.375,1112.8906 244.75,1112.8906 Q243.9844,1112.8906 243.3516,1113.2188 Q242.7188,1113.5469 242.2266,1114.2969 Q241.7344,1115.0469 241.7344,1116.0781 L241.7344,1117.1719 Q241.7344,1118.4063 242.625,1119.2266 Q243.5156,1120.0469 245.1094,1120.0469 Q246.0469,1120.0469 246.7031,1119.7969 Q247.0938,1119.6406 247.5156,1119.2031 Q247.7813,1118.9375 247.9297,1118.8594 Q248.0781,1118.7813 248.2813,1118.7813 Q248.6094,1118.7813 248.8672,1119.0391 Q249.125,1119.2969 249.125,1119.6406 Q249.125,1119.9844 248.7813,1120.3906 Q248.2813,1120.9688 247.4844,1121.2969 Q246.4063,1121.75 245.1094,1121.75 Q243.5938,1121.75 242.3906,1121.125 Q241.4063,1120.625 240.7188,1119.5547 Q240.0313,1118.4844 240.0313,1117.2031 L240.0313,1116.0469 Q240.0313,1114.7188 240.6484,1113.5703 Q241.2656,1112.4219 242.3594,1111.8047 Q243.4531,1111.1875 244.6875,1111.1875 Q245.4219,1111.1875 246.0703,1111.3516 Q246.7188,1111.5156 247.2656,1111.875 Z " fill="#000000"/><text fill="#000000" font-family="sans-serif" font-size="14" lengthAdjust="spacing" textLength="147" x="258.5" y="1121.7285">UnitTestMainGenerator</text><line style="stroke:#181818;stroke-width:0.5;" x1="230.5" x2="407.5" y1="1132" y2="1132"/><line style="stroke:#181818;stroke-width:0.5;" x1="230.5" x2="407.5" y1="1140" y2="1140"/></g><!--MD5=[1ad21ca32b9ae982cf77f2196d6dc350]
class CSMContainerMockVisitor--><g id="elem_CSMContainerMockVisitor"><rect codeLine="106" fill="#F1F1F1" height="100.8281" id="CSMContainerMockVisitor" rx="2.5" ry="2.5" style="stroke:#181818;stroke-width:0.5;" width="378" x="2099" y="939"/><ellipse cx="2216.75" cy="955" fill="#ADD1B2" rx="11" ry="11" style="stroke:#181818;stroke-width:1.0;"/><path d="M2219.5156,950.875 Q2219.6719,950.6563 2219.8594,950.5469 Q2220.0469,950.4375 2220.2656,950.4375 Q2220.6406,950.4375 2220.875,950.6953 Q2221.1094,950.9531 2221.1094,951.5625 L2221.1094,953.0156 Q2221.1094,953.625 2220.875,953.8906 Q2220.6406,954.1563 2220.2656,954.1563 Q2219.9219,954.1563 2219.7188,953.9531 Q2219.5156,953.7656 2219.4063,953.25 Q2219.3594,952.8906 2219.1719,952.7031 Q2218.8438,952.3281 2218.2344,952.1094 Q2217.625,951.8906 2217,951.8906 Q2216.2344,951.8906 2215.6016,952.2188 Q2214.9688,952.5469 2214.4766,953.2969 Q2213.9844,954.0469 2213.9844,955.0781 L2213.9844,956.1719 Q2213.9844,957.4063 2214.875,958.2266 Q2215.7656,959.0469 2217.3594,959.0469 Q2218.2969,959.0469 2218.9531,958.7969 Q2219.3438,958.6406 2219.7656,958.2031 Q2220.0313,957.9375 2220.1797,957.8594 Q2220.3281,957.7813 2220.5313,957.7813 Q2220.8594,957.7813 2221.1172,958.0391 Q2221.375,958.2969 2221.375,958.6406 Q2221.375,958.9844 2221.0313,959.3906 Q2220.5313,959.9688 2219.7344,960.2969 Q2218.6563,960.75 2217.3594,960.75 Q2215.8438,960.75 2214.6406,960.125 Q2213.6563,959.625 2212.9688,958.5547 Q2212.2813,957.4844 2212.2813,956.2031 L2212.2813,955.0469 Q2212.2813,953.7188 2212.8984,952.5703 Q2213.5156,951.4219 2214.6094,950.8047 Q2215.7031,950.1875 2216.9375,950.1875 Q2217.6719,950.1875 2218.3203,950.3516 Q2218.9688,950.5156 2219.5156,950.875 Z " fill="#000000"/><text fill="#000000" font-family="sans-serif" font-size="14" lengthAdjust="spacing" textLength="134" x="2237.25" y="960.7285">ContainerMockVisitor</text><line style="stroke:#181818;stroke-width:0.5;" x1="2100" x2="2476" y1="971" y2="971"/><rect fill="none" height="6" style="stroke:#C82930;stroke-width:1.0;" width="6" x="2107" y="982.3047"/><text fill="#000000" font-family="sans-serif" font-size="14" lengthAdjust="spacing" textLength="77" x="2119" y="989.5332">ecoa_model</text><line style="stroke:#181818;stroke-width:0.5;" x1="2100" x2="2476" y1="996.6094" y2="996.6094"/><ellipse cx="2110" cy="1010.9141" fill="#84BE84" rx="3" ry="3" style="stroke:#038048;stroke-width:1.0;"/><text fill="#000000" font-family="sans-serif" font-size="14" lengthAdjust="spacing" textLength="352" x="2119" y="1015.1426">visit_CMGlobalVariable(element: CMGlobalVariable): str</text><ellipse cx="2110" cy="1028.5234" fill="#84BE84" rx="3" ry="3" style="stroke:#038048;stroke-width:1.0;"/><text fill="#000000" font-family="sans-serif" font-size="14" lengthAdjust="spacing" textLength="239" x="2119" y="1032.752">visit_hook(element: PlatformHook): str</text></g><!--MD5=[de02ae4076a12004fe7fd29c24b2e145]
class ContainerMockGenerator--><g id="elem_ContainerMockGenerator"><rect codeLine="112" fill="#F1F1F1" height="48" id="ContainerMockGenerator" rx="2.5" ry="2.5" style="stroke:#181818;stroke-width:0.5;" width="192" x="2192" y="1100"/><ellipse cx="2207" cy="1116" fill="#ADD1B2" rx="11" ry="11" style="stroke:#181818;stroke-width:1.0;"/><path d="M2209.7656,1111.875 Q2209.9219,1111.6563 2210.1094,1111.5469 Q2210.2969,1111.4375 2210.5156,1111.4375 Q2210.8906,1111.4375 2211.125,1111.6953 Q2211.3594,1111.9531 2211.3594,1112.5625 L2211.3594,1114.0156 Q2211.3594,1114.625 2211.125,1114.8906 Q2210.8906,1115.1563 2210.5156,1115.1563 Q2210.1719,1115.1563 2209.9688,1114.9531 Q2209.7656,1114.7656 2209.6563,1114.25 Q2209.6094,1113.8906 2209.4219,1113.7031 Q2209.0938,1113.3281 2208.4844,1113.1094 Q2207.875,1112.8906 2207.25,1112.8906 Q2206.4844,1112.8906 2205.8516,1113.2188 Q2205.2188,1113.5469 2204.7266,1114.2969 Q2204.2344,1115.0469 2204.2344,1116.0781 L2204.2344,1117.1719 Q2204.2344,1118.4063 2205.125,1119.2266 Q2206.0156,1120.0469 2207.6094,1120.0469 Q2208.5469,1120.0469 2209.2031,1119.7969 Q2209.5938,1119.6406 2210.0156,1119.2031 Q2210.2813,1118.9375 2210.4297,1118.8594 Q2210.5781,1118.7813 2210.7813,1118.7813 Q2211.1094,1118.7813 2211.3672,1119.0391 Q2211.625,1119.2969 2211.625,1119.6406 Q2211.625,1119.9844 2211.2813,1120.3906 Q2210.7813,1120.9688 2209.9844,1121.2969 Q2208.9063,1121.75 2207.6094,1121.75 Q2206.0938,1121.75 2204.8906,1121.125 Q2203.9063,1120.625 2203.2188,1119.5547 Q2202.5313,1118.4844 2202.5313,1117.2031 L2202.5313,1116.0469 Q2202.5313,1114.7188 2203.1484,1113.5703 Q2203.7656,1112.4219 2204.8594,1111.8047 Q2205.9531,1111.1875 2207.1875,1111.1875 Q2207.9219,1111.1875 2208.5703,1111.3516 Q2209.2188,1111.5156 2209.7656,1111.875 Z " fill="#000000"/><text fill="#000000" font-family="sans-serif" font-size="14" lengthAdjust="spacing" textLength="160" x="2221" y="1121.7285">ContainerMockGenerator</text><line style="stroke:#181818;stroke-width:0.5;" x1="2193" x2="2383" y1="1132" y2="1132"/><line style="stroke:#181818;stroke-width:0.5;" x1="2193" x2="2383" y1="1140" y2="1140"/></g><!--MD5=[bdef936024297ab37f7b66c54cf6aca0]
class ExternalInterfaceGenerator--><g id="elem_ExternalInterfaceGenerator"><rect codeLine="118" fill="#F1F1F1" height="48" id="ExternalInterfaceGenerator" rx="2.5" ry="2.5" style="stroke:#181818;stroke-width:0.5;" width="203" x="1839.5" y="965.5"/><ellipse cx="1854.5" cy="981.5" fill="#ADD1B2" rx="11" ry="11" style="stroke:#181818;stroke-width:1.0;"/><path d="M1857.2656,977.375 Q1857.4219,977.1563 1857.6094,977.0469 Q1857.7969,976.9375 1858.0156,976.9375 Q1858.3906,976.9375 1858.625,977.1953 Q1858.8594,977.4531 1858.8594,978.0625 L1858.8594,979.5156 Q1858.8594,980.125 1858.625,980.3906 Q1858.3906,980.6563 1858.0156,980.6563 Q1857.6719,980.6563 1857.4688,980.4531 Q1857.2656,980.2656 1857.1563,979.75 Q1857.1094,979.3906 1856.9219,979.2031 Q1856.5938,978.8281 1855.9844,978.6094 Q1855.375,978.3906 1854.75,978.3906 Q1853.9844,978.3906 1853.3516,978.7188 Q1852.7188,979.0469 1852.2266,979.7969 Q1851.7344,980.5469 1851.7344,981.5781 L1851.7344,982.6719 Q1851.7344,983.9063 1852.625,984.7266 Q1853.5156,985.5469 1855.1094,985.5469 Q1856.0469,985.5469 1856.7031,985.2969 Q1857.0938,985.1406 1857.5156,984.7031 Q1857.7813,984.4375 1857.9297,984.3594 Q1858.0781,984.2813 1858.2813,984.2813 Q1858.6094,984.2813 1858.8672,984.5391 Q1859.125,984.7969 1859.125,985.1406 Q1859.125,985.4844 1858.7813,985.8906 Q1858.2813,986.4688 1857.4844,986.7969 Q1856.4063,987.25 1855.1094,987.25 Q1853.5938,987.25 1852.3906,986.625 Q1851.4063,986.125 1850.7188,985.0547 Q1850.0313,983.9844 1850.0313,982.7031 L1850.0313,981.5469 Q1850.0313,980.2188 1850.6484,979.0703 Q1851.2656,977.9219 1852.3594,977.3047 Q1853.4531,976.6875 1854.6875,976.6875 Q1855.4219,976.6875 1856.0703,976.8516 Q1856.7188,977.0156 1857.2656,977.375 Z " fill="#000000"/><text fill="#000000" font-family="sans-serif" font-size="14" lengthAdjust="spacing" textLength="171" x="1868.5" y="987.2285">ExternalInterfaceGenerator</text><line style="stroke:#181818;stroke-width:0.5;" x1="1840.5" x2="2041.5" y1="997.5" y2="997.5"/><line style="stroke:#181818;stroke-width:0.5;" x1="1840.5" x2="2041.5" y1="1005.5" y2="1005.5"/></g><!--MD5=[016affdeaeb7abb222ba3706dfb6bf30]
reverse link Visitor to ModuleVisitor--><g id="link_Visitor_ModuleVisitor"><path codeLine="124" d="M1151.42,365.2 C1152.06,404.66 1152.74,446.37 1153.33,482.74 " fill="none" id="Visitor-backto-ModuleVisitor" style="stroke:#181818;stroke-width:1.0;"/><polygon fill="none" points="1144.42,365.24,1151.09,345.12,1158.42,365.01,1144.42,365.24" style="stroke:#181818;stroke-width:1.0;"/></g><!--MD5=[3b872d67a706b809896426cd51715a9a]
link ModuleVisitor to ModuleInterfaceGenerator--><g id="link_ModuleVisitor_ModuleInterfaceGenerator"><path codeLine="125" d="M1202.55,689.09 C1242.87,775.67 1298.37,894.83 1325.6,953.28 " fill="none" id="ModuleVisitor-to-ModuleInterfaceGenerator" style="stroke:#181818;stroke-width:1.0;"/><polygon fill="none" points="1331.11,965.13,1332.2045,958.0024,1326.0462,954.2508,1324.9517,961.3783,1331.11,965.13" style="stroke:#181818;stroke-width:1.0;"/></g><!--MD5=[071d154818a44fb2eae10666c433d859]
link ModuleVisitor to ModuleSourceGenerator--><g id="link_ModuleVisitor_ModuleSourceGenerator"><path codeLine="126" d="M1144.57,689.09 C1135.79,775.13 1123.72,893.33 1117.71,952.17 " fill="none" id="ModuleVisitor-to-ModuleSourceGenerator" style="stroke:#181818;stroke-width:1.0;"/><polygon fill="none" points="1116.39,965.13,1120.9824,959.5703,1117.6167,953.1929,1113.0243,958.7525,1116.39,965.13" style="stroke:#181818;stroke-width:1.0;"/></g><!--MD5=[c4674dc49209b5f63829d484757ae04f]
reverse link Visitor to ContainerVisitor--><g id="link_Visitor_ContainerVisitor"><path codeLine="127" d="M1337,357.98 C1344.5,364.32 1351.86,370.68 1359,377 C1374.67,390.89 1390.6,405.74 1406.28,420.88 " fill="none" id="Visitor-backto-ContainerVisitor" style="stroke:#181818;stroke-width:1.0;"/><polygon fill="none" points="1332.31,363.19,1321.42,345.01,1341.27,352.43,1332.31,363.19" style="stroke:#181818;stroke-width:1.0;"/></g><!--MD5=[448ae1ee7fdf06e7e10390852ed73387]
reverse link ContainerVisitor to UnitTestContainerMockVisitor--><g id="link_ContainerVisitor_UnitTestContainerMockVisitor"><path codeLine="128" d="M1417.01,763.88 C1398.89,777.83 1379.47,789.99 1359,799 C1322.89,814.9 1041.11,793.61 1004,807 C929.8,833.78 861.25,894.99 818.86,938.93 " fill="none" id="ContainerVisitor-backto-UnitTestContainerMockVisitor" style="stroke:#181818;stroke-width:1.0;"/><polygon fill="none" points="1412.67,758.38,1432.6,751.18,1421.51,769.24,1412.67,758.38" style="stroke:#181818;stroke-width:1.0;"/></g><!--MD5=[83fbbe7f3b9f6814c73d687851c2d07c]
link UnitTestContainerMockVisitor to UnitTestContainerMockGenerator--><g id="link_UnitTestContainerMockVisitor_UnitTestContainerMockGenerator"><path codeLine="129" d="M775,1040.22 C775,1055.53 775,1072.1 775,1086.36 " fill="none" id="UnitTestContainerMockVisitor-to-UnitTestContainerMockGenerator" style="stroke:#181818;stroke-width:1.0;"/><polygon fill="none" points="775,1099.72,779,1093.72,775,1087.72,771,1093.72,775,1099.72" style="stroke:#181818;stroke-width:1.0;"/></g><!--MD5=[6a124676190bffdaf0d5732ca13e1db7]
reverse link ContainerVisitor to CSMContainerMockVisitor--><g id="link_ContainerVisitor_CSMContainerMockVisitor"><path codeLine="130" d="M1766.92,663.96 C1858.93,701.95 1967.2,751.54 2059,807 C2122.83,845.56 2188.86,899.68 2233.52,938.78 " fill="none" id="ContainerVisitor-backto-CSMContainerMockVisitor" style="stroke:#181818;stroke-width:1.0;"/><polygon fill="none" points="1764.01,670.33,1748.15,656.28,1769.31,657.38,1764.01,670.33" style="stroke:#181818;stroke-width:1.0;"/></g><!--MD5=[f606473ce96cdf5711ec4b92afcce71c]
link CSMContainerMockVisitor to ContainerMockGenerator--><g id="link_CSMContainerMockVisitor_ContainerMockGenerator"><path codeLine="131" d="M2288,1040.22 C2288,1055.53 2288,1072.1 2288,1086.36 " fill="none" id="CSMContainerMockVisitor-to-ContainerMockGenerator" style="stroke:#181818;stroke-width:1.0;"/><polygon fill="none" points="2288,1099.72,2292,1093.72,2288,1087.72,2284,1093.72,2288,1099.72" style="stroke:#181818;stroke-width:1.0;"/></g><!--MD5=[9ad5c9afc553e81219b4b78b0a773b67]
link ContainerVisitor to ExternalInterfaceGenerator--><g id="link_ContainerVisitor_ExternalInterfaceGenerator"><path codeLine="132" d="M1716.97,751.17 C1789.05,827.53 1868.02,911.19 1910.26,955.94 " fill="none" id="ContainerVisitor-to-ExternalInterfaceGenerator" style="stroke:#181818;stroke-width:1.0;"/><polygon fill="none" points="1919.2,965.4,1917.9953,958.2902,1910.969,956.6678,1912.1738,963.7776,1919.2,965.4" style="stroke:#181818;stroke-width:1.0;"/></g><!--MD5=[37521e0509a4278887e3acc7912626e8]
link ContainerVisitor to ContainerInterfaceGenerator--><g id="link_ContainerVisitor_ContainerInterfaceGenerator"><path codeLine="133" d="M1579.17,751.17 C1586.94,825.44 1595.44,906.62 1600.2,952.18 " fill="none" id="ContainerVisitor-to-ContainerInterfaceGenerator" style="stroke:#181818;stroke-width:1.0;"/><polygon fill="none" points="1601.58,965.4,1604.9317,959.0152,1600.3272,953.4656,1596.9755,959.8504,1601.58,965.4" style="stroke:#181818;stroke-width:1.0;"/></g><!--MD5=[ba636f811e30e40386997922072144a7]
reverse link Visitor to ModuleTestImplementationVisitor--><g id="link_Visitor_ModuleTestImplementationVisitor"><path codeLine="134" d="M954.9,234.23 C834.29,253.45 681.53,293.51 570,377 C349.86,541.79 227.45,874.96 197.37,965.4 " fill="none" id="Visitor-backto-ModuleTestImplementationVisitor" style="stroke:#181818;stroke-width:1.0;"/><polygon fill="none" points="953.91,227.3,974.73,231.21,956.01,241.14,953.91,227.3" style="stroke:#181818;stroke-width:1.0;"/></g><!--MD5=[254d9f2534e90c310e5b1a1e705d024d]
link ModuleTestImplementationVisitor to UnitTestMainGenerator--><g id="link_ModuleTestImplementationVisitor_UnitTestMainGenerator"><path codeLine="135" d="M212.47,1013.58 C233.15,1034.82 264.05,1066.56 287.25,1090.39 " fill="none" id="ModuleTestImplementationVisitor-to-UnitTestMainGenerator" style="stroke:#181818;stroke-width:1.0;"/><polygon fill="none" points="296.35,1099.74,295.0293,1092.6509,287.9775,1091.1434,289.2982,1098.2325,296.35,1099.74" style="stroke:#181818;stroke-width:1.0;"/></g><!--MD5=[1a414a341ed27a619cd3aa2be6196bd0]
reverse link Visitor to ModuleTestPrototypeVisitor--><g id="link_Visitor_ModuleTestPrototypeVisitor"><path codeLine="136" d="M972.83,358.48 C966.06,364.66 959.43,370.84 953,377 C767.99,554.26 725.79,604.35 569,807 C526.82,861.51 483.46,930.25 461.91,965.44 " fill="none" id="Visitor-backto-ModuleTestPrototypeVisitor" style="stroke:#181818;stroke-width:1.0;"/><polygon fill="none" points="968.28,353.16,987.84,345.01,977.63,363.58,968.28,353.16" style="stroke:#181818;stroke-width:1.0;"/></g><!--MD5=[8072237d2b736a50e06a32a586f78187]
link ModuleTestPrototypeVisitor to UnitTestMainGenerator--><g id="link_ModuleTestPrototypeVisitor_UnitTestMainGenerator"><path codeLine="137" d="M425.53,1013.58 C404.85,1034.82 373.95,1066.56 350.75,1090.39 " fill="none" id="ModuleTestPrototypeVisitor-to-UnitTestMainGenerator" style="stroke:#181818;stroke-width:1.0;"/><polygon fill="none" points="341.65,1099.74,348.7018,1098.2325,350.0225,1091.1434,342.9707,1092.6509,341.65,1099.74" style="stroke:#181818;stroke-width:1.0;"/></g><!--MD5=[851e7227600d0c0f47715e33aecb25d8]
@startuml

skinparam packageStyle folder

package ecoa_toolset {

package models {

class Visitor {
    + visit_data_read(element: DataRead)
    + visit_data_written(element: DataWritten)
    + visit_event_received(element: EventReceived)
    + visit_event_send(element: EventSend)
    + visit_external(element: External)
    + visit_log(element: Log)
    + visit_parameter(element: Parameter)
    + visit_pinfo(element: Pinfo)
    + visit_property(element: Property)
    + visit_request_received(element: RequestReceived)
    + visit_request_send(element: RequestSend)
    + visit_time(element: Time)
}

}

package visitors {

class ContainerVisitor {
    - generator: Generator
    - data_read_generated: List
    - data_written_generated: List
    - event_send_generated: List
    - request_send_generated: List
    - response_send_generated: List
    + visit_data_read(element: DataRead): str
    + visit_data_written(element: DataWritten): str
    + visit_event_send(element: EventSend): str
    + visit_external(element: External): str
    + visit_log(element: Log): str
    + visit_pinfo(element: Pinfo): str
    + visit_property(element: Property): str
    + visit_request_received(element: RequestReceived): str
    + visit_request_send(element: RequestSend): str
    + visit_time(element: Time): str
}

class ModuleVisitor {
    - generator: Generator
    - data_updated_generated: List
    - event_received_generated: List
    - request_received_generated: List
    - response_received_generated: List
    + visit_data_read(element: DataRead): str
    + visit_event_received(element: EventReceived): str
    + visit_request_received(element: RequestReceived): str
    + visit_request_send(element: RequestSend) -> str
}

}

}

package mscigt {

package mscigt.component {

package container {

class ContainerInterfaceGenerator

}

package module {

class ModuleInterfaceGenerator

class ModuleSourceGenerator

}

package unit_test {

class "ContainerMockVisitor" as UnitTestContainerMockVisitor {
    - ecoa_model
    + visit_CMGlobalVariable(element: CMGlobalVariable): str
    + visit_hook(element: PlatformHook): str
}

class UnitTestContainerMockGenerator

class ModuleTestImplementationVisitor

class ModuleTestPrototypeVisitor

class UnitTestMainGenerator

}

}

}

package csmgvt {

package csm {

class "ContainerMockVisitor" as CSMContainerMockVisitor {
    - ecoa_model
    + visit_CMGlobalVariable(element: CMGlobalVariable): str
    + visit_hook(element: PlatformHook): str
}

class ContainerMockGenerator

}

package csmgvt.component {

class ExternalInterfaceGenerator

}

}

Visitor <|- - ModuleVisitor
ModuleVisitor - -o ModuleInterfaceGenerator
ModuleVisitor - -o ModuleSourceGenerator
Visitor <|- - ContainerVisitor
ContainerVisitor <|- - UnitTestContainerMockVisitor
UnitTestContainerMockVisitor - -o UnitTestContainerMockGenerator
ContainerVisitor <|- - CSMContainerMockVisitor
CSMContainerMockVisitor - -o ContainerMockGenerator
ContainerVisitor - -o ExternalInterfaceGenerator
ContainerVisitor - -o ContainerInterfaceGenerator
Visitor <|- - ModuleTestImplementationVisitor
ModuleTestImplementationVisitor - -o UnitTestMainGenerator
Visitor <|- - ModuleTestPrototypeVisitor
ModuleTestPrototypeVisitor - -o UnitTestMainGenerator

@enduml

PlantUML version 1.2022.7(Mon Aug 22 19:01:30 CEST 2022)
(GPL source distribution)
Java Runtime: Java(TM) SE Runtime Environment
JVM: Java HotSpot(TM) 64-Bit Server VM
Default Encoding: Cp1252
Language: fr
Country: FR
--></g></svg>