<?xml version="1.0" encoding="UTF-8" standalone="no"?><svg xmlns="http://www.w3.org/2000/svg" xmlns:xlink="http://www.w3.org/1999/xlink" contentStyleType="text/css" height="1453px" preserveAspectRatio="none" style="width:2444px;height:1453px;background:#FFFFFF;" version="1.1" viewBox="0 0 2444 1453" width="2444px" zoomAndPan="magnify"><defs/><g><!--MD5=[3ca9c090fd856595d3a8325a5b34d72d]
cluster ecoa_toolset.generators.types--><g id="cluster_ecoa_toolset.generators.types"><path d="M974.5,6 L1190.5,6 A3.75,3.75 0 0 1 1193,8.5 L1200,29.6094 L1200.5,29.6094 A2.5,2.5 0 0 1 1203,32.1094 L1203,121.5 A2.5,2.5 0 0 1 1200.5,124 L974.5,124 A2.5,2.5 0 0 1 972,121.5 L972,8.5 A2.5,2.5 0 0 1 974.5,6 " fill="none" style="stroke:#000000;stroke-width:1.5;"/><line style="stroke:#000000;stroke-width:1.5;" x1="972" x2="1200" y1="29.6094" y2="29.6094"/><text fill="#000000" font-family="sans-serif" font-size="14" font-weight="bold" lengthAdjust="spacing" textLength="215" x="976" y="22.5332">ecoa_toolset.generators.types</text></g><!--MD5=[b720284da03aa8275061873849aeac4f]
cluster ecoa_toolset.generators.module--><g id="cluster_ecoa_toolset.generators.module"><path d="M1996.5,1346 L2226.5,1346 A3.75,3.75 0 0 1 2229,1348.5 L2236,1369.6094 L2236.5,1369.6094 A2.5,2.5 0 0 1 2239,1372.1094 L2239,1443.5 A2.5,2.5 0 0 1 2236.5,1446 L1996.5,1446 A2.5,2.5 0 0 1 1994,1443.5 L1994,1348.5 A2.5,2.5 0 0 1 1996.5,1346 " fill="none" style="stroke:#000000;stroke-width:1.5;"/><line style="stroke:#000000;stroke-width:1.5;" x1="1994" x2="2236" y1="1369.6094" y2="1369.6094"/><text fill="#000000" font-family="sans-serif" font-size="14" font-weight="bold" lengthAdjust="spacing" textLength="229" x="1998" y="1362.5332">ecoa_toolset.generators.module</text></g><!--MD5=[5f20ba64f3226f923e645367e5e41a49]
cluster ecoa_toolset.generators.container--><g id="cluster_ecoa_toolset.generators.container"><path d="M1228.5,1346 L1473.5,1346 A3.75,3.75 0 0 1 1476,1348.5 L1483,1369.6094 L1483.5,1369.6094 A2.5,2.5 0 0 1 1486,1372.1094 L1486,1443.5 A2.5,2.5 0 0 1 1483.5,1446 L1228.5,1446 A2.5,2.5 0 0 1 1226,1443.5 L1226,1348.5 A2.5,2.5 0 0 1 1228.5,1346 " fill="none" style="stroke:#000000;stroke-width:1.5;"/><line style="stroke:#000000;stroke-width:1.5;" x1="1226" x2="1483" y1="1369.6094" y2="1369.6094"/><text fill="#000000" font-family="sans-serif" font-size="14" font-weight="bold" lengthAdjust="spacing" textLength="244" x="1230" y="1362.5332">ecoa_toolset.generators.container</text></g><!--MD5=[e9ac297bb5f480ca9b99d8eec45c8c86]
cluster ecoa_toolset.models--><g id="cluster_ecoa_toolset.models"><path d="M1229.5,6 L1376.5,6 A3.75,3.75 0 0 1 1379,8.5 L1386,29.6094 L1386.5,29.6094 A2.5,2.5 0 0 1 1389,32.1094 L1389,121.5 A2.5,2.5 0 0 1 1386.5,124 L1229.5,124 A2.5,2.5 0 0 1 1227,121.5 L1227,8.5 A2.5,2.5 0 0 1 1229.5,6 " fill="none" style="stroke:#000000;stroke-width:1.5;"/><line style="stroke:#000000;stroke-width:1.5;" x1="1227" x2="1386" y1="29.6094" y2="29.6094"/><text fill="#000000" font-family="sans-serif" font-size="14" font-weight="bold" lengthAdjust="spacing" textLength="146" x="1231" y="22.5332">ecoa_toolset.models</text></g><!--MD5=[3642e9ce6d177c1b53aa6e59b80320a6]
cluster ecoa_toolset.visitors--><g id="cluster_ecoa_toolset.visitors"><path d="M1654.5,1346 L1803.5,1346 A3.75,3.75 0 0 1 1806,1348.5 L1813,1369.6094 L1967.5,1369.6094 A2.5,2.5 0 0 1 1970,1372.1094 L1970,1443.5 A2.5,2.5 0 0 1 1967.5,1446 L1654.5,1446 A2.5,2.5 0 0 1 1652,1443.5 L1652,1348.5 A2.5,2.5 0 0 1 1654.5,1346 " fill="none" style="stroke:#000000;stroke-width:1.5;"/><line style="stroke:#000000;stroke-width:1.5;" x1="1652" x2="1813" y1="1369.6094" y2="1369.6094"/><text fill="#000000" font-family="sans-serif" font-size="14" font-weight="bold" lengthAdjust="spacing" textLength="148" x="1656" y="1362.5332">ecoa_toolset.visitors</text></g><!--MD5=[32bb0698b47dd59be4a07d5d1873b794]
cluster mscigt--><g id="cluster_mscigt"><path d="M8.5,174 L55.5,174 A3.75,3.75 0 0 1 58,176.5 L65,197.6094 L2434.5,197.6094 A2.5,2.5 0 0 1 2437,200.1094 L2437,1310.5 A2.5,2.5 0 0 1 2434.5,1313 L8.5,1313 A2.5,2.5 0 0 1 6,1310.5 L6,176.5 A2.5,2.5 0 0 1 8.5,174 " fill="none" style="stroke:#000000;stroke-width:1.5;"/><line style="stroke:#000000;stroke-width:1.5;" x1="6" x2="65" y1="197.6094" y2="197.6094"/><text fill="#000000" font-family="sans-serif" font-size="14" font-weight="bold" lengthAdjust="spacing" textLength="46" x="10" y="190.5332">mscigt</text></g><!--MD5=[ff658e621e4d039d232dc2816b4a8497]
cluster component--><g id="cluster_component"><path d="M32.5,695 L112.5,695 A3.75,3.75 0 0 1 115,697.5 L122,718.6094 L2410.5,718.6094 A2.5,2.5 0 0 1 2413,721.1094 L2413,1286.5 A2.5,2.5 0 0 1 2410.5,1289 L32.5,1289 A2.5,2.5 0 0 1 30,1286.5 L30,697.5 A2.5,2.5 0 0 1 32.5,695 " fill="none" style="stroke:#000000;stroke-width:1.5;"/><line style="stroke:#000000;stroke-width:1.5;" x1="30" x2="122" y1="718.6094" y2="718.6094"/><text fill="#000000" font-family="sans-serif" font-size="14" font-weight="bold" lengthAdjust="spacing" textLength="79" x="34" y="711.5332">component</text></g><!--MD5=[ce5ccd5b359d4259c2ab78015c688698]
cluster container--><g id="cluster_container"><path d="M56.5,809.5 L124.5,809.5 A3.75,3.75 0 0 1 127,812 L134,833.1094 L688.5,833.1094 A2.5,2.5 0 0 1 691,835.6094 L691,1048 A2.5,2.5 0 0 1 688.5,1050.5 L56.5,1050.5 A2.5,2.5 0 0 1 54,1048 L54,812 A2.5,2.5 0 0 1 56.5,809.5 " fill="none" style="stroke:#000000;stroke-width:1.5;"/><line style="stroke:#000000;stroke-width:1.5;" x1="54" x2="134" y1="833.1094" y2="833.1094"/><text fill="#000000" font-family="sans-serif" font-size="14" font-weight="bold" lengthAdjust="spacing" textLength="67" x="58" y="826.0332">container</text></g><!--MD5=[0e004d10fa3aa19825bb85d3d0c3cd6e]
cluster module--><g id="cluster_module"><path d="M1723.5,818.5 L1776.5,818.5 A3.75,3.75 0 0 1 1779,821 L1786,842.1094 L2386.5,842.1094 A2.5,2.5 0 0 1 2389,844.6094 L2389,1039 A2.5,2.5 0 0 1 2386.5,1041.5 L1723.5,1041.5 A2.5,2.5 0 0 1 1721,1039 L1721,821 A2.5,2.5 0 0 1 1723.5,818.5 " fill="none" style="stroke:#000000;stroke-width:1.5;"/><line style="stroke:#000000;stroke-width:1.5;" x1="1721" x2="1786" y1="842.1094" y2="842.1094"/><text fill="#000000" font-family="sans-serif" font-size="14" font-weight="bold" lengthAdjust="spacing" textLength="52" x="1725" y="835.0332">module</text></g><!--MD5=[dbda7fa30050486b74b2dae4c69efe7f]
cluster unit_test--><g id="cluster_unit_test"><path d="M717.5,739 L780.5,739 A3.75,3.75 0 0 1 783,741.5 L790,762.6094 L1694.5,762.6094 A2.5,2.5 0 0 1 1697,765.1094 L1697,1262.5 A2.5,2.5 0 0 1 1694.5,1265 L717.5,1265 A2.5,2.5 0 0 1 715,1262.5 L715,741.5 A2.5,2.5 0 0 1 717.5,739 " fill="none" style="stroke:#000000;stroke-width:1.5;"/><line style="stroke:#000000;stroke-width:1.5;" x1="715" x2="790" y1="762.6094" y2="762.6094"/><text fill="#000000" font-family="sans-serif" font-size="14" font-weight="bold" lengthAdjust="spacing" textLength="62" x="719" y="755.5332">unit_test</text></g><!--MD5=[6ecc7c908d372109e374adc9f71535e5]
class TypesGenerator--><g id="elem_TypesGenerator"><rect codeLine="6" fill="#F1F1F1" height="65.6094" id="TypesGenerator" rx="2.5" ry="2.5" style="stroke:#181818;stroke-width:0.5;" width="136" x="1051" y="42"/><ellipse cx="1066" cy="58" fill="#ADD1B2" rx="11" ry="11" style="stroke:#181818;stroke-width:1.0;"/><path d="M1068.7656,53.875 Q1068.9219,53.6563 1069.1094,53.5469 Q1069.2969,53.4375 1069.5156,53.4375 Q1069.8906,53.4375 1070.125,53.6953 Q1070.3594,53.9531 1070.3594,54.5625 L1070.3594,56.0156 Q1070.3594,56.625 1070.125,56.8906 Q1069.8906,57.1563 1069.5156,57.1563 Q1069.1719,57.1563 1068.9688,56.9531 Q1068.7656,56.7656 1068.6563,56.25 Q1068.6094,55.8906 1068.4219,55.7031 Q1068.0938,55.3281 1067.4844,55.1094 Q1066.875,54.8906 1066.25,54.8906 Q1065.4844,54.8906 1064.8516,55.2188 Q1064.2188,55.5469 1063.7266,56.2969 Q1063.2344,57.0469 1063.2344,58.0781 L1063.2344,59.1719 Q1063.2344,60.4063 1064.125,61.2266 Q1065.0156,62.0469 1066.6094,62.0469 Q1067.5469,62.0469 1068.2031,61.7969 Q1068.5938,61.6406 1069.0156,61.2031 Q1069.2813,60.9375 1069.4297,60.8594 Q1069.5781,60.7813 1069.7813,60.7813 Q1070.1094,60.7813 1070.3672,61.0391 Q1070.625,61.2969 1070.625,61.6406 Q1070.625,61.9844 1070.2813,62.3906 Q1069.7813,62.9688 1068.9844,63.2969 Q1067.9063,63.75 1066.6094,63.75 Q1065.0938,63.75 1063.8906,63.125 Q1062.9063,62.625 1062.2188,61.5547 Q1061.5313,60.4844 1061.5313,59.2031 L1061.5313,58.0469 Q1061.5313,56.7188 1062.1484,55.5703 Q1062.7656,54.4219 1063.8594,53.8047 Q1064.9531,53.1875 1066.1875,53.1875 Q1066.9219,53.1875 1067.5703,53.3516 Q1068.2188,53.5156 1068.7656,53.875 Z " fill="#000000"/><text fill="#000000" font-family="sans-serif" font-size="14" lengthAdjust="spacing" textLength="104" x="1080" y="63.7285">TypesGenerator</text><line style="stroke:#181818;stroke-width:0.5;" x1="1052" x2="1186" y1="74" y2="74"/><line style="stroke:#181818;stroke-width:0.5;" x1="1052" x2="1186" y1="82" y2="82"/><ellipse cx="1062" cy="96.3047" fill="#84BE84" rx="3" ry="3" style="stroke:#038048;stroke-width:1.0;"/><text fill="#000000" font-family="sans-serif" font-size="14" lengthAdjust="spacing" textLength="67" x="1071" y="100.5332">generate()</text></g><!--MD5=[6a52e07f6472e0f25af32ee204d3143b]
class ModuleGenerator--><g id="elem_ModuleGenerator"><rect codeLine="14" fill="#F1F1F1" height="48" id="ModuleGenerator" rx="2.5" ry="2.5" style="stroke:#181818;stroke-width:0.5;" width="143" x="2010.5" y="1382"/><ellipse cx="2025.5" cy="1398" fill="#ADD1B2" rx="11" ry="11" style="stroke:#181818;stroke-width:1.0;"/><path d="M2028.2656,1393.875 Q2028.4219,1393.6563 2028.6094,1393.5469 Q2028.7969,1393.4375 2029.0156,1393.4375 Q2029.3906,1393.4375 2029.625,1393.6953 Q2029.8594,1393.9531 2029.8594,1394.5625 L2029.8594,1396.0156 Q2029.8594,1396.625 2029.625,1396.8906 Q2029.3906,1397.1563 2029.0156,1397.1563 Q2028.6719,1397.1563 2028.4688,1396.9531 Q2028.2656,1396.7656 2028.1563,1396.25 Q2028.1094,1395.8906 2027.9219,1395.7031 Q2027.5938,1395.3281 2026.9844,1395.1094 Q2026.375,1394.8906 2025.75,1394.8906 Q2024.9844,1394.8906 2024.3516,1395.2188 Q2023.7188,1395.5469 2023.2266,1396.2969 Q2022.7344,1397.0469 2022.7344,1398.0781 L2022.7344,1399.1719 Q2022.7344,1400.4063 2023.625,1401.2266 Q2024.5156,1402.0469 2026.1094,1402.0469 Q2027.0469,1402.0469 2027.7031,1401.7969 Q2028.0938,1401.6406 2028.5156,1401.2031 Q2028.7813,1400.9375 2028.9297,1400.8594 Q2029.0781,1400.7813 2029.2813,1400.7813 Q2029.6094,1400.7813 2029.8672,1401.0391 Q2030.125,1401.2969 2030.125,1401.6406 Q2030.125,1401.9844 2029.7813,1402.3906 Q2029.2813,1402.9688 2028.4844,1403.2969 Q2027.4063,1403.75 2026.1094,1403.75 Q2024.5938,1403.75 2023.3906,1403.125 Q2022.4063,1402.625 2021.7188,1401.5547 Q2021.0313,1400.4844 2021.0313,1399.2031 L2021.0313,1398.0469 Q2021.0313,1396.7188 2021.6484,1395.5703 Q2022.2656,1394.4219 2023.3594,1393.8047 Q2024.4531,1393.1875 2025.6875,1393.1875 Q2026.4219,1393.1875 2027.0703,1393.3516 Q2027.7188,1393.5156 2028.2656,1393.875 Z " fill="#000000"/><text fill="#000000" font-family="sans-serif" font-size="14" lengthAdjust="spacing" textLength="111" x="2039.5" y="1403.7285">ModuleGenerator</text><line style="stroke:#181818;stroke-width:0.5;" x1="2011.5" x2="2152.5" y1="1414" y2="1414"/><line style="stroke:#181818;stroke-width:0.5;" x1="2011.5" x2="2152.5" y1="1422" y2="1422"/></g><!--MD5=[2f68b7eda24590530a4cc5ecaaf63c8d]
class ContainerGenerator--><g id="elem_ContainerGenerator"><rect codeLine="20" fill="#F1F1F1" height="48" id="ContainerGenerator" rx="2.5" ry="2.5" style="stroke:#181818;stroke-width:0.5;" width="159" x="1276.5" y="1382"/><ellipse cx="1291.5" cy="1398" fill="#ADD1B2" rx="11" ry="11" style="stroke:#181818;stroke-width:1.0;"/><path d="M1294.2656,1393.875 Q1294.4219,1393.6563 1294.6094,1393.5469 Q1294.7969,1393.4375 1295.0156,1393.4375 Q1295.3906,1393.4375 1295.625,1393.6953 Q1295.8594,1393.9531 1295.8594,1394.5625 L1295.8594,1396.0156 Q1295.8594,1396.625 1295.625,1396.8906 Q1295.3906,1397.1563 1295.0156,1397.1563 Q1294.6719,1397.1563 1294.4688,1396.9531 Q1294.2656,1396.7656 1294.1563,1396.25 Q1294.1094,1395.8906 1293.9219,1395.7031 Q1293.5938,1395.3281 1292.9844,1395.1094 Q1292.375,1394.8906 1291.75,1394.8906 Q1290.9844,1394.8906 1290.3516,1395.2188 Q1289.7188,1395.5469 1289.2266,1396.2969 Q1288.7344,1397.0469 1288.7344,1398.0781 L1288.7344,1399.1719 Q1288.7344,1400.4063 1289.625,1401.2266 Q1290.5156,1402.0469 1292.1094,1402.0469 Q1293.0469,1402.0469 1293.7031,1401.7969 Q1294.0938,1401.6406 1294.5156,1401.2031 Q1294.7813,1400.9375 1294.9297,1400.8594 Q1295.0781,1400.7813 1295.2813,1400.7813 Q1295.6094,1400.7813 1295.8672,1401.0391 Q1296.125,1401.2969 1296.125,1401.6406 Q1296.125,1401.9844 1295.7813,1402.3906 Q1295.2813,1402.9688 1294.4844,1403.2969 Q1293.4063,1403.75 1292.1094,1403.75 Q1290.5938,1403.75 1289.3906,1403.125 Q1288.4063,1402.625 1287.7188,1401.5547 Q1287.0313,1400.4844 1287.0313,1399.2031 L1287.0313,1398.0469 Q1287.0313,1396.7188 1287.6484,1395.5703 Q1288.2656,1394.4219 1289.3594,1393.8047 Q1290.4531,1393.1875 1291.6875,1393.1875 Q1292.4219,1393.1875 1293.0703,1393.3516 Q1293.7188,1393.5156 1294.2656,1393.875 Z " fill="#000000"/><text fill="#000000" font-family="sans-serif" font-size="14" lengthAdjust="spacing" textLength="127" x="1305.5" y="1403.7285">ContainerGenerator</text><line style="stroke:#181818;stroke-width:0.5;" x1="1277.5" x2="1434.5" y1="1414" y2="1414"/><line style="stroke:#181818;stroke-width:0.5;" x1="1277.5" x2="1434.5" y1="1422" y2="1422"/></g><!--MD5=[6384b3f2ecd54c0fa8a1c24e6c6b15b5]
class ECOAModel--><g id="elem_ECOAModel"><rect codeLine="26" fill="#F1F1F1" height="65.6094" id="ECOAModel" rx="2.5" ry="2.5" style="stroke:#181818;stroke-width:0.5;" width="109" x="1243.5" y="42"/><ellipse cx="1258.5" cy="58" fill="#ADD1B2" rx="11" ry="11" style="stroke:#181818;stroke-width:1.0;"/><path d="M1261.2656,53.875 Q1261.4219,53.6563 1261.6094,53.5469 Q1261.7969,53.4375 1262.0156,53.4375 Q1262.3906,53.4375 1262.625,53.6953 Q1262.8594,53.9531 1262.8594,54.5625 L1262.8594,56.0156 Q1262.8594,56.625 1262.625,56.8906 Q1262.3906,57.1563 1262.0156,57.1563 Q1261.6719,57.1563 1261.4688,56.9531 Q1261.2656,56.7656 1261.1563,56.25 Q1261.1094,55.8906 1260.9219,55.7031 Q1260.5938,55.3281 1259.9844,55.1094 Q1259.375,54.8906 1258.75,54.8906 Q1257.9844,54.8906 1257.3516,55.2188 Q1256.7188,55.5469 1256.2266,56.2969 Q1255.7344,57.0469 1255.7344,58.0781 L1255.7344,59.1719 Q1255.7344,60.4063 1256.625,61.2266 Q1257.5156,62.0469 1259.1094,62.0469 Q1260.0469,62.0469 1260.7031,61.7969 Q1261.0938,61.6406 1261.5156,61.2031 Q1261.7813,60.9375 1261.9297,60.8594 Q1262.0781,60.7813 1262.2813,60.7813 Q1262.6094,60.7813 1262.8672,61.0391 Q1263.125,61.2969 1263.125,61.6406 Q1263.125,61.9844 1262.7813,62.3906 Q1262.2813,62.9688 1261.4844,63.2969 Q1260.4063,63.75 1259.1094,63.75 Q1257.5938,63.75 1256.3906,63.125 Q1255.4063,62.625 1254.7188,61.5547 Q1254.0313,60.4844 1254.0313,59.2031 L1254.0313,58.0469 Q1254.0313,56.7188 1254.6484,55.5703 Q1255.2656,54.4219 1256.3594,53.8047 Q1257.4531,53.1875 1258.6875,53.1875 Q1259.4219,53.1875 1260.0703,53.3516 Q1260.7188,53.5156 1261.2656,53.875 Z " fill="#000000"/><text fill="#000000" font-family="sans-serif" font-size="14" lengthAdjust="spacing" textLength="77" x="1272.5" y="63.7285">ECOAModel</text><line style="stroke:#181818;stroke-width:0.5;" x1="1244.5" x2="1351.5" y1="74" y2="74"/><line style="stroke:#181818;stroke-width:0.5;" x1="1244.5" x2="1351.5" y1="82" y2="82"/><ellipse cx="1254.5" cy="96.3047" fill="#84BE84" rx="3" ry="3" style="stroke:#038048;stroke-width:1.0;"/><text fill="#000000" font-family="sans-serif" font-size="14" lengthAdjust="spacing" textLength="46" x="1263.5" y="100.5332">parse()</text></g><!--MD5=[df4b7e6509ada7268780aedd161eb998]
class ContainerVisitor--><g id="elem_ContainerVisitor"><rect codeLine="34" fill="#F1F1F1" height="48" id="ContainerVisitor" rx="2.5" ry="2.5" style="stroke:#181818;stroke-width:0.5;" width="133" x="1668.5" y="1382"/><ellipse cx="1683.5" cy="1398" fill="#ADD1B2" rx="11" ry="11" style="stroke:#181818;stroke-width:1.0;"/><path d="M1686.2656,1393.875 Q1686.4219,1393.6563 1686.6094,1393.5469 Q1686.7969,1393.4375 1687.0156,1393.4375 Q1687.3906,1393.4375 1687.625,1393.6953 Q1687.8594,1393.9531 1687.8594,1394.5625 L1687.8594,1396.0156 Q1687.8594,1396.625 1687.625,1396.8906 Q1687.3906,1397.1563 1687.0156,1397.1563 Q1686.6719,1397.1563 1686.4688,1396.9531 Q1686.2656,1396.7656 1686.1563,1396.25 Q1686.1094,1395.8906 1685.9219,1395.7031 Q1685.5938,1395.3281 1684.9844,1395.1094 Q1684.375,1394.8906 1683.75,1394.8906 Q1682.9844,1394.8906 1682.3516,1395.2188 Q1681.7188,1395.5469 1681.2266,1396.2969 Q1680.7344,1397.0469 1680.7344,1398.0781 L1680.7344,1399.1719 Q1680.7344,1400.4063 1681.625,1401.2266 Q1682.5156,1402.0469 1684.1094,1402.0469 Q1685.0469,1402.0469 1685.7031,1401.7969 Q1686.0938,1401.6406 1686.5156,1401.2031 Q1686.7813,1400.9375 1686.9297,1400.8594 Q1687.0781,1400.7813 1687.2813,1400.7813 Q1687.6094,1400.7813 1687.8672,1401.0391 Q1688.125,1401.2969 1688.125,1401.6406 Q1688.125,1401.9844 1687.7813,1402.3906 Q1687.2813,1402.9688 1686.4844,1403.2969 Q1685.4063,1403.75 1684.1094,1403.75 Q1682.5938,1403.75 1681.3906,1403.125 Q1680.4063,1402.625 1679.7188,1401.5547 Q1679.0313,1400.4844 1679.0313,1399.2031 L1679.0313,1398.0469 Q1679.0313,1396.7188 1679.6484,1395.5703 Q1680.2656,1394.4219 1681.3594,1393.8047 Q1682.4531,1393.1875 1683.6875,1393.1875 Q1684.4219,1393.1875 1685.0703,1393.3516 Q1685.7188,1393.5156 1686.2656,1393.875 Z " fill="#000000"/><text fill="#000000" font-family="sans-serif" font-size="14" lengthAdjust="spacing" textLength="101" x="1697.5" y="1403.7285">ContainerVisitor</text><line style="stroke:#181818;stroke-width:0.5;" x1="1669.5" x2="1800.5" y1="1414" y2="1414"/><line style="stroke:#181818;stroke-width:0.5;" x1="1669.5" x2="1800.5" y1="1422" y2="1422"/></g><!--MD5=[927815ce20cf11b522aa28b9d764b71e]
class ModuleVisitor--><g id="elem_ModuleVisitor"><rect codeLine="36" fill="#F1F1F1" height="48" id="ModuleVisitor" rx="2.5" ry="2.5" style="stroke:#181818;stroke-width:0.5;" width="117" x="1836.5" y="1382"/><ellipse cx="1851.5" cy="1398" fill="#ADD1B2" rx="11" ry="11" style="stroke:#181818;stroke-width:1.0;"/><path d="M1854.2656,1393.875 Q1854.4219,1393.6563 1854.6094,1393.5469 Q1854.7969,1393.4375 1855.0156,1393.4375 Q1855.3906,1393.4375 1855.625,1393.6953 Q1855.8594,1393.9531 1855.8594,1394.5625 L1855.8594,1396.0156 Q1855.8594,1396.625 1855.625,1396.8906 Q1855.3906,1397.1563 1855.0156,1397.1563 Q1854.6719,1397.1563 1854.4688,1396.9531 Q1854.2656,1396.7656 1854.1563,1396.25 Q1854.1094,1395.8906 1853.9219,1395.7031 Q1853.5938,1395.3281 1852.9844,1395.1094 Q1852.375,1394.8906 1851.75,1394.8906 Q1850.9844,1394.8906 1850.3516,1395.2188 Q1849.7188,1395.5469 1849.2266,1396.2969 Q1848.7344,1397.0469 1848.7344,1398.0781 L1848.7344,1399.1719 Q1848.7344,1400.4063 1849.625,1401.2266 Q1850.5156,1402.0469 1852.1094,1402.0469 Q1853.0469,1402.0469 1853.7031,1401.7969 Q1854.0938,1401.6406 1854.5156,1401.2031 Q1854.7813,1400.9375 1854.9297,1400.8594 Q1855.0781,1400.7813 1855.2813,1400.7813 Q1855.6094,1400.7813 1855.8672,1401.0391 Q1856.125,1401.2969 1856.125,1401.6406 Q1856.125,1401.9844 1855.7813,1402.3906 Q1855.2813,1402.9688 1854.4844,1403.2969 Q1853.4063,1403.75 1852.1094,1403.75 Q1850.5938,1403.75 1849.3906,1403.125 Q1848.4063,1402.625 1847.7188,1401.5547 Q1847.0313,1400.4844 1847.0313,1399.2031 L1847.0313,1398.0469 Q1847.0313,1396.7188 1847.6484,1395.5703 Q1848.2656,1394.4219 1849.3594,1393.8047 Q1850.4531,1393.1875 1851.6875,1393.1875 Q1852.4219,1393.1875 1853.0703,1393.3516 Q1853.7188,1393.5156 1854.2656,1393.875 Z " fill="#000000"/><text fill="#000000" font-family="sans-serif" font-size="14" lengthAdjust="spacing" textLength="85" x="1865.5" y="1403.7285">ModuleVisitor</text><line style="stroke:#181818;stroke-width:0.5;" x1="1837.5" x2="1952.5" y1="1414" y2="1414"/><line style="stroke:#181818;stroke-width:0.5;" x1="1837.5" x2="1952.5" y1="1422" y2="1422"/></g><!--MD5=[84718776d214be480e4c259efcb737fc]
class Main--><g id="elem_Main"><rect codeLine="42" fill="#F1F1F1" height="100.8281" id="Main" rx="2.5" ry="2.5" style="stroke:#181818;stroke-width:0.5;" width="257" x="1099.5" y="254"/><ellipse cx="1208.75" cy="270" fill="#FF7700" rx="11" ry="11" style="stroke:#181818;stroke-width:1.0;"/><path d="M1206.6875,268.2188 L1206.6875,273.2969 L1207.3125,273.2969 Q1207.9219,273.2969 1208.1797,273.5313 Q1208.4375,273.7656 1208.4375,274.1563 Q1208.4375,274.5313 1208.1797,274.7656 Q1207.9219,275 1207.3125,275 L1205.0781,275 Q1204.4531,275 1204.1953,274.7656 Q1203.9375,274.5313 1203.9375,274.1406 Q1203.9375,273.7656 1204.1953,273.5313 Q1204.4531,273.2969 1204.9844,273.2969 L1204.9844,266.6406 Q1204.5469,266.5938 1204.3125,266.3672 Q1204.0781,266.1406 1204.0781,265.7813 Q1204.0781,265.4063 1204.3438,265.1719 Q1204.6094,264.9375 1205.2188,264.9375 L1207.0938,264.9375 L1209.4063,270.0625 L1211.6719,264.9375 L1213.5625,264.9375 Q1214.1719,264.9375 1214.4375,265.1719 Q1214.7031,265.4063 1214.7031,265.7813 Q1214.7031,266.1406 1214.4688,266.3672 Q1214.2344,266.5938 1213.7969,266.6406 L1213.7969,273.2969 Q1214.3281,273.2969 1214.5859,273.5391 Q1214.8438,273.7813 1214.8438,274.1563 Q1214.8438,274.5313 1214.5859,274.7656 Q1214.3281,275 1213.7188,275 L1211.4688,275 Q1210.8594,275 1210.6016,274.7656 Q1210.3438,274.5313 1210.3438,274.1406 Q1210.3438,273.7656 1210.6016,273.5313 Q1210.8594,273.2969 1211.4688,273.2969 L1212.0938,273.2969 L1212.0938,268.2188 L1210.1406,272.6094 L1208.6719,272.6094 L1206.6875,268.2188 Z " fill="#000000"/><text fill="#000000" font-family="sans-serif" font-size="14" lengthAdjust="spacing" textLength="30" x="1229.25" y="275.7285">Main</text><line style="stroke:#181818;stroke-width:0.5;" x1="1100.5" x2="1355.5" y1="286" y2="286"/><line style="stroke:#181818;stroke-width:0.5;" x1="1100.5" x2="1355.5" y1="294" y2="294"/><rect fill="#F24D5C" height="6" style="stroke:#C82930;stroke-width:1.0;" width="6" x="1107.5" y="305.3047"/><text fill="#000000" font-family="sans-serif" font-size="14" lengthAdjust="spacing" textLength="231" x="1119.5" y="312.5332">generate_module_implementations()</text><rect fill="#F24D5C" height="6" style="stroke:#C82930;stroke-width:1.0;" width="6" x="1107.5" y="322.9141"/><text fill="#000000" font-family="sans-serif" font-size="14" lengthAdjust="spacing" textLength="167" x="1119.5" y="330.1426">create_argument_parser()</text><ellipse cx="1110.5" cy="343.5234" fill="#84BE84" rx="3" ry="3" style="stroke:#038048;stroke-width:1.0;"/><text fill="#000000" font-family="sans-serif" font-size="14" lengthAdjust="spacing" textLength="40" x="1119.5" y="347.752">main()</text></g><!--MD5=[790dece93e71e6af36f8d44714d401df]
class Templates--><g id="elem_Templates"><rect codeLine="48" fill="#F1F1F1" height="188.875" id="Templates" rx="2.5" ry="2.5" style="stroke:#181818;stroke-width:0.5;" width="189" x="1391.5" y="210"/><ellipse cx="1448.75" cy="226" fill="#ADD1B2" rx="11" ry="11" style="stroke:#181818;stroke-width:1.0;"/><path d="M1451.5156,221.875 Q1451.6719,221.6563 1451.8594,221.5469 Q1452.0469,221.4375 1452.2656,221.4375 Q1452.6406,221.4375 1452.875,221.6953 Q1453.1094,221.9531 1453.1094,222.5625 L1453.1094,224.0156 Q1453.1094,224.625 1452.875,224.8906 Q1452.6406,225.1563 1452.2656,225.1563 Q1451.9219,225.1563 1451.7188,224.9531 Q1451.5156,224.7656 1451.4063,224.25 Q1451.3594,223.8906 1451.1719,223.7031 Q1450.8438,223.3281 1450.2344,223.1094 Q1449.625,222.8906 1449,222.8906 Q1448.2344,222.8906 1447.6016,223.2188 Q1446.9688,223.5469 1446.4766,224.2969 Q1445.9844,225.0469 1445.9844,226.0781 L1445.9844,227.1719 Q1445.9844,228.4063 1446.875,229.2266 Q1447.7656,230.0469 1449.3594,230.0469 Q1450.2969,230.0469 1450.9531,229.7969 Q1451.3438,229.6406 1451.7656,229.2031 Q1452.0313,228.9375 1452.1797,228.8594 Q1452.3281,228.7813 1452.5313,228.7813 Q1452.8594,228.7813 1453.1172,229.0391 Q1453.375,229.2969 1453.375,229.6406 Q1453.375,229.9844 1453.0313,230.3906 Q1452.5313,230.9688 1451.7344,231.2969 Q1450.6563,231.75 1449.3594,231.75 Q1447.8438,231.75 1446.6406,231.125 Q1445.6563,230.625 1444.9688,229.5547 Q1444.2813,228.4844 1444.2813,227.2031 L1444.2813,226.0469 Q1444.2813,224.7188 1444.8984,223.5703 Q1445.5156,222.4219 1446.6094,221.8047 Q1447.7031,221.1875 1448.9375,221.1875 Q1449.6719,221.1875 1450.3203,221.3516 Q1450.9688,221.5156 1451.5156,221.875 Z " fill="#000000"/><text fill="#000000" font-family="sans-serif" font-size="14" lengthAdjust="spacing" textLength="66" x="1469.25" y="231.7285">Templates</text><line style="stroke:#181818;stroke-width:0.5;" x1="1392.5" x2="1579.5" y1="242" y2="242"/><rect fill="none" height="6" style="stroke:#C82930;stroke-width:1.0;" width="6" x="1399.5" y="253.3047"/><text fill="#000000" font-family="sans-serif" font-size="14" lengthAdjust="spacing" textLength="52" x="1411.5" y="260.5332">path: str</text><rect fill="none" height="6" style="stroke:#C82930;stroke-width:1.0;" width="6" x="1399.5" y="270.9141"/><text fill="#000000" font-family="sans-serif" font-size="14" lengthAdjust="spacing" textLength="114" x="1411.5" y="278.1426">user: Dict[str, List]</text><rect fill="none" height="6" style="stroke:#C82930;stroke-width:1.0;" width="6" x="1399.5" y="288.5234"/><text fill="#000000" font-family="sans-serif" font-size="14" lengthAdjust="spacing" textLength="73" x="1411.5" y="295.752">default: List</text><line style="stroke:#181818;stroke-width:0.5;" x1="1392.5" x2="1579.5" y1="302.8281" y2="302.8281"/><rect fill="#F24D5C" height="6" style="stroke:#C82930;stroke-width:1.0;" width="6" x="1399.5" y="314.1328"/><text fill="#000000" font-family="sans-serif" font-size="14" lengthAdjust="spacing" textLength="140" x="1411.5" y="321.3613">open_user_template()</text><rect fill="#F24D5C" height="6" style="stroke:#C82930;stroke-width:1.0;" width="6" x="1399.5" y="331.7422"/><text fill="#000000" font-family="sans-serif" font-size="14" lengthAdjust="spacing" textLength="147" x="1411.5" y="338.9707">open_user_templates()</text><rect fill="#F24D5C" height="6" style="stroke:#C82930;stroke-width:1.0;" width="6" x="1399.5" y="349.3516"/><text fill="#000000" font-family="sans-serif" font-size="14" lengthAdjust="spacing" textLength="163" x="1411.5" y="356.5801">create_default_template()</text><rect fill="#F24D5C" height="6" style="stroke:#C82930;stroke-width:1.0;" width="6" x="1399.5" y="366.9609"/><text fill="#000000" font-family="sans-serif" font-size="14" lengthAdjust="spacing" textLength="92" x="1411.5" y="374.1895">replace_tags()</text><ellipse cx="1402.5" cy="387.5703" fill="#84BE84" rx="3" ry="3" style="stroke:#038048;stroke-width:1.0;"/><text fill="#000000" font-family="sans-serif" font-size="14" lengthAdjust="spacing" textLength="67" x="1411.5" y="391.7988">generate()</text></g><!--MD5=[67547afdbc27c87e23242edff6eb5816]
class ComponentGenerator--><g id="elem_ComponentGenerator"><rect codeLine="178" fill="#F1F1F1" height="153.6563" id="ComponentGenerator" rx="2.5" ry="2.5" style="stroke:#181818;stroke-width:0.5;" width="196" x="1259" y="477"/><ellipse cx="1285.7" cy="493" fill="#ADD1B2" rx="11" ry="11" style="stroke:#181818;stroke-width:1.0;"/><path d="M1288.4656,488.875 Q1288.6219,488.6563 1288.8094,488.5469 Q1288.9969,488.4375 1289.2156,488.4375 Q1289.5906,488.4375 1289.825,488.6953 Q1290.0594,488.9531 1290.0594,489.5625 L1290.0594,491.0156 Q1290.0594,491.625 1289.825,491.8906 Q1289.5906,492.1563 1289.2156,492.1563 Q1288.8719,492.1563 1288.6688,491.9531 Q1288.4656,491.7656 1288.3563,491.25 Q1288.3094,490.8906 1288.1219,490.7031 Q1287.7938,490.3281 1287.1844,490.1094 Q1286.575,489.8906 1285.95,489.8906 Q1285.1844,489.8906 1284.5516,490.2188 Q1283.9188,490.5469 1283.4266,491.2969 Q1282.9344,492.0469 1282.9344,493.0781 L1282.9344,494.1719 Q1282.9344,495.4063 1283.825,496.2266 Q1284.7156,497.0469 1286.3094,497.0469 Q1287.2469,497.0469 1287.9031,496.7969 Q1288.2938,496.6406 1288.7156,496.2031 Q1288.9813,495.9375 1289.1297,495.8594 Q1289.2781,495.7813 1289.4813,495.7813 Q1289.8094,495.7813 1290.0672,496.0391 Q1290.325,496.2969 1290.325,496.6406 Q1290.325,496.9844 1289.9813,497.3906 Q1289.4813,497.9688 1288.6844,498.2969 Q1287.6063,498.75 1286.3094,498.75 Q1284.7938,498.75 1283.5906,498.125 Q1282.6063,497.625 1281.9188,496.5547 Q1281.2313,495.4844 1281.2313,494.2031 L1281.2313,493.0469 Q1281.2313,491.7188 1281.8484,490.5703 Q1282.4656,489.4219 1283.5594,488.8047 Q1284.6531,488.1875 1285.8875,488.1875 Q1286.6219,488.1875 1287.2703,488.3516 Q1287.9188,488.5156 1288.4656,488.875 Z " fill="#000000"/><text fill="#000000" font-family="sans-serif" font-size="14" lengthAdjust="spacing" textLength="138" x="1302.3" y="498.7285">ComponentGenerator</text><line style="stroke:#181818;stroke-width:0.5;" x1="1260" x2="1454" y1="509" y2="509"/><rect fill="none" height="6" style="stroke:#C82930;stroke-width:1.0;" width="6" x="1267" y="520.3047"/><text fill="#000000" font-family="sans-serif" font-size="14" lengthAdjust="spacing" textLength="162" x="1279" y="527.5332">ecoa_model: ECOAModel</text><rect fill="none" height="6" style="stroke:#C82930;stroke-width:1.0;" width="6" x="1267" y="537.9141"/><text fill="#000000" font-family="sans-serif" font-size="14" lengthAdjust="spacing" textLength="52" x="1279" y="545.1426">path: str</text><rect fill="none" height="6" style="stroke:#C82930;stroke-width:1.0;" width="6" x="1267" y="555.5234"/><text fill="#000000" font-family="sans-serif" font-size="14" lengthAdjust="spacing" textLength="170" x="1279" y="562.752">component_impl_name: str</text><rect fill="none" height="6" style="stroke:#C82930;stroke-width:1.0;" width="6" x="1267" y="573.1328"/><text fill="#000000" font-family="sans-serif" font-size="14" lengthAdjust="spacing" textLength="146" x="1279" y="580.3613">module_impl_name: str</text><rect fill="none" height="6" style="stroke:#C82930;stroke-width:1.0;" width="6" x="1267" y="590.7422"/><text fill="#000000" font-family="sans-serif" font-size="14" lengthAdjust="spacing" textLength="67" x="1279" y="597.9707">force: bool</text><line style="stroke:#181818;stroke-width:0.5;" x1="1260" x2="1454" y1="605.0469" y2="605.0469"/><ellipse cx="1270" cy="619.3516" fill="#84BE84" rx="3" ry="3" style="stroke:#038048;stroke-width:1.0;"/><text fill="#000000" font-family="sans-serif" font-size="14" lengthAdjust="spacing" textLength="67" x="1279" y="623.5801">generate()</text></g><!--MD5=[e62d99cc97ec87bb1def512f58e4db4f]
class ContainerInterfaceGenerator--><g id="elem_ContainerInterfaceGenerator"><rect codeLine="63" fill="#F1F1F1" height="188.875" id="ContainerInterfaceGenerator" rx="2.5" ry="2.5" style="stroke:#181818;stroke-width:0.5;" width="288" x="70" y="845.5"/><ellipse cx="118.75" cy="861.5" fill="#ADD1B2" rx="11" ry="11" style="stroke:#181818;stroke-width:1.0;"/><path d="M121.5156,857.375 Q121.6719,857.1563 121.8594,857.0469 Q122.0469,856.9375 122.2656,856.9375 Q122.6406,856.9375 122.875,857.1953 Q123.1094,857.4531 123.1094,858.0625 L123.1094,859.5156 Q123.1094,860.125 122.875,860.3906 Q122.6406,860.6563 122.2656,860.6563 Q121.9219,860.6563 121.7188,860.4531 Q121.5156,860.2656 121.4063,859.75 Q121.3594,859.3906 121.1719,859.2031 Q120.8438,858.8281 120.2344,858.6094 Q119.625,858.3906 119,858.3906 Q118.2344,858.3906 117.6016,858.7188 Q116.9688,859.0469 116.4766,859.7969 Q115.9844,860.5469 115.9844,861.5781 L115.9844,862.6719 Q115.9844,863.9063 116.875,864.7266 Q117.7656,865.5469 119.3594,865.5469 Q120.2969,865.5469 120.9531,865.2969 Q121.3438,865.1406 121.7656,864.7031 Q122.0313,864.4375 122.1797,864.3594 Q122.3281,864.2813 122.5313,864.2813 Q122.8594,864.2813 123.1172,864.5391 Q123.375,864.7969 123.375,865.1406 Q123.375,865.4844 123.0313,865.8906 Q122.5313,866.4688 121.7344,866.7969 Q120.6563,867.25 119.3594,867.25 Q117.8438,867.25 116.6406,866.625 Q115.6563,866.125 114.9688,865.0547 Q114.2813,863.9844 114.2813,862.7031 L114.2813,861.5469 Q114.2813,860.2188 114.8984,859.0703 Q115.5156,857.9219 116.6094,857.3047 Q117.7031,856.6875 118.9375,856.6875 Q119.6719,856.6875 120.3203,856.8516 Q120.9688,857.0156 121.5156,857.375 Z " fill="#000000"/><text fill="#000000" font-family="sans-serif" font-size="14" lengthAdjust="spacing" textLength="182" x="139.25" y="867.2285">ContainerInterfaceGenerator</text><line style="stroke:#181818;stroke-width:0.5;" x1="71" x2="357" y1="877.5" y2="877.5"/><rect fill="none" height="6" style="stroke:#C82930;stroke-width:1.0;" width="6" x="78" y="888.8047"/><text fill="#000000" font-family="sans-serif" font-size="14" lengthAdjust="spacing" textLength="162" x="90" y="896.0332">ecoa_model: ECOAModel</text><rect fill="none" height="6" style="stroke:#C82930;stroke-width:1.0;" width="6" x="78" y="906.4141"/><text fill="#000000" font-family="sans-serif" font-size="14" lengthAdjust="spacing" textLength="52" x="90" y="913.6426">path: str</text><rect fill="none" height="6" style="stroke:#C82930;stroke-width:1.0;" width="6" x="78" y="924.0234"/><text fill="#000000" font-family="sans-serif" font-size="14" lengthAdjust="spacing" textLength="170" x="90" y="931.252">component_impl_name: str</text><rect fill="none" height="6" style="stroke:#C82930;stroke-width:1.0;" width="6" x="78" y="941.6328"/><text fill="#000000" font-family="sans-serif" font-size="14" lengthAdjust="spacing" textLength="146" x="90" y="948.8613">module_impl_name: str</text><rect fill="none" height="6" style="stroke:#C82930;stroke-width:1.0;" width="6" x="78" y="959.2422"/><text fill="#000000" font-family="sans-serif" font-size="14" lengthAdjust="spacing" textLength="83" x="90" y="966.4707">language: str</text><rect fill="none" height="6" style="stroke:#C82930;stroke-width:1.0;" width="6" x="78" y="976.8516"/><text fill="#000000" font-family="sans-serif" font-size="14" lengthAdjust="spacing" textLength="135" x="90" y="984.0801">templates: Templates</text><line style="stroke:#181818;stroke-width:0.5;" x1="71" x2="357" y1="991.1563" y2="991.1563"/><rect fill="#F24D5C" height="6" style="stroke:#C82930;stroke-width:1.0;" width="6" x="78" y="1002.4609"/><text fill="#000000" font-family="sans-serif" font-size="14" lengthAdjust="spacing" textLength="262" x="90" y="1009.6895">generate_module_context_structure(): str</text><ellipse cx="81" cy="1023.0703" fill="#84BE84" rx="3" ry="3" style="stroke:#038048;stroke-width:1.0;"/><text fill="#000000" font-family="sans-serif" font-size="14" lengthAdjust="spacing" textLength="67" x="90" y="1027.2988">generate()</text></g><!--MD5=[bad8fc258f961dd15a0e97122d3637ef]
class ContainerTypesGenerator--><g id="elem_ContainerTypesGenerator"><rect codeLine="74" fill="#F1F1F1" height="188.875" id="ContainerTypesGenerator" rx="2.5" ry="2.5" style="stroke:#181818;stroke-width:0.5;" width="281" x="393.5" y="845.5"/><ellipse cx="446.75" cy="861.5" fill="#ADD1B2" rx="11" ry="11" style="stroke:#181818;stroke-width:1.0;"/><path d="M449.5156,857.375 Q449.6719,857.1563 449.8594,857.0469 Q450.0469,856.9375 450.2656,856.9375 Q450.6406,856.9375 450.875,857.1953 Q451.1094,857.4531 451.1094,858.0625 L451.1094,859.5156 Q451.1094,860.125 450.875,860.3906 Q450.6406,860.6563 450.2656,860.6563 Q449.9219,860.6563 449.7188,860.4531 Q449.5156,860.2656 449.4063,859.75 Q449.3594,859.3906 449.1719,859.2031 Q448.8438,858.8281 448.2344,858.6094 Q447.625,858.3906 447,858.3906 Q446.2344,858.3906 445.6016,858.7188 Q444.9688,859.0469 444.4766,859.7969 Q443.9844,860.5469 443.9844,861.5781 L443.9844,862.6719 Q443.9844,863.9063 444.875,864.7266 Q445.7656,865.5469 447.3594,865.5469 Q448.2969,865.5469 448.9531,865.2969 Q449.3438,865.1406 449.7656,864.7031 Q450.0313,864.4375 450.1797,864.3594 Q450.3281,864.2813 450.5313,864.2813 Q450.8594,864.2813 451.1172,864.5391 Q451.375,864.7969 451.375,865.1406 Q451.375,865.4844 451.0313,865.8906 Q450.5313,866.4688 449.7344,866.7969 Q448.6563,867.25 447.3594,867.25 Q445.8438,867.25 444.6406,866.625 Q443.6563,866.125 442.9688,865.0547 Q442.2813,863.9844 442.2813,862.7031 L442.2813,861.5469 Q442.2813,860.2188 442.8984,859.0703 Q443.5156,857.9219 444.6094,857.3047 Q445.7031,856.6875 446.9375,856.6875 Q447.6719,856.6875 448.3203,856.8516 Q448.9688,857.0156 449.5156,857.375 Z " fill="#000000"/><text fill="#000000" font-family="sans-serif" font-size="14" lengthAdjust="spacing" textLength="166" x="467.25" y="867.2285">ContainerTypesGenerator</text><line style="stroke:#181818;stroke-width:0.5;" x1="394.5" x2="673.5" y1="877.5" y2="877.5"/><rect fill="none" height="6" style="stroke:#C82930;stroke-width:1.0;" width="6" x="401.5" y="888.8047"/><text fill="#000000" font-family="sans-serif" font-size="14" lengthAdjust="spacing" textLength="162" x="413.5" y="896.0332">ecoa_model: ECOAModel</text><rect fill="none" height="6" style="stroke:#C82930;stroke-width:1.0;" width="6" x="401.5" y="906.4141"/><text fill="#000000" font-family="sans-serif" font-size="14" lengthAdjust="spacing" textLength="52" x="413.5" y="913.6426">path: str</text><rect fill="none" height="6" style="stroke:#C82930;stroke-width:1.0;" width="6" x="401.5" y="924.0234"/><text fill="#000000" font-family="sans-serif" font-size="14" lengthAdjust="spacing" textLength="170" x="413.5" y="931.252">component_impl_name: str</text><rect fill="none" height="6" style="stroke:#C82930;stroke-width:1.0;" width="6" x="401.5" y="941.6328"/><text fill="#000000" font-family="sans-serif" font-size="14" lengthAdjust="spacing" textLength="146" x="413.5" y="948.8613">module_impl_name: str</text><rect fill="none" height="6" style="stroke:#C82930;stroke-width:1.0;" width="6" x="401.5" y="959.2422"/><text fill="#000000" font-family="sans-serif" font-size="14" lengthAdjust="spacing" textLength="83" x="413.5" y="966.4707">language: str</text><rect fill="none" height="6" style="stroke:#C82930;stroke-width:1.0;" width="6" x="401.5" y="976.8516"/><text fill="#000000" font-family="sans-serif" font-size="14" lengthAdjust="spacing" textLength="135" x="413.5" y="984.0801">templates: Templates</text><line style="stroke:#181818;stroke-width:0.5;" x1="394.5" x2="673.5" y1="991.1563" y2="991.1563"/><rect fill="#F24D5C" height="6" style="stroke:#C82930;stroke-width:1.0;" width="6" x="401.5" y="1002.4609"/><text fill="#000000" font-family="sans-serif" font-size="14" lengthAdjust="spacing" textLength="255" x="413.5" y="1009.6895">generate_versioned_data_handles(): str</text><ellipse cx="404.5" cy="1023.0703" fill="#84BE84" rx="3" ry="3" style="stroke:#038048;stroke-width:1.0;"/><text fill="#000000" font-family="sans-serif" font-size="14" lengthAdjust="spacing" textLength="67" x="413.5" y="1027.2988">generate()</text></g><!--MD5=[4a10f44f31388b479f50232d0d55bb4a]
class ModuleInterfaceGenerator--><g id="elem_ModuleInterfaceGenerator"><rect codeLine="89" fill="#F1F1F1" height="171.2656" id="ModuleInterfaceGenerator" rx="2.5" ry="2.5" style="stroke:#181818;stroke-width:0.5;" width="198" x="1737" y="854.5"/><ellipse cx="1752" cy="870.5" fill="#ADD1B2" rx="11" ry="11" style="stroke:#181818;stroke-width:1.0;"/><path d="M1754.7656,866.375 Q1754.9219,866.1563 1755.1094,866.0469 Q1755.2969,865.9375 1755.5156,865.9375 Q1755.8906,865.9375 1756.125,866.1953 Q1756.3594,866.4531 1756.3594,867.0625 L1756.3594,868.5156 Q1756.3594,869.125 1756.125,869.3906 Q1755.8906,869.6563 1755.5156,869.6563 Q1755.1719,869.6563 1754.9688,869.4531 Q1754.7656,869.2656 1754.6563,868.75 Q1754.6094,868.3906 1754.4219,868.2031 Q1754.0938,867.8281 1753.4844,867.6094 Q1752.875,867.3906 1752.25,867.3906 Q1751.4844,867.3906 1750.8516,867.7188 Q1750.2188,868.0469 1749.7266,868.7969 Q1749.2344,869.5469 1749.2344,870.5781 L1749.2344,871.6719 Q1749.2344,872.9063 1750.125,873.7266 Q1751.0156,874.5469 1752.6094,874.5469 Q1753.5469,874.5469 1754.2031,874.2969 Q1754.5938,874.1406 1755.0156,873.7031 Q1755.2813,873.4375 1755.4297,873.3594 Q1755.5781,873.2813 1755.7813,873.2813 Q1756.1094,873.2813 1756.3672,873.5391 Q1756.625,873.7969 1756.625,874.1406 Q1756.625,874.4844 1756.2813,874.8906 Q1755.7813,875.4688 1754.9844,875.7969 Q1753.9063,876.25 1752.6094,876.25 Q1751.0938,876.25 1749.8906,875.625 Q1748.9063,875.125 1748.2188,874.0547 Q1747.5313,872.9844 1747.5313,871.7031 L1747.5313,870.5469 Q1747.5313,869.2188 1748.1484,868.0703 Q1748.7656,866.9219 1749.8594,866.3047 Q1750.9531,865.6875 1752.1875,865.6875 Q1752.9219,865.6875 1753.5703,865.8516 Q1754.2188,866.0156 1754.7656,866.375 Z " fill="#000000"/><text fill="#000000" font-family="sans-serif" font-size="14" lengthAdjust="spacing" textLength="166" x="1766" y="876.2285">ModuleInterfaceGenerator</text><line style="stroke:#181818;stroke-width:0.5;" x1="1738" x2="1934" y1="886.5" y2="886.5"/><rect fill="none" height="6" style="stroke:#C82930;stroke-width:1.0;" width="6" x="1745" y="897.8047"/><text fill="#000000" font-family="sans-serif" font-size="14" lengthAdjust="spacing" textLength="162" x="1757" y="905.0332">ecoa_model: ECOAModel</text><rect fill="none" height="6" style="stroke:#C82930;stroke-width:1.0;" width="6" x="1745" y="915.4141"/><text fill="#000000" font-family="sans-serif" font-size="14" lengthAdjust="spacing" textLength="52" x="1757" y="922.6426">path: str</text><rect fill="none" height="6" style="stroke:#C82930;stroke-width:1.0;" width="6" x="1745" y="933.0234"/><text fill="#000000" font-family="sans-serif" font-size="14" lengthAdjust="spacing" textLength="170" x="1757" y="940.252">component_impl_name: str</text><rect fill="none" height="6" style="stroke:#C82930;stroke-width:1.0;" width="6" x="1745" y="950.6328"/><text fill="#000000" font-family="sans-serif" font-size="14" lengthAdjust="spacing" textLength="146" x="1757" y="957.8613">module_impl_name: str</text><rect fill="none" height="6" style="stroke:#C82930;stroke-width:1.0;" width="6" x="1745" y="968.2422"/><text fill="#000000" font-family="sans-serif" font-size="14" lengthAdjust="spacing" textLength="83" x="1757" y="975.4707">language: str</text><rect fill="none" height="6" style="stroke:#C82930;stroke-width:1.0;" width="6" x="1745" y="985.8516"/><text fill="#000000" font-family="sans-serif" font-size="14" lengthAdjust="spacing" textLength="135" x="1757" y="993.0801">templates: Templates</text><line style="stroke:#181818;stroke-width:0.5;" x1="1738" x2="1934" y1="1000.1563" y2="1000.1563"/><ellipse cx="1748" cy="1014.4609" fill="#84BE84" rx="3" ry="3" style="stroke:#038048;stroke-width:1.0;"/><text fill="#000000" font-family="sans-serif" font-size="14" lengthAdjust="spacing" textLength="67" x="1757" y="1018.6895">generate()</text></g><!--MD5=[42cc77cbd82cf8762119b62e246ca89e]
class ModuleSourceGenerator--><g id="elem_ModuleSourceGenerator"><rect codeLine="99" fill="#F1F1F1" height="171.2656" id="ModuleSourceGenerator" rx="2.5" ry="2.5" style="stroke:#181818;stroke-width:0.5;" width="196" x="1970" y="854.5"/><ellipse cx="1988.6" cy="870.5" fill="#ADD1B2" rx="11" ry="11" style="stroke:#181818;stroke-width:1.0;"/><path d="M1991.3656,866.375 Q1991.5219,866.1563 1991.7094,866.0469 Q1991.8969,865.9375 1992.1156,865.9375 Q1992.4906,865.9375 1992.725,866.1953 Q1992.9594,866.4531 1992.9594,867.0625 L1992.9594,868.5156 Q1992.9594,869.125 1992.725,869.3906 Q1992.4906,869.6563 1992.1156,869.6563 Q1991.7719,869.6563 1991.5688,869.4531 Q1991.3656,869.2656 1991.2563,868.75 Q1991.2094,868.3906 1991.0219,868.2031 Q1990.6938,867.8281 1990.0844,867.6094 Q1989.475,867.3906 1988.85,867.3906 Q1988.0844,867.3906 1987.4516,867.7188 Q1986.8188,868.0469 1986.3266,868.7969 Q1985.8344,869.5469 1985.8344,870.5781 L1985.8344,871.6719 Q1985.8344,872.9063 1986.725,873.7266 Q1987.6156,874.5469 1989.2094,874.5469 Q1990.1469,874.5469 1990.8031,874.2969 Q1991.1938,874.1406 1991.6156,873.7031 Q1991.8813,873.4375 1992.0297,873.3594 Q1992.1781,873.2813 1992.3813,873.2813 Q1992.7094,873.2813 1992.9672,873.5391 Q1993.225,873.7969 1993.225,874.1406 Q1993.225,874.4844 1992.8813,874.8906 Q1992.3813,875.4688 1991.5844,875.7969 Q1990.5063,876.25 1989.2094,876.25 Q1987.6938,876.25 1986.4906,875.625 Q1985.5063,875.125 1984.8188,874.0547 Q1984.1313,872.9844 1984.1313,871.7031 L1984.1313,870.5469 Q1984.1313,869.2188 1984.7484,868.0703 Q1985.3656,866.9219 1986.4594,866.3047 Q1987.5531,865.6875 1988.7875,865.6875 Q1989.5219,865.6875 1990.1703,865.8516 Q1990.8188,866.0156 1991.3656,866.375 Z " fill="#000000"/><text fill="#000000" font-family="sans-serif" font-size="14" lengthAdjust="spacing" textLength="156" x="2003.4" y="876.2285">ModuleSourceGenerator</text><line style="stroke:#181818;stroke-width:0.5;" x1="1971" x2="2165" y1="886.5" y2="886.5"/><rect fill="none" height="6" style="stroke:#C82930;stroke-width:1.0;" width="6" x="1978" y="897.8047"/><text fill="#000000" font-family="sans-serif" font-size="14" lengthAdjust="spacing" textLength="162" x="1990" y="905.0332">ecoa_model: ECOAModel</text><rect fill="none" height="6" style="stroke:#C82930;stroke-width:1.0;" width="6" x="1978" y="915.4141"/><text fill="#000000" font-family="sans-serif" font-size="14" lengthAdjust="spacing" textLength="52" x="1990" y="922.6426">path: str</text><rect fill="none" height="6" style="stroke:#C82930;stroke-width:1.0;" width="6" x="1978" y="933.0234"/><text fill="#000000" font-family="sans-serif" font-size="14" lengthAdjust="spacing" textLength="170" x="1990" y="940.252">component_impl_name: str</text><rect fill="none" height="6" style="stroke:#C82930;stroke-width:1.0;" width="6" x="1978" y="950.6328"/><text fill="#000000" font-family="sans-serif" font-size="14" lengthAdjust="spacing" textLength="146" x="1990" y="957.8613">module_impl_name: str</text><rect fill="none" height="6" style="stroke:#C82930;stroke-width:1.0;" width="6" x="1978" y="968.2422"/><text fill="#000000" font-family="sans-serif" font-size="14" lengthAdjust="spacing" textLength="83" x="1990" y="975.4707">language: str</text><rect fill="none" height="6" style="stroke:#C82930;stroke-width:1.0;" width="6" x="1978" y="985.8516"/><text fill="#000000" font-family="sans-serif" font-size="14" lengthAdjust="spacing" textLength="135" x="1990" y="993.0801">templates: Templates</text><line style="stroke:#181818;stroke-width:0.5;" x1="1971" x2="2165" y1="1000.1563" y2="1000.1563"/><ellipse cx="1981" cy="1014.4609" fill="#84BE84" rx="3" ry="3" style="stroke:#038048;stroke-width:1.0;"/><text fill="#000000" font-family="sans-serif" font-size="14" lengthAdjust="spacing" textLength="67" x="1990" y="1018.6895">generate()</text></g><!--MD5=[d73540bd90c6605bf4f9ff1c09dccc82]
class ModuleUserGenerator--><g id="elem_ModuleUserGenerator"><rect codeLine="109" fill="#F1F1F1" height="136.0469" id="ModuleUserGenerator" rx="2.5" ry="2.5" style="stroke:#181818;stroke-width:0.5;" width="172" x="2201" y="872"/><ellipse cx="2216" cy="888" fill="#ADD1B2" rx="11" ry="11" style="stroke:#181818;stroke-width:1.0;"/><path d="M2218.7656,883.875 Q2218.9219,883.6563 2219.1094,883.5469 Q2219.2969,883.4375 2219.5156,883.4375 Q2219.8906,883.4375 2220.125,883.6953 Q2220.3594,883.9531 2220.3594,884.5625 L2220.3594,886.0156 Q2220.3594,886.625 2220.125,886.8906 Q2219.8906,887.1563 2219.5156,887.1563 Q2219.1719,887.1563 2218.9688,886.9531 Q2218.7656,886.7656 2218.6563,886.25 Q2218.6094,885.8906 2218.4219,885.7031 Q2218.0938,885.3281 2217.4844,885.1094 Q2216.875,884.8906 2216.25,884.8906 Q2215.4844,884.8906 2214.8516,885.2188 Q2214.2188,885.5469 2213.7266,886.2969 Q2213.2344,887.0469 2213.2344,888.0781 L2213.2344,889.1719 Q2213.2344,890.4063 2214.125,891.2266 Q2215.0156,892.0469 2216.6094,892.0469 Q2217.5469,892.0469 2218.2031,891.7969 Q2218.5938,891.6406 2219.0156,891.2031 Q2219.2813,890.9375 2219.4297,890.8594 Q2219.5781,890.7813 2219.7813,890.7813 Q2220.1094,890.7813 2220.3672,891.0391 Q2220.625,891.2969 2220.625,891.6406 Q2220.625,891.9844 2220.2813,892.3906 Q2219.7813,892.9688 2218.9844,893.2969 Q2217.9063,893.75 2216.6094,893.75 Q2215.0938,893.75 2213.8906,893.125 Q2212.9063,892.625 2212.2188,891.5547 Q2211.5313,890.4844 2211.5313,889.2031 L2211.5313,888.0469 Q2211.5313,886.7188 2212.1484,885.5703 Q2212.7656,884.4219 2213.8594,883.8047 Q2214.9531,883.1875 2216.1875,883.1875 Q2216.9219,883.1875 2217.5703,883.3516 Q2218.2188,883.5156 2218.7656,883.875 Z " fill="#000000"/><text fill="#000000" font-family="sans-serif" font-size="14" lengthAdjust="spacing" textLength="140" x="2230" y="893.7285">ModuleUserGenerator</text><line style="stroke:#181818;stroke-width:0.5;" x1="2202" x2="2372" y1="904" y2="904"/><rect fill="none" height="6" style="stroke:#C82930;stroke-width:1.0;" width="6" x="2209" y="915.3047"/><text fill="#000000" font-family="sans-serif" font-size="14" lengthAdjust="spacing" textLength="52" x="2221" y="922.5332">path: str</text><rect fill="none" height="6" style="stroke:#C82930;stroke-width:1.0;" width="6" x="2209" y="932.9141"/><text fill="#000000" font-family="sans-serif" font-size="14" lengthAdjust="spacing" textLength="146" x="2221" y="940.1426">module_impl_name: str</text><rect fill="none" height="6" style="stroke:#C82930;stroke-width:1.0;" width="6" x="2209" y="950.5234"/><text fill="#000000" font-family="sans-serif" font-size="14" lengthAdjust="spacing" textLength="83" x="2221" y="957.752">language: str</text><rect fill="none" height="6" style="stroke:#C82930;stroke-width:1.0;" width="6" x="2209" y="968.1328"/><text fill="#000000" font-family="sans-serif" font-size="14" lengthAdjust="spacing" textLength="135" x="2221" y="975.3613">templates: Templates</text><line style="stroke:#181818;stroke-width:0.5;" x1="2202" x2="2372" y1="982.4375" y2="982.4375"/><ellipse cx="2212" cy="996.7422" fill="#84BE84" rx="3" ry="3" style="stroke:#038048;stroke-width:1.0;"/><text fill="#000000" font-family="sans-serif" font-size="14" lengthAdjust="spacing" textLength="67" x="2221" y="1000.9707">generate()</text></g><!--MD5=[2878561020d0e6eefb2a0318a966cfea]
class UnitTestContainerMockGenerator--><g id="elem_UnitTestContainerMockGenerator"><rect codeLine="121" fill="#F1F1F1" height="171.2656" id="UnitTestContainerMockGenerator" rx="2.5" ry="2.5" style="stroke:#181818;stroke-width:0.5;" width="285" x="731.5" y="854.5"/><ellipse cx="764.95" cy="870.5" fill="#ADD1B2" rx="11" ry="11" style="stroke:#181818;stroke-width:1.0;"/><path d="M767.7156,866.375 Q767.8719,866.1563 768.0594,866.0469 Q768.2469,865.9375 768.4656,865.9375 Q768.8406,865.9375 769.075,866.1953 Q769.3094,866.4531 769.3094,867.0625 L769.3094,868.5156 Q769.3094,869.125 769.075,869.3906 Q768.8406,869.6563 768.4656,869.6563 Q768.1219,869.6563 767.9188,869.4531 Q767.7156,869.2656 767.6063,868.75 Q767.5594,868.3906 767.3719,868.2031 Q767.0438,867.8281 766.4344,867.6094 Q765.825,867.3906 765.2,867.3906 Q764.4344,867.3906 763.8016,867.7188 Q763.1688,868.0469 762.6766,868.7969 Q762.1844,869.5469 762.1844,870.5781 L762.1844,871.6719 Q762.1844,872.9063 763.075,873.7266 Q763.9656,874.5469 765.5594,874.5469 Q766.4969,874.5469 767.1531,874.2969 Q767.5438,874.1406 767.9656,873.7031 Q768.2313,873.4375 768.3797,873.3594 Q768.5281,873.2813 768.7313,873.2813 Q769.0594,873.2813 769.3172,873.5391 Q769.575,873.7969 769.575,874.1406 Q769.575,874.4844 769.2313,874.8906 Q768.7313,875.4688 767.9344,875.7969 Q766.8563,876.25 765.5594,876.25 Q764.0438,876.25 762.8406,875.625 Q761.8563,875.125 761.1688,874.0547 Q760.4813,872.9844 760.4813,871.7031 L760.4813,870.5469 Q760.4813,869.2188 761.0984,868.0703 Q761.7156,866.9219 762.8094,866.3047 Q763.9031,865.6875 765.1375,865.6875 Q765.8719,865.6875 766.5203,865.8516 Q767.1688,866.0156 767.7156,866.375 Z " fill="#000000"/><text fill="#000000" font-family="sans-serif" font-size="14" lengthAdjust="spacing" textLength="212" x="783.05" y="876.2285">UnitTestContainerMockGenerator</text><line style="stroke:#181818;stroke-width:0.5;" x1="732.5" x2="1015.5" y1="886.5" y2="886.5"/><rect fill="none" height="6" style="stroke:#C82930;stroke-width:1.0;" width="6" x="739.5" y="897.8047"/><text fill="#000000" font-family="sans-serif" font-size="14" lengthAdjust="spacing" textLength="162" x="751.5" y="905.0332">ecoa_model: ECOAModel</text><rect fill="none" height="6" style="stroke:#C82930;stroke-width:1.0;" width="6" x="739.5" y="915.4141"/><text fill="#000000" font-family="sans-serif" font-size="14" lengthAdjust="spacing" textLength="52" x="751.5" y="922.6426">path: str</text><rect fill="none" height="6" style="stroke:#C82930;stroke-width:1.0;" width="6" x="739.5" y="933.0234"/><text fill="#000000" font-family="sans-serif" font-size="14" lengthAdjust="spacing" textLength="135" x="751.5" y="940.252">templates: Templates</text><line style="stroke:#181818;stroke-width:0.5;" x1="732.5" x2="1015.5" y1="947.3281" y2="947.3281"/><rect fill="#F24D5C" height="6" style="stroke:#C82930;stroke-width:1.0;" width="6" x="739.5" y="958.6328"/><text fill="#000000" font-family="sans-serif" font-size="14" lengthAdjust="spacing" textLength="200" x="751.5" y="965.8613">generate_recovery_action(): str</text><rect fill="#F24D5C" height="6" style="stroke:#C82930;stroke-width:1.0;" width="6" x="739.5" y="976.2422"/><text fill="#000000" font-family="sans-serif" font-size="14" lengthAdjust="spacing" textLength="259" x="751.5" y="983.4707">generate_save_warm_start_context(): str</text><rect fill="#F24D5C" height="6" style="stroke:#C82930;stroke-width:1.0;" width="6" x="739.5" y="993.8516"/><text fill="#000000" font-family="sans-serif" font-size="14" lengthAdjust="spacing" textLength="199" x="751.5" y="1001.0801">generate_container_mock(): str</text><ellipse cx="742.5" cy="1014.4609" fill="#84BE84" rx="3" ry="3" style="stroke:#038048;stroke-width:1.0;"/><text fill="#000000" font-family="sans-serif" font-size="14" lengthAdjust="spacing" textLength="67" x="751.5" y="1018.6895">generate()</text></g><!--MD5=[b3d9841eac0aa6643702a77916625724]
class ContainerMockVisitor--><g id="elem_ContainerMockVisitor"><rect codeLine="131" fill="#F1F1F1" height="83.2188" id="ContainerMockVisitor" rx="2.5" ry="2.5" style="stroke:#181818;stroke-width:0.5;" width="188" x="813" y="1166"/><ellipse cx="837.9" cy="1182" fill="#ADD1B2" rx="11" ry="11" style="stroke:#181818;stroke-width:1.0;"/><path d="M840.6656,1177.875 Q840.8219,1177.6563 841.0094,1177.5469 Q841.1969,1177.4375 841.4156,1177.4375 Q841.7906,1177.4375 842.025,1177.6953 Q842.2594,1177.9531 842.2594,1178.5625 L842.2594,1180.0156 Q842.2594,1180.625 842.025,1180.8906 Q841.7906,1181.1563 841.4156,1181.1563 Q841.0719,1181.1563 840.8688,1180.9531 Q840.6656,1180.7656 840.5563,1180.25 Q840.5094,1179.8906 840.3219,1179.7031 Q839.9938,1179.3281 839.3844,1179.1094 Q838.775,1178.8906 838.15,1178.8906 Q837.3844,1178.8906 836.7516,1179.2188 Q836.1188,1179.5469 835.6266,1180.2969 Q835.1344,1181.0469 835.1344,1182.0781 L835.1344,1183.1719 Q835.1344,1184.4063 836.025,1185.2266 Q836.9156,1186.0469 838.5094,1186.0469 Q839.4469,1186.0469 840.1031,1185.7969 Q840.4938,1185.6406 840.9156,1185.2031 Q841.1813,1184.9375 841.3297,1184.8594 Q841.4781,1184.7813 841.6813,1184.7813 Q842.0094,1184.7813 842.2672,1185.0391 Q842.525,1185.2969 842.525,1185.6406 Q842.525,1185.9844 842.1813,1186.3906 Q841.6813,1186.9688 840.8844,1187.2969 Q839.8063,1187.75 838.5094,1187.75 Q836.9938,1187.75 835.7906,1187.125 Q834.8063,1186.625 834.1188,1185.5547 Q833.4313,1184.4844 833.4313,1183.2031 L833.4313,1182.0469 Q833.4313,1180.7188 834.0484,1179.5703 Q834.6656,1178.4219 835.7594,1177.8047 Q836.8531,1177.1875 838.0875,1177.1875 Q838.8219,1177.1875 839.4703,1177.3516 Q840.1188,1177.5156 840.6656,1177.875 Z " fill="#000000"/><text fill="#000000" font-family="sans-serif" font-size="14" lengthAdjust="spacing" textLength="134" x="854.1" y="1187.7285">ContainerMockVisitor</text><line style="stroke:#181818;stroke-width:0.5;" x1="814" x2="1000" y1="1198" y2="1198"/><rect fill="none" height="6" style="stroke:#C82930;stroke-width:1.0;" width="6" x="821" y="1209.3047"/><text fill="#000000" font-family="sans-serif" font-size="14" lengthAdjust="spacing" textLength="162" x="833" y="1216.5332">ecoa_model: ECOAModel</text><rect fill="none" height="6" style="stroke:#C82930;stroke-width:1.0;" width="6" x="821" y="1226.9141"/><text fill="#000000" font-family="sans-serif" font-size="14" lengthAdjust="spacing" textLength="52" x="833" y="1234.1426">path: str</text><line style="stroke:#181818;stroke-width:0.5;" x1="814" x2="1000" y1="1241.2188" y2="1241.2188"/></g><!--MD5=[dc7041799a9fd4e3f3d21a76a34aa45d]
class UnitTestMainGenerator--><g id="elem_UnitTestMainGenerator"><rect codeLine="136" fill="#F1F1F1" height="329.75" id="UnitTestMainGenerator" rx="2.5" ry="2.5" style="stroke:#181818;stroke-width:0.5;" width="279" x="1051.5" y="775"/><ellipse cx="1113.25" cy="791" fill="#ADD1B2" rx="11" ry="11" style="stroke:#181818;stroke-width:1.0;"/><path d="M1116.0156,786.875 Q1116.1719,786.6563 1116.3594,786.5469 Q1116.5469,786.4375 1116.7656,786.4375 Q1117.1406,786.4375 1117.375,786.6953 Q1117.6094,786.9531 1117.6094,787.5625 L1117.6094,789.0156 Q1117.6094,789.625 1117.375,789.8906 Q1117.1406,790.1563 1116.7656,790.1563 Q1116.4219,790.1563 1116.2188,789.9531 Q1116.0156,789.7656 1115.9063,789.25 Q1115.8594,788.8906 1115.6719,788.7031 Q1115.3438,788.3281 1114.7344,788.1094 Q1114.125,787.8906 1113.5,787.8906 Q1112.7344,787.8906 1112.1016,788.2188 Q1111.4688,788.5469 1110.9766,789.2969 Q1110.4844,790.0469 1110.4844,791.0781 L1110.4844,792.1719 Q1110.4844,793.4063 1111.375,794.2266 Q1112.2656,795.0469 1113.8594,795.0469 Q1114.7969,795.0469 1115.4531,794.7969 Q1115.8438,794.6406 1116.2656,794.2031 Q1116.5313,793.9375 1116.6797,793.8594 Q1116.8281,793.7813 1117.0313,793.7813 Q1117.3594,793.7813 1117.6172,794.0391 Q1117.875,794.2969 1117.875,794.6406 Q1117.875,794.9844 1117.5313,795.3906 Q1117.0313,795.9688 1116.2344,796.2969 Q1115.1563,796.75 1113.8594,796.75 Q1112.3438,796.75 1111.1406,796.125 Q1110.1563,795.625 1109.4688,794.5547 Q1108.7813,793.4844 1108.7813,792.2031 L1108.7813,791.0469 Q1108.7813,789.7188 1109.3984,788.5703 Q1110.0156,787.4219 1111.1094,786.8047 Q1112.2031,786.1875 1113.4375,786.1875 Q1114.1719,786.1875 1114.8203,786.3516 Q1115.4688,786.5156 1116.0156,786.875 Z " fill="#000000"/><text fill="#000000" font-family="sans-serif" font-size="14" lengthAdjust="spacing" textLength="147" x="1133.75" y="796.7285">UnitTestMainGenerator</text><line style="stroke:#181818;stroke-width:0.5;" x1="1052.5" x2="1329.5" y1="807" y2="807"/><rect fill="none" height="6" style="stroke:#C82930;stroke-width:1.0;" width="6" x="1059.5" y="818.3047"/><text fill="#000000" font-family="sans-serif" font-size="14" lengthAdjust="spacing" textLength="162" x="1071.5" y="825.5332">ecoa_model: ECOAModel</text><rect fill="none" height="6" style="stroke:#C82930;stroke-width:1.0;" width="6" x="1059.5" y="835.9141"/><text fill="#000000" font-family="sans-serif" font-size="14" lengthAdjust="spacing" textLength="52" x="1071.5" y="843.1426">path: str</text><rect fill="none" height="6" style="stroke:#C82930;stroke-width:1.0;" width="6" x="1059.5" y="853.5234"/><text fill="#000000" font-family="sans-serif" font-size="14" lengthAdjust="spacing" textLength="170" x="1071.5" y="860.752">component_impl_name: str</text><rect fill="none" height="6" style="stroke:#C82930;stroke-width:1.0;" width="6" x="1059.5" y="871.1328"/><text fill="#000000" font-family="sans-serif" font-size="14" lengthAdjust="spacing" textLength="146" x="1071.5" y="878.3613">module_impl_name: str</text><rect fill="none" height="6" style="stroke:#C82930;stroke-width:1.0;" width="6" x="1059.5" y="888.7422"/><text fill="#000000" font-family="sans-serif" font-size="14" lengthAdjust="spacing" textLength="83" x="1071.5" y="895.9707">language: str</text><rect fill="none" height="6" style="stroke:#C82930;stroke-width:1.0;" width="6" x="1059.5" y="906.3516"/><text fill="#000000" font-family="sans-serif" font-size="14" lengthAdjust="spacing" textLength="135" x="1071.5" y="913.5801">templates: Templates</text><line style="stroke:#181818;stroke-width:0.5;" x1="1052.5" x2="1329.5" y1="920.6563" y2="920.6563"/><rect fill="#F24D5C" height="6" style="stroke:#C82930;stroke-width:1.0;" width="6" x="1059.5" y="931.9609"/><text fill="#000000" font-family="sans-serif" font-size="14" lengthAdjust="spacing" textLength="243" x="1071.5" y="939.1895">generate_module_fault_handler_test()</text><rect fill="#F24D5C" height="6" style="stroke:#C82930;stroke-width:1.0;" width="6" x="1059.5" y="949.5703"/><text fill="#000000" font-family="sans-serif" font-size="14" lengthAdjust="spacing" textLength="191" x="1071.5" y="956.7988">generate_standard_includes()</text><rect fill="#F24D5C" height="6" style="stroke:#C82930;stroke-width:1.0;" width="6" x="1059.5" y="967.1797"/><text fill="#000000" font-family="sans-serif" font-size="14" lengthAdjust="spacing" textLength="181" x="1071.5" y="974.4082">generate_module_includes()</text><rect fill="#F24D5C" height="6" style="stroke:#C82930;stroke-width:1.0;" width="6" x="1059.5" y="984.7891"/><text fill="#000000" font-family="sans-serif" font-size="14" lengthAdjust="spacing" textLength="121" x="1071.5" y="992.0176">generate_externs()</text><rect fill="#F24D5C" height="6" style="stroke:#C82930;stroke-width:1.0;" width="6" x="1059.5" y="1002.3984"/><text fill="#000000" font-family="sans-serif" font-size="14" lengthAdjust="spacing" textLength="183" x="1071.5" y="1009.627">generate_utilities_variables()</text><rect fill="#F24D5C" height="6" style="stroke:#C82930;stroke-width:1.0;" width="6" x="1059.5" y="1020.0078"/><text fill="#000000" font-family="sans-serif" font-size="14" lengthAdjust="spacing" textLength="238" x="1071.5" y="1027.2363">generate_unit_test_utilities_function()</text><rect fill="#F24D5C" height="6" style="stroke:#C82930;stroke-width:1.0;" width="6" x="1059.5" y="1037.6172"/><text fill="#000000" font-family="sans-serif" font-size="14" lengthAdjust="spacing" textLength="253" x="1071.5" y="1044.8457">generate_ecoa_lifecycle_function_test()</text><rect fill="#F24D5C" height="6" style="stroke:#C82930;stroke-width:1.0;" width="6" x="1059.5" y="1055.2266"/><text fill="#000000" font-family="sans-serif" font-size="14" lengthAdjust="spacing" textLength="120" x="1071.5" y="1062.4551">generate_all_test()</text><rect fill="#F24D5C" height="6" style="stroke:#C82930;stroke-width:1.0;" width="6" x="1059.5" y="1072.8359"/><text fill="#000000" font-family="sans-serif" font-size="14" lengthAdjust="spacing" textLength="163" x="1071.5" y="1080.0645">generate_main_function()</text><ellipse cx="1062.5" cy="1093.4453" fill="#84BE84" rx="3" ry="3" style="stroke:#038048;stroke-width:1.0;"/><text fill="#000000" font-family="sans-serif" font-size="14" lengthAdjust="spacing" textLength="67" x="1071.5" y="1097.6738">generate()</text></g><!--MD5=[5a08800a9ac3b73b4e6c51d6693a3351]
class ModuleTestImplementationVisitor--><g id="elem_ModuleTestImplementationVisitor"><rect codeLine="155" fill="#F1F1F1" height="48" id="ModuleTestImplementationVisitor" rx="2.5" ry="2.5" style="stroke:#181818;stroke-width:0.5;" width="240" x="1296" y="1183.5"/><ellipse cx="1311" cy="1199.5" fill="#ADD1B2" rx="11" ry="11" style="stroke:#181818;stroke-width:1.0;"/><path d="M1313.7656,1195.375 Q1313.9219,1195.1563 1314.1094,1195.0469 Q1314.2969,1194.9375 1314.5156,1194.9375 Q1314.8906,1194.9375 1315.125,1195.1953 Q1315.3594,1195.4531 1315.3594,1196.0625 L1315.3594,1197.5156 Q1315.3594,1198.125 1315.125,1198.3906 Q1314.8906,1198.6563 1314.5156,1198.6563 Q1314.1719,1198.6563 1313.9688,1198.4531 Q1313.7656,1198.2656 1313.6563,1197.75 Q1313.6094,1197.3906 1313.4219,1197.2031 Q1313.0938,1196.8281 1312.4844,1196.6094 Q1311.875,1196.3906 1311.25,1196.3906 Q1310.4844,1196.3906 1309.8516,1196.7188 Q1309.2188,1197.0469 1308.7266,1197.7969 Q1308.2344,1198.5469 1308.2344,1199.5781 L1308.2344,1200.6719 Q1308.2344,1201.9063 1309.125,1202.7266 Q1310.0156,1203.5469 1311.6094,1203.5469 Q1312.5469,1203.5469 1313.2031,1203.2969 Q1313.5938,1203.1406 1314.0156,1202.7031 Q1314.2813,1202.4375 1314.4297,1202.3594 Q1314.5781,1202.2813 1314.7813,1202.2813 Q1315.1094,1202.2813 1315.3672,1202.5391 Q1315.625,1202.7969 1315.625,1203.1406 Q1315.625,1203.4844 1315.2813,1203.8906 Q1314.7813,1204.4688 1313.9844,1204.7969 Q1312.9063,1205.25 1311.6094,1205.25 Q1310.0938,1205.25 1308.8906,1204.625 Q1307.9063,1204.125 1307.2188,1203.0547 Q1306.5313,1201.9844 1306.5313,1200.7031 L1306.5313,1199.5469 Q1306.5313,1198.2188 1307.1484,1197.0703 Q1307.7656,1195.9219 1308.8594,1195.3047 Q1309.9531,1194.6875 1311.1875,1194.6875 Q1311.9219,1194.6875 1312.5703,1194.8516 Q1313.2188,1195.0156 1313.7656,1195.375 Z " fill="#000000"/><text fill="#000000" font-family="sans-serif" font-size="14" lengthAdjust="spacing" textLength="208" x="1325" y="1205.2285">ModuleTestImplementationVisitor</text><line style="stroke:#181818;stroke-width:0.5;" x1="1297" x2="1535" y1="1215.5" y2="1215.5"/><line style="stroke:#181818;stroke-width:0.5;" x1="1297" x2="1535" y1="1223.5" y2="1223.5"/></g><!--MD5=[9e15ba1b556791f9a5e132f556090d3d]
class ModuleTestPrototypeVisitor--><g id="elem_ModuleTestPrototypeVisitor"><rect codeLine="157" fill="#F1F1F1" height="48" id="ModuleTestPrototypeVisitor" rx="2.5" ry="2.5" style="stroke:#181818;stroke-width:0.5;" width="206" x="1055" y="1183.5"/><ellipse cx="1070" cy="1199.5" fill="#ADD1B2" rx="11" ry="11" style="stroke:#181818;stroke-width:1.0;"/><path d="M1072.7656,1195.375 Q1072.9219,1195.1563 1073.1094,1195.0469 Q1073.2969,1194.9375 1073.5156,1194.9375 Q1073.8906,1194.9375 1074.125,1195.1953 Q1074.3594,1195.4531 1074.3594,1196.0625 L1074.3594,1197.5156 Q1074.3594,1198.125 1074.125,1198.3906 Q1073.8906,1198.6563 1073.5156,1198.6563 Q1073.1719,1198.6563 1072.9688,1198.4531 Q1072.7656,1198.2656 1072.6563,1197.75 Q1072.6094,1197.3906 1072.4219,1197.2031 Q1072.0938,1196.8281 1071.4844,1196.6094 Q1070.875,1196.3906 1070.25,1196.3906 Q1069.4844,1196.3906 1068.8516,1196.7188 Q1068.2188,1197.0469 1067.7266,1197.7969 Q1067.2344,1198.5469 1067.2344,1199.5781 L1067.2344,1200.6719 Q1067.2344,1201.9063 1068.125,1202.7266 Q1069.0156,1203.5469 1070.6094,1203.5469 Q1071.5469,1203.5469 1072.2031,1203.2969 Q1072.5938,1203.1406 1073.0156,1202.7031 Q1073.2813,1202.4375 1073.4297,1202.3594 Q1073.5781,1202.2813 1073.7813,1202.2813 Q1074.1094,1202.2813 1074.3672,1202.5391 Q1074.625,1202.7969 1074.625,1203.1406 Q1074.625,1203.4844 1074.2813,1203.8906 Q1073.7813,1204.4688 1072.9844,1204.7969 Q1071.9063,1205.25 1070.6094,1205.25 Q1069.0938,1205.25 1067.8906,1204.625 Q1066.9063,1204.125 1066.2188,1203.0547 Q1065.5313,1201.9844 1065.5313,1200.7031 L1065.5313,1199.5469 Q1065.5313,1198.2188 1066.1484,1197.0703 Q1066.7656,1195.9219 1067.8594,1195.3047 Q1068.9531,1194.6875 1070.1875,1194.6875 Q1070.9219,1194.6875 1071.5703,1194.8516 Q1072.2188,1195.0156 1072.7656,1195.375 Z " fill="#000000"/><text fill="#000000" font-family="sans-serif" font-size="14" lengthAdjust="spacing" textLength="174" x="1084" y="1205.2285">ModuleTestPrototypeVisitor</text><line style="stroke:#181818;stroke-width:0.5;" x1="1056" x2="1260" y1="1215.5" y2="1215.5"/><line style="stroke:#181818;stroke-width:0.5;" x1="1056" x2="1260" y1="1223.5" y2="1223.5"/></g><!--MD5=[69986abe7097f13a8446d297cd7961df]
class UnitTestCMakeListsGenerator--><g id="elem_UnitTestCMakeListsGenerator"><rect codeLine="159" fill="#F1F1F1" height="259.3125" id="UnitTestCMakeListsGenerator" rx="2.5" ry="2.5" style="stroke:#181818;stroke-width:0.5;" width="315" x="1365.5" y="810.5"/><ellipse cx="1423.75" cy="826.5" fill="#ADD1B2" rx="11" ry="11" style="stroke:#181818;stroke-width:1.0;"/><path d="M1426.5156,822.375 Q1426.6719,822.1563 1426.8594,822.0469 Q1427.0469,821.9375 1427.2656,821.9375 Q1427.6406,821.9375 1427.875,822.1953 Q1428.1094,822.4531 1428.1094,823.0625 L1428.1094,824.5156 Q1428.1094,825.125 1427.875,825.3906 Q1427.6406,825.6563 1427.2656,825.6563 Q1426.9219,825.6563 1426.7188,825.4531 Q1426.5156,825.2656 1426.4063,824.75 Q1426.3594,824.3906 1426.1719,824.2031 Q1425.8438,823.8281 1425.2344,823.6094 Q1424.625,823.3906 1424,823.3906 Q1423.2344,823.3906 1422.6016,823.7188 Q1421.9688,824.0469 1421.4766,824.7969 Q1420.9844,825.5469 1420.9844,826.5781 L1420.9844,827.6719 Q1420.9844,828.9063 1421.875,829.7266 Q1422.7656,830.5469 1424.3594,830.5469 Q1425.2969,830.5469 1425.9531,830.2969 Q1426.3438,830.1406 1426.7656,829.7031 Q1427.0313,829.4375 1427.1797,829.3594 Q1427.3281,829.2813 1427.5313,829.2813 Q1427.8594,829.2813 1428.1172,829.5391 Q1428.375,829.7969 1428.375,830.1406 Q1428.375,830.4844 1428.0313,830.8906 Q1427.5313,831.4688 1426.7344,831.7969 Q1425.6563,832.25 1424.3594,832.25 Q1422.8438,832.25 1421.6406,831.625 Q1420.6563,831.125 1419.9688,830.0547 Q1419.2813,828.9844 1419.2813,827.7031 L1419.2813,826.5469 Q1419.2813,825.2188 1419.8984,824.0703 Q1420.5156,822.9219 1421.6094,822.3047 Q1422.7031,821.6875 1423.9375,821.6875 Q1424.6719,821.6875 1425.3203,821.8516 Q1425.9688,822.0156 1426.5156,822.375 Z " fill="#000000"/><text fill="#000000" font-family="sans-serif" font-size="14" lengthAdjust="spacing" textLength="190" x="1444.25" y="832.2285">UnitTestCMakeListsGenerator</text><line style="stroke:#181818;stroke-width:0.5;" x1="1366.5" x2="1679.5" y1="842.5" y2="842.5"/><rect fill="none" height="6" style="stroke:#C82930;stroke-width:1.0;" width="6" x="1373.5" y="853.8047"/><text fill="#000000" font-family="sans-serif" font-size="14" lengthAdjust="spacing" textLength="52" x="1385.5" y="861.0332">path: str</text><rect fill="none" height="6" style="stroke:#C82930;stroke-width:1.0;" width="6" x="1373.5" y="871.4141"/><text fill="#000000" font-family="sans-serif" font-size="14" lengthAdjust="spacing" textLength="146" x="1385.5" y="878.6426">module_impl_name: str</text><rect fill="none" height="6" style="stroke:#C82930;stroke-width:1.0;" width="6" x="1373.5" y="889.0234"/><text fill="#000000" font-family="sans-serif" font-size="14" lengthAdjust="spacing" textLength="83" x="1385.5" y="896.252">language: str</text><line style="stroke:#181818;stroke-width:0.5;" x1="1366.5" x2="1679.5" y1="903.3281" y2="903.3281"/><rect fill="#F24D5C" height="6" style="stroke:#C82930;stroke-width:1.0;" width="6" x="1373.5" y="914.6328"/><text fill="#000000" font-family="sans-serif" font-size="14" lengthAdjust="spacing" textLength="144" x="1385.5" y="921.8613">generate_header(): str</text><rect fill="#F24D5C" height="6" style="stroke:#C82930;stroke-width:1.0;" width="6" x="1373.5" y="932.2422"/><text fill="#000000" font-family="sans-serif" font-size="14" lengthAdjust="spacing" textLength="225" x="1385.5" y="939.4707">generate_headers_directories(): str</text><rect fill="#F24D5C" height="6" style="stroke:#C82930;stroke-width:1.0;" width="6" x="1373.5" y="949.8516"/><text fill="#000000" font-family="sans-serif" font-size="14" lengthAdjust="spacing" textLength="135" x="1385.5" y="957.0801">generate_listing(): str</text><rect fill="#F24D5C" height="6" style="stroke:#C82930;stroke-width:1.0;" width="6" x="1373.5" y="967.4609"/><text fill="#000000" font-family="sans-serif" font-size="14" lengthAdjust="spacing" textLength="230" x="1385.5" y="974.6895">generate_include_local_cmake(): str</text><rect fill="#F24D5C" height="6" style="stroke:#C82930;stroke-width:1.0;" width="6" x="1373.5" y="985.0703"/><text fill="#000000" font-family="sans-serif" font-size="14" lengthAdjust="spacing" textLength="289" x="1385.5" y="992.2988">generate_add_executable_and_libraries(): str</text><rect fill="#F24D5C" height="6" style="stroke:#C82930;stroke-width:1.0;" width="6" x="1373.5" y="1002.6797"/><text fill="#000000" font-family="sans-serif" font-size="14" lengthAdjust="spacing" textLength="206" x="1385.5" y="1009.9082">generate_compiler_options(): str</text><rect fill="#F24D5C" height="6" style="stroke:#C82930;stroke-width:1.0;" width="6" x="1373.5" y="1020.2891"/><text fill="#000000" font-family="sans-serif" font-size="14" lengthAdjust="spacing" textLength="263" x="1385.5" y="1027.5176">generate_target_include_directories(): str</text><rect fill="#F24D5C" height="6" style="stroke:#C82930;stroke-width:1.0;" width="6" x="1373.5" y="1037.8984"/><text fill="#000000" font-family="sans-serif" font-size="14" lengthAdjust="spacing" textLength="223" x="1385.5" y="1045.127">generate_target_link_libraries(): str</text><ellipse cx="1376.5" cy="1058.5078" fill="#84BE84" rx="3" ry="3" style="stroke:#038048;stroke-width:1.0;"/><text fill="#000000" font-family="sans-serif" font-size="14" lengthAdjust="spacing" textLength="67" x="1385.5" y="1062.7363">generate()</text></g><!--MD5=[c29d6c12fa6fe24e25aa56127501929d]
reverse link ECOAModel to Main--><g id="link_ECOAModel_Main"><path codeLine="189" d="M1286.57,113.15 C1274.77,151.51 1256.28,211.6 1243.23,253.99 " fill="none" id="ECOAModel-backto-Main" style="stroke:#181818;stroke-width:1.0;stroke-dasharray:7.0,7.0;"/><polygon fill="#181818" points="1288.12,108.11,1281.6454,115.5316,1286.6466,112.888,1289.2902,117.8891,1288.12,108.11" style="stroke:#181818;stroke-width:1.0;"/><text fill="#000000" font-family="sans-serif" font-size="13" lengthAdjust="spacing" textLength="40" x="1278" y="154.4951">parse()</text></g><!--MD5=[eba7b22d303027d9ddedd9e4b3781c8b]
reverse link TypesGenerator to Main--><g id="link_TypesGenerator_Main"><path codeLine="190" d="M1136.57,112.68 C1154.94,151.02 1183.89,211.43 1204.28,253.99 " fill="none" id="TypesGenerator-backto-Main" style="stroke:#181818;stroke-width:1.0;stroke-dasharray:7.0,7.0;"/><polygon fill="#181818" points="1134.39,108.11,1134.6734,117.9548,1136.5513,112.6187,1141.8874,114.4967,1134.39,108.11" style="stroke:#181818;stroke-width:1.0;"/><text fill="#000000" font-family="sans-serif" font-size="13" lengthAdjust="spacing" textLength="58" x="1158" y="154.4951">generate()</text></g><!--MD5=[e54c36c7afecf577f5f955c5b49e05a1]
link Main to ComponentGenerator--><g id="link_Main_ComponentGenerator"><path codeLine="191" d="M1253.95,355.29 C1271.41,388.79 1294.83,433.72 1314.93,472.28 " fill="none" id="Main-to-ComponentGenerator" style="stroke:#181818;stroke-width:1.0;stroke-dasharray:7.0,7.0;"/><polygon fill="#181818" points="1317.36,476.95,1316.7367,467.1209,1315.0442,472.5186,1309.6465,470.8261,1317.36,476.95" style="stroke:#181818;stroke-width:1.0;"/><text fill="#000000" font-family="sans-serif" font-size="13" lengthAdjust="spacing" textLength="58" x="1301" y="443.4951">generate()</text></g><!--MD5=[f5766c03b5b184d6c13432759ec7e88a]
link Templates to ComponentGenerator--><g id="link_Templates_ComponentGenerator"><path codeLine="192" d="M1437.23,399.07 C1425.97,420.67 1414.03,443.57 1402.9,464.93 " fill="none" id="Templates-to-ComponentGenerator" style="stroke:#181818;stroke-width:1.0;"/><polygon fill="none" points="1396.81,476.61,1403.1316,473.1405,1402.3603,465.9707,1396.0388,469.4403,1396.81,476.61" style="stroke:#181818;stroke-width:1.0;"/></g><!--MD5=[2977f97416eadc7930e2d0a3acede539]
link ComponentGenerator to ContainerInterfaceGenerator--><g id="link_ComponentGenerator_ContainerInterfaceGenerator"><path codeLine="193" d="M1258.76,557.9 C1040.13,565.97 521.26,594.58 376,687 C319.45,722.98 278.78,786.6 252.33,840.91 " fill="none" id="ComponentGenerator-to-ContainerInterfaceGenerator" style="stroke:#181818;stroke-width:1.0;stroke-dasharray:7.0,7.0;"/><polygon fill="#181818" points="250.13,845.47,257.6438,839.1027,252.3029,840.9669,250.4388,835.626,250.13,845.47" style="stroke:#181818;stroke-width:1.0;"/><text fill="#000000" font-family="sans-serif" font-size="13" lengthAdjust="spacing" textLength="58" x="416" y="675.4951">generate()</text></g><!--MD5=[c4ab169c45d5722c750bd94514871348]
reverse link ContainerInterfaceGenerator to ContainerGenerator--><g id="link_ContainerInterfaceGenerator_ContainerGenerator"><path codeLine="194" d="M308.62,1043.93 C329.95,1065.07 353.08,1086.49 376,1105 C514.98,1217.25 547.11,1259.94 715,1321 C908.02,1391.2 1152.64,1403.96 1276.45,1405.53 " fill="none" id="ContainerInterfaceGenerator-backto-ContainerGenerator" style="stroke:#181818;stroke-width:1.0;"/><polygon fill="none" points="299.28,1034.58,300.6887,1041.6522,307.7587,1043.0719,306.35,1035.9997,299.28,1034.58" style="stroke:#181818;stroke-width:1.0;"/></g><!--MD5=[6e84111121b47e5dcee3ce01fcc6aa47]
reverse link ContainerInterfaceGenerator to ContainerVisitor--><g id="link_ContainerInterfaceGenerator_ContainerVisitor"><path codeLine="195" d="M292.89,1044.46 C316.79,1068.57 345.01,1091.21 376,1105 C510.23,1164.76 1587.47,1068.05 1697,1166 C1758.85,1221.31 1747.89,1333.53 1739.64,1381.93 " fill="none" id="ContainerInterfaceGenerator-backto-ContainerVisitor" style="stroke:#181818;stroke-width:1.0;"/><polygon fill="none" points="283.61,1034.8,284.881,1041.8982,291.922,1043.4551,290.651,1036.3569,283.61,1034.8" style="stroke:#181818;stroke-width:1.0;"/></g><!--MD5=[d2a85435967a6a8cf4568878ef9a13f5]
link ContainerGenerator to ContainerVisitor--><g id="link_ContainerGenerator_ContainerVisitor"><path codeLine="196" d="M1435.58,1406 C1508.77,1406 1581.96,1406 1655.15,1406 " fill="none" id="ContainerGenerator-to-ContainerVisitor" style="stroke:#181818;stroke-width:1.0;"/><polygon fill="none" points="1668.33,1406,1662.33,1402,1656.33,1406,1662.33,1410,1668.33,1406" style="stroke:#181818;stroke-width:1.0;"/></g><!--MD5=[c7086dee6f6a4aca068cb0924c7eb2cb]
link ComponentGenerator to ContainerTypesGenerator--><g id="link_ComponentGenerator_ContainerTypesGenerator"><path codeLine="197" d="M1258.85,566.33 C1102.06,585.89 803.73,629.46 715,687 C657.31,724.42 612.14,787.18 581.36,840.71 " fill="none" id="ComponentGenerator-to-ContainerTypesGenerator" style="stroke:#181818;stroke-width:1.0;stroke-dasharray:7.0,7.0;"/><polygon fill="#181818" points="578.8,845.2,586.7423,839.376,581.2838,840.8605,579.7992,835.402,578.8,845.2" style="stroke:#181818;stroke-width:1.0;"/><text fill="#000000" font-family="sans-serif" font-size="13" lengthAdjust="spacing" textLength="58" x="763" y="675.4951">generate()</text></g><!--MD5=[2e5b71e2868d70037d553f8432d525a9]
link ComponentGenerator to ModuleInterfaceGenerator--><g id="link_ComponentGenerator_ModuleInterfaceGenerator"><path codeLine="198" d="M1455.11,574.03 C1528.68,592.48 1628.12,626.77 1697,687 C1746.65,730.42 1782.06,796.07 1804.71,849.48 " fill="none" id="ComponentGenerator-to-ModuleInterfaceGenerator" style="stroke:#181818;stroke-width:1.0;stroke-dasharray:7.0,7.0;"/><polygon fill="#181818" points="1806.73,854.28,1806.9391,844.4334,1804.7968,849.6689,1799.5613,847.5265,1806.73,854.28" style="stroke:#181818;stroke-width:1.0;"/><text fill="#000000" font-family="sans-serif" font-size="13" lengthAdjust="spacing" textLength="58" x="1682" y="675.4951">generate()</text></g><!--MD5=[d51effd5d9680af4da916bfd4726906d]
reverse link ModuleInterfaceGenerator to ModuleGenerator--><g id="link_ModuleInterfaceGenerator_ModuleGenerator"><path codeLine="199" d="M1858.94,1038.26 C1868.16,1070.21 1880.18,1105.36 1895,1136 C1942.69,1234.56 2024.39,1337 2061.99,1381.75 " fill="none" id="ModuleInterfaceGenerator-backto-ModuleGenerator" style="stroke:#181818;stroke-width:1.0;"/><polygon fill="none" points="1855.41,1025.72,1853.1884,1032.5804,1858.6666,1037.2697,1860.8882,1030.4093,1855.41,1025.72" style="stroke:#181818;stroke-width:1.0;"/></g><!--MD5=[7b8b0cc0109e302377cc9fbaf0bee502]
reverse link ModuleInterfaceGenerator to ModuleVisitor--><g id="link_ModuleInterfaceGenerator_ModuleVisitor"><path codeLine="200" d="M1874.07,1037.94 C1884.28,1068.5 1893.89,1102.72 1899,1135 C1913.29,1225.29 1903.49,1334.69 1898.01,1381.7 " fill="none" id="ModuleInterfaceGenerator-backto-ModuleVisitor" style="stroke:#181818;stroke-width:1.0;"/><polygon fill="none" points="1869.83,1025.53,1867.9835,1032.5007,1873.7077,1036.8862,1875.5543,1029.9155,1869.83,1025.53" style="stroke:#181818;stroke-width:1.0;"/></g><!--MD5=[c107a502c474ef00b69184c26910b034]
reverse link ModuleVisitor to ModuleGenerator--><g id="link_ModuleVisitor_ModuleGenerator"><path codeLine="201" d="M1967.07,1423.05 C1981.51,1424.33 1995.95,1424.32 2010.39,1423.01 " fill="none" id="ModuleVisitor-backto-ModuleGenerator" style="stroke:#181818;stroke-width:1.0;"/><polygon fill="none" points="1953.8,1421.52,1959.2984,1426.1855,1965.7199,1422.9045,1960.2214,1418.239,1953.8,1421.52" style="stroke:#181818;stroke-width:1.0;"/></g><!--MD5=[2fc6541fd371cf62066091e89b79fa01]
link ModuleVisitor to ModuleGenerator--><!--MD5=[2b26a764fa8929c201fdaba975732274]
link ComponentGenerator to ModuleSourceGenerator--><g id="link_ComponentGenerator_ModuleSourceGenerator"><path codeLine="202" d="M1455.14,566.05 C1603.96,584.53 1877.41,625.83 1953,687 C2003.08,727.52 2032.24,794.64 2048.66,849.42 " fill="none" id="ComponentGenerator-to-ModuleSourceGenerator" style="stroke:#181818;stroke-width:1.0;stroke-dasharray:7.0,7.0;"/><polygon fill="#181818" points="2050.11,854.34,2051.3953,844.5754,2048.693,849.545,2043.7233,846.8426,2050.11,854.34" style="stroke:#181818;stroke-width:1.0;"/><text fill="#000000" font-family="sans-serif" font-size="13" lengthAdjust="spacing" textLength="58" x="1939" y="675.4951">generate()</text></g><!--MD5=[02dab09ef5f81e6ac614e84889747192]
reverse link ModuleSourceGenerator to ModuleGenerator--><g id="link_ModuleSourceGenerator_ModuleGenerator"><path codeLine="203" d="M2070.95,1038.67 C2074.27,1148.69 2079.44,1320.21 2081.3,1381.92 " fill="none" id="ModuleSourceGenerator-backto-ModuleGenerator" style="stroke:#181818;stroke-width:1.0;"/><polygon fill="none" points="2070.55,1025.57,2066.7366,1031.6903,2070.9195,1037.5643,2074.7328,1031.444,2070.55,1025.57" style="stroke:#181818;stroke-width:1.0;"/></g><!--MD5=[4764cf34c60294e68f409d7398ed04e4]
reverse link ModuleSourceGenerator to ModuleVisitor--><g id="link_ModuleSourceGenerator_ModuleVisitor"><path codeLine="204" d="M2035.09,1038.25 C2007.82,1117.36 1967.29,1231.61 1928,1330 C1920.98,1347.57 1912.35,1367.13 1905.67,1381.86 " fill="none" id="ModuleSourceGenerator-backto-ModuleVisitor" style="stroke:#181818;stroke-width:1.0;"/><polygon fill="none" points="2039.35,1025.86,2033.6166,1030.2336,2035.4487,1037.2081,2041.182,1032.8345,2039.35,1025.86" style="stroke:#181818;stroke-width:1.0;"/></g><!--MD5=[2980d9d01fc274eaf70f6f53c23c0c6b]
link ComponentGenerator to ModuleUserGenerator--><g id="link_ComponentGenerator_ModuleUserGenerator"><path codeLine="205" d="M1455.08,558.83 C1649.07,568.28 2072.65,598.68 2184,687 C2239.18,730.76 2265.02,808.95 2276.98,866.67 " fill="none" id="ComponentGenerator-to-ModuleUserGenerator" style="stroke:#181818;stroke-width:1.0;stroke-dasharray:7.0,7.0;"/><polygon fill="#181818" points="2278.02,871.84,2280.1665,862.2279,2277.0339,866.9382,2272.3236,863.8056,2278.02,871.84" style="stroke:#181818;stroke-width:1.0;"/><text fill="#000000" font-family="sans-serif" font-size="13" lengthAdjust="spacing" textLength="58" x="2165" y="675.4951">generate()</text></g><!--MD5=[c8df4dc08768586b36acd69382017d2a]
link ComponentGenerator to UnitTestContainerMockGenerator--><g id="link_ComponentGenerator_UnitTestContainerMockGenerator"><path codeLine="206" d="M1258.95,578.02 C1190.2,597.97 1099.29,632.4 1034,687 C981.51,730.9 940.6,796.55 913.29,849.84 " fill="none" id="ComponentGenerator-to-UnitTestContainerMockGenerator" style="stroke:#181818;stroke-width:1.0;stroke-dasharray:7.0,7.0;"/><polygon fill="#181818" points="911.02,854.3,918.6704,848.0974,913.2903,849.8451,911.5426,844.465,911.02,854.3" style="stroke:#181818;stroke-width:1.0;"/><text fill="#000000" font-family="sans-serif" font-size="13" lengthAdjust="spacing" textLength="58" x="1065" y="675.4951">generate()</text></g><!--MD5=[23d519176f40af6cc411ffbde1a128df]
reverse link UnitTestContainerMockGenerator to ContainerGenerator--><g id="link_UnitTestContainerMockGenerator_ContainerGenerator"><path codeLine="207" d="M943.09,1035.51 C968.38,1062.9 999.39,1089.56 1034,1105 C1107.43,1137.76 1701.34,1076.98 1757,1135 C1869.57,1252.34 1582.06,1346.72 1435.57,1385.68 " fill="none" id="UnitTestContainerMockGenerator-backto-ContainerGenerator" style="stroke:#181818;stroke-width:1.0;"/><polygon fill="none" points="934.38,1025.81,935.4072,1032.9476,942.3908,1034.7446,941.3636,1027.607,934.38,1025.81" style="stroke:#181818;stroke-width:1.0;"/></g><!--MD5=[8be92a4a5c556496cf764b73a4fe28d8]
reverse link UnitTestContainerMockGenerator to ContainerMockVisitor--><g id="link_UnitTestContainerMockGenerator_ContainerMockVisitor"><path codeLine="208" d="M886.16,1038.86 C891.62,1082.77 897.76,1132.17 901.95,1165.9 " fill="none" id="UnitTestContainerMockGenerator-backto-ContainerMockVisitor" style="stroke:#181818;stroke-width:1.0;"/><polygon fill="none" points="884.53,1025.74,881.2989,1032.1867,886.0071,1037.6487,889.2381,1031.202,884.53,1025.74" style="stroke:#181818;stroke-width:1.0;"/></g><!--MD5=[472e43aa44814a87da79c5602215b4b1]
reverse link ContainerMockVisitor to ContainerGenerator--><g id="link_ContainerMockVisitor_ContainerGenerator"><path codeLine="209" d="M954.37,1258.41 C977.69,1280.42 1007.35,1304.89 1038,1321 C1113.69,1360.78 1209.64,1382.77 1276.25,1394.16 " fill="none" id="ContainerMockVisitor-backto-ContainerGenerator" style="stroke:#181818;stroke-width:1.0;"/><polygon fill="none" points="944.78,1249.16,946.3203,1256.2047,953.4155,1257.4923,951.8752,1250.4476,944.78,1249.16" style="stroke:#181818;stroke-width:1.0;"/></g><!--MD5=[fea876e3b881d6d177212cd2b1bbc448]
link ComponentGenerator to UnitTestMainGenerator--><g id="link_ComponentGenerator_UnitTestMainGenerator"><path codeLine="210" d="M1324.01,631.33 C1306.78,671.16 1284.99,721.59 1264.05,770.03 " fill="none" id="ComponentGenerator-to-UnitTestMainGenerator" style="stroke:#181818;stroke-width:1.0;stroke-dasharray:7.0,7.0;"/><polygon fill="#181818" points="1262.02,774.71,1269.2494,768.0215,1263.9948,770.1165,1261.8998,764.8619,1262.02,774.71" style="stroke:#181818;stroke-width:1.0;"/><text fill="#000000" font-family="sans-serif" font-size="13" lengthAdjust="spacing" textLength="58" x="1308" y="675.4951">generate()</text></g><!--MD5=[62b9727dba1c09946eef258c3bbcf7d6]
reverse link UnitTestMainGenerator to ModuleTestImplementationVisitor--><g id="link_UnitTestMainGenerator_ModuleTestImplementationVisitor"><path codeLine="211" d="M1338.77,1115.37 C1361.53,1142.22 1382.14,1166.55 1396.34,1183.3 " fill="none" id="UnitTestMainGenerator-backto-ModuleTestImplementationVisitor" style="stroke:#181818;stroke-width:1.0;"/><polygon fill="none" points="1330.3,1105.37,1331.1327,1112.5329,1338.0649,1114.5191,1337.2322,1107.3563,1330.3,1105.37" style="stroke:#181818;stroke-width:1.0;"/></g><!--MD5=[772d189a6d82a76f115d92298e6a7e62]
reverse link UnitTestMainGenerator to ModuleTestPrototypeVisitor--><g id="link_UnitTestMainGenerator_ModuleTestPrototypeVisitor"><path codeLine="212" d="M1168.93,1118.54 C1165.75,1144.13 1162.88,1167.21 1160.88,1183.3 " fill="none" id="UnitTestMainGenerator-backto-ModuleTestPrototypeVisitor" style="stroke:#181818;stroke-width:1.0;"/><polygon fill="none" points="1170.57,1105.37,1165.8619,1110.832,1169.0929,1117.2787,1173.8011,1111.8167,1170.57,1105.37" style="stroke:#181818;stroke-width:1.0;"/></g><!--MD5=[2cfad0a962471262593c8aa6e05bb14e]
link ComponentGenerator to UnitTestCMakeListsGenerator--><g id="link_ComponentGenerator_UnitTestCMakeListsGenerator"><path codeLine="213" d="M1389.99,631.33 C1411.47,681 1440.06,747.15 1465.23,805.37 " fill="none" id="ComponentGenerator-to-UnitTestCMakeListsGenerator" style="stroke:#181818;stroke-width:1.0;stroke-dasharray:7.0,7.0;"/><polygon fill="#181818" points="1467.35,810.27,1467.4443,800.4216,1465.3632,805.6817,1460.1031,803.6005,1467.35,810.27" style="stroke:#181818;stroke-width:1.0;"/><text fill="#000000" font-family="sans-serif" font-size="13" lengthAdjust="spacing" textLength="58" x="1407" y="675.4951">generate()</text></g><!--MD5=[d4d8b596bb9b57667949a688e3927519]
@startuml

skinparam packageStyle folder

package ecoa_toolset.generators.types {

class TypesGenerator {
    + generate()
}

}

package ecoa_toolset.generators.module {

class ModuleGenerator

}

package ecoa_toolset.generators.container {

class ContainerGenerator

}

package ecoa_toolset.models {

class ECOAModel {
    + parse()
}

}

package ecoa_toolset.visitors {

class ContainerVisitor

class ModuleVisitor

}

package mscigt {

class Main <<(M,#FF7700)>> {
    - generate_module_implementations()
    - create_argument_parser()
    + main()
}

class Templates {
    - path: str
    - user: Dict[str, List]
    - default: List
    - open_user_template()
    - open_user_templates()
    - create_default_template()
    - replace_tags()
    + generate()
}

package component {

package container {

class ContainerInterfaceGenerator {
    - ecoa_model: ECOAModel
    - path: str
    - component_impl_name: str
    - module_impl_name: str
    - language: str
    - generate_module_context_structure(): str
    - templates: Templates
    + generate()
}

class ContainerTypesGenerator {
    - ecoa_model: ECOAModel
    - path: str
    - component_impl_name: str
    - module_impl_name: str
    - language: str
    - generate_versioned_data_handles(): str
    - templates: Templates
    + generate()
}

}

package module {

class ModuleInterfaceGenerator {
    - ecoa_model: ECOAModel
    - path: str
    - component_impl_name: str
    - module_impl_name: str
    - language: str
    - templates: Templates
    + generate()
}

class ModuleSourceGenerator {
    - ecoa_model: ECOAModel
    - path: str
    - component_impl_name: str
    - module_impl_name: str
    - language: str
    - templates: Templates
    + generate()
}

class ModuleUserGenerator {
    - path: str
    - module_impl_name: str
    - language: str
    - templates: Templates
    + generate()
}

}

package unit_test {

class UnitTestContainerMockGenerator {
    - ecoa_model: ECOAModel
    - path: str
    - templates: Templates
    - generate_recovery_action(): str
    - generate_save_warm_start_context(): str
    - generate_container_mock(): str
    + generate()
}

class ContainerMockVisitor {
    - ecoa_model: ECOAModel
    - path: str
}

class UnitTestMainGenerator {
    - ecoa_model: ECOAModel
    - path: str
    - component_impl_name: str
    - module_impl_name: str
    - language: str
    - templates: Templates
    - generate_module_fault_handler_test()
    - generate_standard_includes()
    - generate_module_includes()
    - generate_externs()
    - generate_utilities_variables()
    - generate_unit_test_utilities_function()
    - generate_ecoa_lifecycle_function_test()
    - generate_all_test()
    - generate_main_function()
    + generate()
}

class ModuleTestImplementationVisitor

class ModuleTestPrototypeVisitor

class UnitTestCMakeListsGenerator {
    - path: str
    - module_impl_name: str
    - language: str
    - generate_header(): str
    - generate_headers_directories(): str
    - generate_listing(): str
    - generate_include_local_cmake(): str
    - generate_add_executable_and_libraries(): str
    - generate_compiler_options(): str
    - generate_target_include_directories(): str
    - generate_target_link_libraries(): str
    + generate()
}

}

}

class ComponentGenerator {
    - ecoa_model: ECOAModel
    - path: str
    - component_impl_name: str
    - module_impl_name: str
    - force: bool
    + generate()
}

}

Main .u.> ECOAModel: parse()
Main .u.> TypesGenerator: generate()
Main .d.> ComponentGenerator: generate()
ComponentGenerator o-u- Templates
ComponentGenerator ..> ContainerInterfaceGenerator: generate()
ContainerInterfaceGenerator o- - ContainerGenerator
ContainerInterfaceGenerator o- - ContainerVisitor
ContainerVisitor o-l- ContainerGenerator
ComponentGenerator ..> ContainerTypesGenerator: generate()
ComponentGenerator ..> ModuleInterfaceGenerator: generate()
ModuleInterfaceGenerator o- - ModuleGenerator
ModuleInterfaceGenerator o- - ModuleVisitor
ModuleVisitor o- - ModuleGenerator
ComponentGenerator ..> ModuleSourceGenerator: generate()
ModuleSourceGenerator o- - ModuleGenerator
ModuleSourceGenerator o- - ModuleVisitor
ComponentGenerator ..> ModuleUserGenerator: generate()
ComponentGenerator ..> UnitTestContainerMockGenerator: generate()
UnitTestContainerMockGenerator o- - ContainerGenerator
UnitTestContainerMockGenerator o- - ContainerMockVisitor
ContainerMockVisitor o- - ContainerGenerator
ComponentGenerator ..> UnitTestMainGenerator: generate()
UnitTestMainGenerator o- - ModuleTestImplementationVisitor
UnitTestMainGenerator o- - ModuleTestPrototypeVisitor
ComponentGenerator ..> UnitTestCMakeListsGenerator: generate()
ModuleVisitor -[hidden] ModuleGenerator

@enduml

PlantUML version 1.2022.7(Mon Aug 22 19:01:30 CEST 2022)
(GPL source distribution)
Java Runtime: Java(TM) SE Runtime Environment
JVM: Java HotSpot(TM) 64-Bit Server VM
Default Encoding: Cp1252
Language: fr
Country: FR
--></g></svg>