<?xml version="1.0" encoding="UTF-8" standalone="no"?>
<!DOCTYPE svg PUBLIC "-//W3C//DTD SVG 1.1//EN"
 "http://www.w3.org/Graphics/SVG/1.1/DTD/svg11.dtd">
<!-- Generated by graphviz version 2.30.1 (20201013.1554)
 -->
<!-- Title: classes_ecoa_genplatform Pages: 1 -->
<svg width="4834pt" height="966pt"
 viewBox="0.00 0.00 4834.23 966.00" xmlns="http://www.w3.org/2000/svg" xmlns:xlink="http://www.w3.org/1999/xlink">
<g id="graph0" class="graph" transform="scale(1 1) rotate(0) translate(4 962)">
<title>classes_ecoa_genplatform</title>
<polygon fill="white" stroke="white" points="-4,5 -4,-962 4831.23,-962 4831.23,5 -4,5"/>
<!-- collections.OrderedDict -->
<g id="node1" class="node"><title>collections.OrderedDict</title>
<polygon fill="none" stroke="black" points="1442.73,-0.5 1442.73,-55.5 1631.73,-55.5 1631.73,-0.5 1442.73,-0.5"/>
<text text-anchor="start" x="1451.23" y="-41.3" font-family="Times,serif" font-size="14.00">collections.OrderedDict</text>
<polyline fill="none" stroke="black" points="1442.73,-32.5 1631.73,-32.5 "/>
<polyline fill="none" stroke="black" points="1442.73,-23.5 1631.73,-23.5 "/>
<text text-anchor="start" x="1454.73" y="-9.3" font-family="Times,serif" font-style="italic" font-size="14.00">move_to_end</text>
<text text-anchor="start" x="1548.73" y="-9.3" font-family="Times,serif" font-size="14.00">(key, last)</text>
</g>
<!-- ecoa.ecoa_global_config.ECOA_Global_Config -->
<g id="node2" class="node"><title>ecoa.ecoa_global_config.ECOA_Global_Config</title>
<polygon fill="none" stroke="black" points="1174.73,-468.5 1174.73,-957.5 1525.73,-957.5 1525.73,-468.5 1174.73,-468.5"/>
<text text-anchor="start" x="1184.73" y="-943.3" font-family="Times,serif" font-size="14.00">ecoa.ecoa_global_config.ECOA_Global_Config</text>
<polyline fill="none" stroke="black" points="1174.73,-934.5 1525.73,-934.5 "/>
<text text-anchor="start" x="1212.73" y="-920.3" font-family="Times,serif" font-size="14.00">ECOAProject</text>
<text text-anchor="start" x="1212.73" y="-906.3" font-family="Times,serif" font-size="14.00">IDs</text>
<text text-anchor="start" x="1212.73" y="-892.3" font-family="Times,serif" font-size="14.00">PF_output_dir</text>
<text text-anchor="start" x="1212.73" y="-878.3" font-family="Times,serif" font-size="14.00">component_implementations</text>
<text text-anchor="start" x="1212.73" y="-864.3" font-family="Times,serif" font-size="14.00">component_types</text>
<text text-anchor="start" x="1212.73" y="-850.3" font-family="Times,serif" font-size="14.00">cross_PF_view : NoneType</text>
<text text-anchor="start" x="1212.73" y="-836.3" font-family="Times,serif" font-size="14.00">current_PF_name : str</text>
<text text-anchor="start" x="1212.73" y="-822.3" font-family="Times,serif" font-size="14.00">deployment : NoneType</text>
<text text-anchor="start" x="1212.73" y="-808.3" font-family="Times,serif" font-size="14.00">final_assembly_composite : NoneType</text>
<text text-anchor="start" x="1212.73" y="-794.3" font-family="Times,serif" font-size="14.00">fine_grain_deployment : NoneType</text>
<text text-anchor="start" x="1212.73" y="-780.3" font-family="Times,serif" font-size="14.00">instance_index : int</text>
<text text-anchor="start" x="1212.73" y="-766.3" font-family="Times,serif" font-size="14.00">integration_directory</text>
<text text-anchor="start" x="1212.73" y="-752.3" font-family="Times,serif" font-size="14.00">ip_address_deployment : NoneType</text>
<text text-anchor="start" x="1212.73" y="-738.3" font-family="Times,serif" font-size="14.00">ip_address_directory</text>
<text text-anchor="start" x="1212.73" y="-724.3" font-family="Times,serif" font-size="14.00">libraries</text>
<text text-anchor="start" x="1212.73" y="-710.3" font-family="Times,serif" font-size="14.00">logical_system : NoneType, bool</text>
<text text-anchor="start" x="1212.73" y="-696.3" font-family="Times,serif" font-size="14.00">nodes_deployment : NoneType</text>
<text text-anchor="start" x="1212.73" y="-682.3" font-family="Times,serif" font-size="14.00">nodes_directory</text>
<text text-anchor="start" x="1212.73" y="-668.3" font-family="Times,serif" font-size="14.00">platform_composites</text>
<text text-anchor="start" x="1212.73" y="-654.3" font-family="Times,serif" font-size="14.00">platform_config_file</text>
<text text-anchor="start" x="1212.73" y="-640.3" font-family="Times,serif" font-size="14.00">service_definitions</text>
<text text-anchor="start" x="1212.73" y="-626.3" font-family="Times,serif" font-size="14.00">types_output_dir</text>
<text text-anchor="start" x="1212.73" y="-612.3" font-family="Times,serif" font-size="14.00">upper_composite : NoneType</text>
<text text-anchor="start" x="1212.73" y="-598.3" font-family="Times,serif" font-size="14.00">validation_level : int</text>
<text text-anchor="start" x="1212.73" y="-584.3" font-family="Times,serif" font-size="14.00">working_directory</text>
<polyline fill="none" stroke="black" points="1174.73,-575.5 1525.73,-575.5 "/>
<text text-anchor="start" x="1182.73" y="-561.3" font-family="Times,serif" font-size="14.00">build_model(generate_ids_file)</text>
<text text-anchor="start" x="1182.73" y="-547.3" font-family="Times,serif" font-size="14.00">do_external_validation(checker, project)</text>
<text text-anchor="start" x="1182.73" y="-533.3" font-family="Times,serif" font-size="14.00">do_parsing(xsd_directory)</text>
<text text-anchor="start" x="1182.73" y="-519.3" font-family="Times,serif" font-size="14.00">do_validation(xsd_directory, generate_ids_file)</text>
<text text-anchor="start" x="1182.73" y="-505.3" font-family="Times,serif" font-size="14.00">end()</text>
<text text-anchor="start" x="1182.73" y="-491.3" font-family="Times,serif" font-size="14.00">parse_output(output, xsd_directory)</text>
<text text-anchor="start" x="1182.73" y="-477.3" font-family="Times,serif" font-size="14.00">set_instance_index(new_index)</text>
</g>
<!-- collections.OrderedDict&#45;&gt;ecoa.ecoa_global_config.ECOA_Global_Config -->
<g id="edge2" class="edge"><title>collections.OrderedDict&#45;&gt;ecoa.ecoa_global_config.ECOA_Global_Config</title>
<path fill="none" stroke="black" d="M1442.47,-29.6925C1146.31,-32.1803 250.228,-42.2711 123.229,-74 90.0606,-82.2866 72.2866,-78.9707 54.2287,-108 -18.0762,-224.235 -18.0762,-299.765 54.2287,-416 170.394,-602.743 831.872,-675.49 1162.35,-700.475"/>
<polygon fill="black" stroke="black" points="1162.48,-700.485 1168.77,-696.943 1174.45,-701.38 1168.17,-704.921 1162.48,-700.485"/>
<text text-anchor="middle" x="84.7287" y="-258.3" font-family="Times,serif" font-size="14.00" fill="green">libraries</text>
</g>
<!-- collections.OrderedDict&#45;&gt;ecoa.ecoa_global_config.ECOA_Global_Config -->
<g id="edge3" class="edge"><title>collections.OrderedDict&#45;&gt;ecoa.ecoa_global_config.ECOA_Global_Config</title>
<path fill="none" stroke="black" d="M1442.67,-29.8228C1191.06,-32.4243 509.189,-42.2756 286.229,-74 224.972,-82.716 189.264,-59.1977 151.229,-108 109.154,-161.985 109.154,-362.015 151.229,-416 274.425,-574.07 857.054,-659.124 1162.44,-693.509"/>
<polygon fill="black" stroke="black" points="1162.6,-693.527 1169.01,-690.219 1174.53,-694.86 1168.12,-698.169 1162.6,-693.527"/>
<text text-anchor="middle" x="214.729" y="-258.3" font-family="Times,serif" font-size="14.00" fill="green">component_types</text>
</g>
<!-- collections.OrderedDict&#45;&gt;ecoa.ecoa_global_config.ECOA_Global_Config -->
<g id="edge4" class="edge"><title>collections.OrderedDict&#45;&gt;ecoa.ecoa_global_config.ECOA_Global_Config</title>
<path fill="none" stroke="black" d="M1442.53,-31.4556C1161.71,-39.2134 350.781,-65.244 314.229,-108 269.753,-160.024 273.012,-361.357 314.229,-416 416.275,-551.286 892.806,-643.343 1162.63,-685.596"/>
<polygon fill="black" stroke="black" points="1162.67,-685.602 1169.21,-682.572 1174.53,-687.447 1167.98,-690.477 1162.67,-685.602"/>
<text text-anchor="middle" x="418.229" y="-258.3" font-family="Times,serif" font-size="14.00" fill="green">component_implementations</text>
</g>
<!-- collections.OrderedDict&#45;&gt;ecoa.ecoa_global_config.ECOA_Global_Config -->
<g id="edge5" class="edge"><title>collections.OrderedDict&#45;&gt;ecoa.ecoa_global_config.ECOA_Global_Config</title>
<path fill="none" stroke="black" d="M1442.6,-28.9977C1207.62,-30.0373 612.46,-39.4726 558.229,-108 515.754,-161.671 519.212,-359.765 558.229,-416 693.602,-611.113 974.174,-677.833 1162.36,-700.516"/>
<polygon fill="black" stroke="black" points="1162.42,-700.523 1168.85,-697.246 1174.34,-701.916 1167.92,-705.192 1162.42,-700.523"/>
<text text-anchor="middle" x="626.229" y="-258.3" font-family="Times,serif" font-size="14.00" fill="green">service_definitions</text>
</g>
<!-- collections.OrderedDict&#45;&gt;ecoa.ecoa_global_config.ECOA_Global_Config -->
<g id="edge6" class="edge"><title>collections.OrderedDict&#45;&gt;ecoa.ecoa_global_config.ECOA_Global_Config</title>
<path fill="none" stroke="black" d="M1442.45,-30.673C1249.36,-34.6363 823.507,-46.4133 763.229,-74 744.08,-82.7633 738.142,-88.485 730.229,-108 704.509,-171.428 704.509,-352.572 730.229,-416 738.142,-435.515 745.969,-437.935 763.229,-450 886.508,-536.174 1042.68,-604.231 1162.94,-649.362"/>
<polygon fill="black" stroke="black" points="1163.22,-649.466 1170.24,-647.814 1174.47,-653.658 1167.45,-655.31 1163.22,-649.466"/>
<text text-anchor="middle" x="742.729" y="-258.3" font-family="Times,serif" font-size="14.00" fill="green">IDs</text>
</g>
<!-- collections.OrderedDict&#45;&gt;ecoa.ecoa_global_config.ECOA_Global_Config -->
<g id="edge7" class="edge"><title>collections.OrderedDict&#45;&gt;ecoa.ecoa_global_config.ECOA_Global_Config</title>
<path fill="none" stroke="black" d="M1442.68,-31.7196C1251.05,-38.255 831.539,-58.1591 791.229,-108 748.188,-161.218 755.927,-357.362 791.229,-416 871.362,-549.106 1033.66,-625.495 1162.83,-667.203"/>
<polygon fill="black" stroke="black" points="1162.99,-667.255 1169.92,-665.257 1174.43,-670.885 1167.5,-672.883 1162.99,-667.255"/>
<text text-anchor="middle" x="866.729" y="-258.3" font-family="Times,serif" font-size="14.00" fill="green">platform_composites</text>
</g>
<!-- collections.OrderedDict&#45;&gt;ecoa.ecoa_global_config.ECOA_Global_Config -->
<g id="edge8" class="edge"><title>collections.OrderedDict&#45;&gt;ecoa.ecoa_global_config.ECOA_Global_Config</title>
<path fill="none" stroke="black" d="M1442.3,-29.6628C1344.28,-32.2487 1187.56,-41.7164 1056.23,-74 1017.52,-83.5159 995.441,-74.8977 973.229,-108 935.092,-164.835 943.298,-354.447 973.229,-416 1013.8,-499.447 1090.56,-566.357 1164.27,-615.305"/>
<polygon fill="black" stroke="black" points="1164.61,-615.524 1171.82,-615.46 1174.65,-622.092 1167.44,-622.156 1164.61,-615.524"/>
<text text-anchor="middle" x="1040.23" y="-258.3" font-family="Times,serif" font-size="14.00" fill="green">nodes_deployment</text>
</g>
<!-- ecoa.models.composite.Composite -->
<g id="node3" class="node"><title>ecoa.models.composite.Composite</title>
<polygon fill="none" stroke="black" points="1116.73,-108.5 1116.73,-415.5 1583.73,-415.5 1583.73,-108.5 1116.73,-108.5"/>
<text text-anchor="start" x="1226.23" y="-401.3" font-family="Times,serif" font-size="14.00">ecoa.models.composite.Composite</text>
<polyline fill="none" stroke="black" points="1116.73,-392.5 1583.73,-392.5 "/>
<text text-anchor="start" x="1270.73" y="-378.3" font-family="Times,serif" font-size="14.00">components</text>
<text text-anchor="start" x="1270.73" y="-364.3" font-family="Times,serif" font-size="14.00">is_empty : bool</text>
<text text-anchor="start" x="1270.73" y="-350.3" font-family="Times,serif" font-size="14.00">name</text>
<text text-anchor="start" x="1270.73" y="-336.3" font-family="Times,serif" font-size="14.00">properties</text>
<text text-anchor="start" x="1270.73" y="-322.3" font-family="Times,serif" font-size="14.00">reference_promotions</text>
<text text-anchor="start" x="1270.73" y="-308.3" font-family="Times,serif" font-size="14.00">service_promotions</text>
<text text-anchor="start" x="1270.73" y="-294.3" font-family="Times,serif" font-size="14.00">wires : set</text>
<polyline fill="none" stroke="black" points="1116.73,-285.5 1583.73,-285.5 "/>
<text text-anchor="start" x="1124.73" y="-271.3" font-family="Times,serif" font-size="14.00">add_component(new_comp)</text>
<text text-anchor="start" x="1124.73" y="-257.3" font-family="Times,serif" font-size="14.00">add_composite_property(new_prop)</text>
<text text-anchor="start" x="1124.73" y="-243.3" font-family="Times,serif" font-size="14.00">add_reference_promotion(reference_name, promotion_string)</text>
<text text-anchor="start" x="1124.73" y="-229.3" font-family="Times,serif" font-size="14.00">add_service_promotion(service_name, promotion_string)</text>
<text text-anchor="start" x="1124.73" y="-215.3" font-family="Times,serif" font-size="14.00">add_wire()</text>
<text text-anchor="start" x="1124.73" y="-201.3" font-family="Times,serif" font-size="14.00">find_promoted_reference(component_name, reference_name)</text>
<text text-anchor="start" x="1124.73" y="-187.3" font-family="Times,serif" font-size="14.00">find_promoted_references(component_name, reference_name)</text>
<text text-anchor="start" x="1124.73" y="-173.3" font-family="Times,serif" font-size="14.00">find_promoted_service(component_name, service_name)</text>
<text text-anchor="start" x="1124.73" y="-159.3" font-family="Times,serif" font-size="14.00">find_promoted_services(component_name, service_name)</text>
<text text-anchor="start" x="1124.73" y="-145.3" font-family="Times,serif" font-size="14.00">get_component_impl(comp_name)</text>
<text text-anchor="start" x="1124.73" y="-131.3" font-family="Times,serif" font-size="14.00">get_wire_syntax(wire)</text>
<text text-anchor="start" x="1124.73" y="-117.3" font-family="Times,serif" font-size="14.00">set_name(name)</text>
</g>
<!-- collections.OrderedDict&#45;&gt;ecoa.models.composite.Composite -->
<g id="edge9" class="edge"><title>collections.OrderedDict&#45;&gt;ecoa.models.composite.Composite</title>
<path fill="none" stroke="black" d="M1442.56,-31.3552C1312.3,-35.5896 1091.01,-46.7424 1066.23,-74 1041.82,-100.856 1095.18,-104.073 1102.23,-108 1103.42,-108.662 1104.61,-109.326 1105.8,-109.994"/>
<polygon fill="black" stroke="black" points="1106.13,-110.181 1113.32,-109.642 1116.59,-116.073 1109.39,-116.612 1106.13,-110.181"/>
<text text-anchor="middle" x="1110.23" y="-78.3" font-family="Times,serif" font-size="14.00" fill="green">components</text>
</g>
<!-- collections.OrderedDict&#45;&gt;ecoa.models.composite.Composite -->
<g id="edge10" class="edge"><title>collections.OrderedDict&#45;&gt;ecoa.models.composite.Composite</title>
<path fill="none" stroke="black" d="M1442.35,-34.4476C1341.64,-41.2214 1194.58,-54.3449 1177.23,-74 1170.7,-81.398 1166.62,-88.927 1164.62,-96.5079"/>
<polygon fill="black" stroke="black" points="1164.61,-96.5451 1167.84,-102.995 1163.12,-108.452 1159.9,-102.002 1164.61,-96.5451"/>
<text text-anchor="middle" x="1214.73" y="-78.3" font-family="Times,serif" font-size="14.00" fill="green">properties</text>
</g>
<!-- collections.OrderedDict&#45;&gt;ecoa.models.composite.Composite -->
<g id="edge11" class="edge"><title>collections.OrderedDict&#45;&gt;ecoa.models.composite.Composite</title>
<path fill="none" stroke="black" d="M1442.62,-32.7387C1376.59,-37.5683 1296.61,-48.6362 1275.23,-74 1269.39,-80.9267 1265.5,-88.3657 1263.23,-96.1426"/>
<polygon fill="black" stroke="black" points="1263.18,-96.3873 1266.01,-103.022 1260.97,-108.182 1258.14,-101.548 1263.18,-96.3873"/>
<text text-anchor="middle" x="1354.23" y="-78.3" font-family="Times,serif" font-size="14.00" fill="green">reference_promotions</text>
</g>
<!-- collections.OrderedDict&#45;&gt;ecoa.models.composite.Composite -->
<g id="edge12" class="edge"><title>collections.OrderedDict&#45;&gt;ecoa.models.composite.Composite</title>
<path fill="none" stroke="black" d="M1479.96,-55.5265C1471.44,-60.9196 1463.2,-67.091 1456.23,-74 1448.54,-81.6217 1441.24,-89.9171 1434.32,-98.6357"/>
<polygon fill="black" stroke="black" points="1434.26,-98.7151 1433.8,-105.911 1426.98,-108.251 1427.44,-101.054 1434.26,-98.7151"/>
<text text-anchor="middle" x="1526.73" y="-78.3" font-family="Times,serif" font-size="14.00" fill="green">service_promotions</text>
</g>
<!-- ecoa.models.cross_PF_view.cross_platforms_view -->
<g id="node4" class="node"><title>ecoa.models.cross_PF_view.cross_platforms_view</title>
<polygon fill="none" stroke="black" points="1602.23,-164.5 1602.23,-359.5 2200.23,-359.5 2200.23,-164.5 1602.23,-164.5"/>
<text text-anchor="start" x="1722.23" y="-345.3" font-family="Times,serif" font-size="14.00">ecoa.models.cross_PF_view.cross_platforms_view</text>
<polyline fill="none" stroke="black" points="1602.23,-336.5 2200.23,-336.5 "/>
<text text-anchor="start" x="1813.23" y="-322.3" font-family="Times,serif" font-size="14.00">EUIDs</text>
<text text-anchor="start" x="1813.23" y="-308.3" font-family="Times,serif" font-size="14.00">assembly_name</text>
<text text-anchor="start" x="1813.23" y="-294.3" font-family="Times,serif" font-size="14.00">composites_deployment</text>
<text text-anchor="start" x="1813.23" y="-280.3" font-family="Times,serif" font-size="14.00">cross_PF_wire_mapping</text>
<text text-anchor="start" x="1813.23" y="-266.3" font-family="Times,serif" font-size="14.00">euid_binding</text>
<text text-anchor="start" x="1813.23" y="-252.3" font-family="Times,serif" font-size="14.00">logical_system_name</text>
<text text-anchor="start" x="1813.23" y="-238.3" font-family="Times,serif" font-size="14.00">name</text>
<polyline fill="none" stroke="black" points="1602.23,-229.5 2200.23,-229.5 "/>
<text text-anchor="start" x="1610.23" y="-215.3" font-family="Times,serif" font-size="14.00">add_euid_binding(euids_file, linkID)</text>
<text text-anchor="start" x="1610.23" y="-201.3" font-family="Times,serif" font-size="14.00">add_wire_map(PF_link_ID, source_comp, source_serv, target_comp, target_serv)</text>
<text text-anchor="start" x="1610.23" y="-187.3" font-family="Times,serif" font-size="14.00">find_composite_name(platform_name)</text>
<text text-anchor="start" x="1610.23" y="-173.3" font-family="Times,serif" font-size="14.00">find_missing_EUIDs(upper_composite, service_definitions)</text>
</g>
<!-- collections.OrderedDict&#45;&gt;ecoa.models.cross_PF_view.cross_platforms_view -->
<g id="edge13" class="edge"><title>collections.OrderedDict&#45;&gt;ecoa.models.cross_PF_view.cross_platforms_view</title>
<path fill="none" stroke="black" d="M1572.89,-55.6855C1590.94,-69.0902 1610.94,-83.7795 1620.23,-90 1654.13,-112.709 1690.99,-136.061 1726.53,-157.929"/>
<polygon fill="black" stroke="black" points="1726.78,-158.084 1733.98,-157.813 1737.01,-164.36 1729.8,-164.631 1726.78,-158.084"/>
<text text-anchor="middle" x="1706.73" y="-78.3" font-family="Times,serif" font-size="14.00" fill="green">composites_deployment</text>
</g>
<!-- collections.OrderedDict&#45;&gt;ecoa.models.cross_PF_view.cross_platforms_view -->
<g id="edge14" class="edge"><title>collections.OrderedDict&#45;&gt;ecoa.models.cross_PF_view.cross_platforms_view</title>
<path fill="none" stroke="black" d="M1632,-37.2649C1693.74,-44.2141 1767.44,-55.9552 1793.23,-74 1821.41,-93.7169 1843.26,-123.315 1859.7,-153.181"/>
<polygon fill="black" stroke="black" points="1859.91,-153.57 1866.25,-157.005 1865.51,-164.179 1859.17,-160.744 1859.91,-153.57"/>
<text text-anchor="middle" x="1857.73" y="-78.3" font-family="Times,serif" font-size="14.00" fill="green">euid_binding</text>
</g>
<!-- collections.OrderedDict&#45;&gt;ecoa.models.cross_PF_view.cross_platforms_view -->
<g id="edge15" class="edge"><title>collections.OrderedDict&#45;&gt;ecoa.models.cross_PF_view.cross_platforms_view</title>
<path fill="none" stroke="black" d="M1631.74,-34.0371C1735.57,-40.5591 1890.13,-53.5736 1908.23,-74 1927.08,-95.2767 1932.23,-123.855 1930.84,-152.258"/>
<polygon fill="black" stroke="black" points="1930.82,-152.437 1934.33,-158.738 1929.86,-164.398 1926.35,-158.097 1930.82,-152.437"/>
<text text-anchor="middle" x="2004.73" y="-78.3" font-family="Times,serif" font-size="14.00" fill="green">cross_PF_wire_mapping</text>
</g>
<!-- collections.OrderedDict&#45;&gt;ecoa.models.cross_PF_view.cross_platforms_view -->
<g id="edge16" class="edge"><title>collections.OrderedDict&#45;&gt;ecoa.models.cross_PF_view.cross_platforms_view</title>
<path fill="none" stroke="black" d="M1631.96,-29.7769C1783.21,-32.0138 2065.46,-40.66 2096.23,-74 2121.38,-101.254 2112.39,-129.511 2087.96,-155.55"/>
<polygon fill="black" stroke="black" points="2087.65,-155.86 2086.19,-162.922 2079.11,-164.292 2080.57,-157.23 2087.65,-155.86"/>
<text text-anchor="middle" x="2131.23" y="-78.3" font-family="Times,serif" font-size="14.00" fill="green">EUIDs</text>
</g>
<!-- ecoa.models.deployment.Deployment -->
<g id="node5" class="node"><title>ecoa.models.deployment.Deployment</title>
<polygon fill="none" stroke="black" points="2218.73,-164.5 2218.73,-359.5 2585.73,-359.5 2585.73,-164.5 2218.73,-164.5"/>
<text text-anchor="start" x="2268.23" y="-345.3" font-family="Times,serif" font-size="14.00">ecoa.models.deployment.Deployment</text>
<polyline fill="none" stroke="black" points="2218.73,-336.5 2585.73,-336.5 "/>
<text text-anchor="start" x="2330.73" y="-322.3" font-family="Times,serif" font-size="14.00">assembly_name</text>
<text text-anchor="start" x="2330.73" y="-308.3" font-family="Times,serif" font-size="14.00">logical_sys_name</text>
<text text-anchor="start" x="2330.73" y="-294.3" font-family="Times,serif" font-size="14.00">multi_node : bool</text>
<text text-anchor="start" x="2330.73" y="-280.3" font-family="Times,serif" font-size="14.00">name</text>
<text text-anchor="start" x="2330.73" y="-266.3" font-family="Times,serif" font-size="14.00">platforms_config</text>
<text text-anchor="start" x="2330.73" y="-252.3" font-family="Times,serif" font-size="14.00">protection_domains</text>
<text text-anchor="start" x="2330.73" y="-238.3" font-family="Times,serif" font-size="14.00">wire_mapping</text>
<polyline fill="none" stroke="black" points="2218.73,-229.5 2585.73,-229.5 "/>
<text text-anchor="start" x="2226.73" y="-215.3" font-family="Times,serif" font-size="14.00">add_platform_config(PF_name, PF_config)</text>
<text text-anchor="start" x="2226.73" y="-201.3" font-family="Times,serif" font-size="14.00">add_platform_config_node(PF_name, node_ID)</text>
<text text-anchor="start" x="2226.73" y="-187.3" font-family="Times,serif" font-size="14.00">add_protection_domain(new_protection_domain)</text>
<text text-anchor="start" x="2226.73" y="-173.3" font-family="Times,serif" font-size="14.00">add_wire_mapping(pf_link_id, wire)</text>
</g>
<!-- collections.OrderedDict&#45;&gt;ecoa.models.deployment.Deployment -->
<g id="edge17" class="edge"><title>collections.OrderedDict&#45;&gt;ecoa.models.deployment.Deployment</title>
<path fill="none" stroke="black" d="M1631.79,-29.8632C1781.17,-32.228 2064.51,-41.0584 2159.23,-74 2209.38,-91.4431 2257.35,-123.686 2297.21,-156.545"/>
<polygon fill="black" stroke="black" points="2297.45,-156.742 2304.62,-157.533 2306.64,-164.453 2299.47,-163.662 2297.45,-156.742"/>
<text text-anchor="middle" x="2261.23" y="-78.3" font-family="Times,serif" font-size="14.00" fill="green">protection_domains</text>
</g>
<!-- collections.OrderedDict&#45;&gt;ecoa.models.deployment.Deployment -->
<g id="edge18" class="edge"><title>collections.OrderedDict&#45;&gt;ecoa.models.deployment.Deployment</title>
<path fill="none" stroke="black" d="M1632.08,-28.5264C1831.64,-28.3573 2281.12,-32.6371 2336.23,-74 2361.62,-93.0591 2377.28,-122.653 2386.93,-152.719"/>
<polygon fill="black" stroke="black" points="2386.94,-152.737 2392.47,-157.355 2390.34,-164.244 2384.8,-159.626 2386.94,-152.737"/>
<text text-anchor="middle" x="2403.23" y="-78.3" font-family="Times,serif" font-size="14.00" fill="green">wire_mapping</text>
</g>
<!-- collections.OrderedDict&#45;&gt;ecoa.models.deployment.Deployment -->
<g id="edge19" class="edge"><title>collections.OrderedDict&#45;&gt;ecoa.models.deployment.Deployment</title>
<path fill="none" stroke="black" d="M1631.89,-30.1507C1861.25,-33.4017 2430.06,-44.4204 2458.23,-74 2478.76,-95.5572 2478.61,-124.337 2469.55,-152.845"/>
<polygon fill="black" stroke="black" points="2469.54,-152.867 2471.29,-159.864 2465.5,-164.166 2463.75,-157.169 2469.54,-152.867"/>
<text text-anchor="middle" x="2527.73" y="-78.3" font-family="Times,serif" font-size="14.00" fill="green">platforms_config</text>
</g>
<!-- ecoa.models.fine_grain_deployment.Fine_Grain_Deployment -->
<g id="node6" class="node"><title>ecoa.models.fine_grain_deployment.Fine_Grain_Deployment</title>
<polygon fill="none" stroke="black" points="2603.73,-199.5 2603.73,-324.5 3054.73,-324.5 3054.73,-199.5 2603.73,-199.5"/>
<text text-anchor="start" x="2612.23" y="-310.3" font-family="Times,serif" font-size="14.00">ecoa.models.fine_grain_deployment.Fine_Grain_Deployment</text>
<polyline fill="none" stroke="black" points="2603.73,-301.5 3054.73,-301.5 "/>
<text text-anchor="start" x="2715.73" y="-287.3" font-family="Times,serif" font-size="14.00">protection_domain_deployment</text>
<text text-anchor="start" x="2715.73" y="-273.3" font-family="Times,serif" font-size="14.00">technical_cores : list</text>
<polyline fill="none" stroke="black" points="2603.73,-264.5 3054.73,-264.5 "/>
<text text-anchor="start" x="2624.23" y="-250.3" font-family="Times,serif" font-size="14.00">add_protection_domain(protection_domain, name)</text>
<text text-anchor="start" x="2624.23" y="-236.3" font-family="Times,serif" font-size="14.00">add_technical_core(node_name, platform_name, core_id)</text>
<text text-anchor="start" x="2624.23" y="-222.3" font-family="Times,serif" font-size="14.00">get_PD_sched_policy(pd_name)</text>
<text text-anchor="start" x="2624.23" y="-208.3" font-family="Times,serif" font-size="14.00">get_protection_domain(pd_name)</text>
</g>
<!-- collections.OrderedDict&#45;&gt;ecoa.models.fine_grain_deployment.Fine_Grain_Deployment -->
<g id="edge20" class="edge"><title>collections.OrderedDict&#45;&gt;ecoa.models.fine_grain_deployment.Fine_Grain_Deployment</title>
<path fill="none" stroke="black" d="M1632.11,-29.7204C1874.52,-32.0312 2503.71,-41.1544 2592.23,-74 2657.97,-98.3935 2719.72,-148.361 2763.7,-190.512"/>
<polygon fill="black" stroke="black" points="2763.93,-190.735 2771.02,-192.05 2772.54,-199.101 2765.45,-197.786 2763.93,-190.735"/>
<text text-anchor="middle" x="2735.23" y="-78.3" font-family="Times,serif" font-size="14.00" fill="green">protection_domain_deployment</text>
</g>
<!-- ecoa.models.ip_address_deployment.IP_Address_Deployment -->
<g id="node7" class="node"><title>ecoa.models.ip_address_deployment.IP_Address_Deployment</title>
<polygon fill="none" stroke="black" points="3072.73,-213.5 3072.73,-310.5 3531.73,-310.5 3531.73,-213.5 3072.73,-213.5"/>
<text text-anchor="start" x="3081.23" y="-296.3" font-family="Times,serif" font-size="14.00">ecoa.models.ip_address_deployment.IP_Address_Deployment</text>
<polyline fill="none" stroke="black" points="3072.73,-287.5 3531.73,-287.5 "/>
<text text-anchor="start" x="3188.73" y="-273.3" font-family="Times,serif" font-size="14.00">protection_domain_deployment</text>
<polyline fill="none" stroke="black" points="3072.73,-264.5 3531.73,-264.5 "/>
<text text-anchor="start" x="3121.23" y="-250.3" font-family="Times,serif" font-size="14.00">add_protection_domain(protection_domain, name)</text>
<text text-anchor="start" x="3121.23" y="-236.3" font-family="Times,serif" font-size="14.00">get_protection_domain(pd_name)</text>
<text text-anchor="start" x="3121.23" y="-222.3" font-family="Times,serif" font-size="14.00">get_protection_domain_from_wire(wire)</text>
</g>
<!-- collections.OrderedDict&#45;&gt;ecoa.models.ip_address_deployment.IP_Address_Deployment -->
<g id="edge21" class="edge"><title>collections.OrderedDict&#45;&gt;ecoa.models.ip_address_deployment.IP_Address_Deployment</title>
<path fill="none" stroke="black" d="M1631.98,-28.1726C1848.63,-27.1697 2396.66,-29.6772 2852.23,-74 2946.77,-83.198 2974.49,-74.13 3063.23,-108 3124.98,-131.568 3187.64,-172.452 3233.31,-206.031"/>
<polygon fill="black" stroke="black" points="3233.45,-206.135 3240.65,-206.505 3243.08,-213.295 3235.88,-212.925 3233.45,-206.135"/>
<text text-anchor="middle" x="3117.23" y="-78.3" font-family="Times,serif" font-size="14.00" fill="green">protection_domain_deployment</text>
</g>
<!-- ecoa.models.logical_system.Logical_System -->
<g id="node8" class="node"><title>ecoa.models.logical_system.Logical_System</title>
<polygon fill="none" stroke="black" points="3550.23,-213.5 3550.23,-310.5 3884.23,-310.5 3884.23,-213.5 3550.23,-213.5"/>
<text text-anchor="start" x="3558.73" y="-296.3" font-family="Times,serif" font-size="14.00">ecoa.models.logical_system.Logical_System</text>
<polyline fill="none" stroke="black" points="3550.23,-287.5 3884.23,-287.5 "/>
<text text-anchor="start" x="3664.73" y="-273.3" font-family="Times,serif" font-size="14.00">name</text>
<text text-anchor="start" x="3664.73" y="-259.3" font-family="Times,serif" font-size="14.00">platform_links</text>
<text text-anchor="start" x="3664.73" y="-245.3" font-family="Times,serif" font-size="14.00">platforms</text>
<polyline fill="none" stroke="black" points="3550.23,-236.5 3884.23,-236.5 "/>
<text text-anchor="start" x="3714.73" y="-222.3" font-family="Times,serif" font-size="14.00"> </text>
</g>
<!-- collections.OrderedDict&#45;&gt;ecoa.models.logical_system.Logical_System -->
<g id="edge22" class="edge"><title>collections.OrderedDict&#45;&gt;ecoa.models.logical_system.Logical_System</title>
<path fill="none" stroke="black" d="M1632.11,-28.7202C1889.92,-28.5644 2624.85,-32.1409 3234.23,-74 3370.74,-83.3775 3414.83,-53.2388 3540.23,-108 3589.95,-129.711 3635.97,-170.415 3668.61,-204.384"/>
<polygon fill="black" stroke="black" points="3668.8,-204.583 3675.83,-206.201 3677.04,-213.31 3670.01,-211.692 3668.8,-204.583"/>
<text text-anchor="middle" x="3527.23" y="-78.3" font-family="Times,serif" font-size="14.00" fill="green">platforms</text>
</g>
<!-- collections.OrderedDict&#45;&gt;ecoa.models.logical_system.Logical_System -->
<g id="edge23" class="edge"><title>collections.OrderedDict&#45;&gt;ecoa.models.logical_system.Logical_System</title>
<path fill="none" stroke="black" d="M1631.76,-28.8875C2020.37,-28.7078 3478.58,-30.9184 3566.23,-74 3621.24,-101.038 3662.83,-158.613 3688.3,-202.781"/>
<polygon fill="black" stroke="black" points="3688.39,-202.945 3694.82,-206.218 3694.27,-213.408 3687.84,-210.136 3688.39,-202.945"/>
<text text-anchor="middle" x="3641.23" y="-78.3" font-family="Times,serif" font-size="14.00" fill="green">platform_links</text>
</g>
<!-- ecoa.models.composite.Composite&#45;&gt;ecoa.ecoa_global_config.ECOA_Global_Config -->
<g id="edge24" class="edge"><title>ecoa.models.composite.Composite&#45;&gt;ecoa.ecoa_global_config.ECOA_Global_Config</title>
<path fill="none" stroke="black" d="M1137.13,-415.671C1135.87,-426.601 1137.05,-438.052 1141.23,-450 1148.28,-470.157 1157.61,-489.92 1168.42,-508.987"/>
<polygon fill="black" stroke="black" points="1168.51,-509.146 1174.99,-512.307 1174.57,-519.506 1168.08,-516.345 1168.51,-509.146"/>
<text text-anchor="middle" x="1234.73" y="-438.3" font-family="Times,serif" font-size="14.00" fill="green">final_assembly_composite</text>
</g>
<!-- ecoa.models.composite.Composite&#45;&gt;ecoa.ecoa_global_config.ECOA_Global_Config -->
<g id="edge25" class="edge"><title>ecoa.models.composite.Composite&#45;&gt;ecoa.ecoa_global_config.ECOA_Global_Config</title>
<path fill="none" stroke="black" d="M1350.23,-415.637C1350.23,-428.812 1350.23,-442.355 1350.23,-456.058"/>
<polygon fill="black" stroke="black" points="1350.23,-456.136 1354.23,-462.136 1350.23,-468.136 1346.23,-462.135 1350.23,-456.136"/>
<text text-anchor="middle" x="1412.23" y="-438.3" font-family="Times,serif" font-size="14.00" fill="green">upper_composite</text>
</g>
<!-- ecoa.models.composite.Composite&#45;&gt;ecoa.ecoa_global_config.ECOA_Global_Config -->
<g id="edge26" class="edge"><title>ecoa.models.composite.Composite&#45;&gt;ecoa.ecoa_global_config.ECOA_Global_Config</title>
<path fill="none" stroke="black" d="M1468.24,-415.525C1470.86,-421.629 1473.2,-427.795 1475.23,-434 1477.63,-441.339 1479.34,-448.745 1480.45,-456.186"/>
<polygon fill="black" stroke="black" points="1480.47,-456.38 1485.08,-461.929 1481.73,-468.314 1477.12,-462.765 1480.47,-456.38"/>
<text text-anchor="middle" x="1542.23" y="-438.3" font-family="Times,serif" font-size="14.00" fill="green">upper_composite</text>
</g>
<!-- ecoa.models.cross_PF_view.cross_platforms_view&#45;&gt;ecoa.ecoa_global_config.ECOA_Global_Config -->
<g id="edge27" class="edge"><title>ecoa.models.cross_PF_view.cross_platforms_view&#45;&gt;ecoa.ecoa_global_config.ECOA_Global_Config</title>
<path fill="none" stroke="black" d="M1782.69,-359.598C1710.58,-418.353 1616.96,-494.648 1535.27,-561.217"/>
<polygon fill="black" stroke="black" points="1535.18,-561.288 1533.05,-568.179 1525.88,-568.868 1528,-561.977 1535.18,-561.288"/>
<text text-anchor="middle" x="1745.23" y="-438.3" font-family="Times,serif" font-size="14.00" fill="green">cross_PF_view</text>
</g>
<!-- ecoa.models.deployment.Deployment&#45;&gt;ecoa.ecoa_global_config.ECOA_Global_Config -->
<g id="edge28" class="edge"><title>ecoa.models.deployment.Deployment&#45;&gt;ecoa.ecoa_global_config.ECOA_Global_Config</title>
<path fill="none" stroke="black" d="M2300.22,-359.697C2272.51,-381.337 2241.26,-401.999 2209.23,-416 2161.42,-436.898 2143.7,-420.79 2093.23,-434 1899.26,-484.768 1685.62,-567.699 1537.41,-629.794"/>
<polygon fill="black" stroke="black" points="1537.02,-629.956 1533.04,-635.968 1525.96,-634.604 1529.94,-628.592 1537.02,-629.956"/>
<text text-anchor="middle" x="2135.73" y="-438.3" font-family="Times,serif" font-size="14.00" fill="green">deployment</text>
</g>
<!-- ecoa.models.fine_grain_deployment.Fine_Grain_Deployment&#45;&gt;ecoa.ecoa_global_config.ECOA_Global_Config -->
<g id="edge29" class="edge"><title>ecoa.models.fine_grain_deployment.Fine_Grain_Deployment&#45;&gt;ecoa.ecoa_global_config.ECOA_Global_Config</title>
<path fill="none" stroke="black" d="M2749.67,-324.668C2705.89,-355.996 2649.37,-392.338 2594.23,-416 2237.32,-569.16 1787.25,-651.222 1538.04,-687.833"/>
<polygon fill="black" stroke="black" points="1537.83,-687.863 1532.47,-692.687 1525.96,-689.595 1531.32,-684.771 1537.83,-687.863"/>
<text text-anchor="middle" x="2613.23" y="-438.3" font-family="Times,serif" font-size="14.00" fill="green">fine_grain_deployment</text>
</g>
<!-- ecoa.models.ip_address_deployment.IP_Address_Deployment&#45;&gt;ecoa.ecoa_global_config.ECOA_Global_Config -->
<g id="edge30" class="edge"><title>ecoa.models.ip_address_deployment.IP_Address_Deployment&#45;&gt;ecoa.ecoa_global_config.ECOA_Global_Config</title>
<path fill="none" stroke="black" d="M3242.51,-310.851C3196.25,-345.44 3129.14,-390.417 3063.23,-416 2535.1,-621.004 1860.47,-684.516 1538.14,-703.812"/>
<polygon fill="black" stroke="black" points="1537.86,-703.828 1532.1,-708.175 1525.88,-704.535 1531.63,-700.188 1537.86,-703.828"/>
<text text-anchor="middle" x="3060.73" y="-438.3" font-family="Times,serif" font-size="14.00" fill="green">ip_address_deployment</text>
</g>
<!-- ecoa.models.logical_system.Logical_System&#45;&gt;ecoa.ecoa_global_config.ECOA_Global_Config -->
<g id="edge31" class="edge"><title>ecoa.models.logical_system.Logical_System&#45;&gt;ecoa.ecoa_global_config.ECOA_Global_Config</title>
<path fill="none" stroke="black" d="M3676.54,-310.696C3643.57,-345.923 3593.92,-391.792 3540.23,-416 3182.82,-577.144 2000.29,-669.647 1537.88,-700.403"/>
<polygon fill="black" stroke="black" points="1537.73,-700.413 1532.01,-704.801 1525.75,-701.206 1531.48,-696.818 1537.73,-700.413"/>
<text text-anchor="middle" x="3534.23" y="-438.3" font-family="Times,serif" font-size="14.00" fill="green">logical_system</text>
</g>
<!-- ecoa.parsers.project_parser.ECOAProject -->
<g id="node9" class="node"><title>ecoa.parsers.project_parser.ECOAProject</title>
<polygon fill="none" stroke="black" points="3902.23,-115.5 3902.23,-408.5 4220.23,-408.5 4220.23,-115.5 3902.23,-115.5"/>
<text text-anchor="start" x="3910.73" y="-394.3" font-family="Times,serif" font-size="14.00">ecoa.parsers.project_parser.ECOAProject</text>
<polyline fill="none" stroke="black" points="3902.23,-385.5 4220.23,-385.5 "/>
<text text-anchor="start" x="3971.23" y="-371.3" font-family="Times,serif" font-size="14.00">EUID_files : set</text>
<text text-anchor="start" x="3971.23" y="-357.3" font-family="Times,serif" font-size="14.00">comp_impl_files : set</text>
<text text-anchor="start" x="3971.23" y="-343.3" font-family="Times,serif" font-size="14.00">component_files : set</text>
<text text-anchor="start" x="3971.23" y="-329.3" font-family="Times,serif" font-size="14.00">crossplatform_files : set</text>
<text text-anchor="start" x="3971.23" y="-315.3" font-family="Times,serif" font-size="14.00">deployment_files : set</text>
<text text-anchor="start" x="3971.23" y="-301.3" font-family="Times,serif" font-size="14.00">directory</text>
<text text-anchor="start" x="3971.23" y="-287.3" font-family="Times,serif" font-size="14.00">filename</text>
<text text-anchor="start" x="3971.23" y="-273.3" font-family="Times,serif" font-size="14.00">impl_assembly_files : set</text>
<text text-anchor="start" x="3971.23" y="-259.3" font-family="Times,serif" font-size="14.00">init_assembly_files : set</text>
<text text-anchor="start" x="3971.23" y="-245.3" font-family="Times,serif" font-size="14.00">logical_system_files : set</text>
<text text-anchor="start" x="3971.23" y="-231.3" font-family="Times,serif" font-size="14.00">output_dir : str, bytes</text>
<text text-anchor="start" x="3971.23" y="-217.3" font-family="Times,serif" font-size="14.00">project_name : str</text>
<text text-anchor="start" x="3971.23" y="-203.3" font-family="Times,serif" font-size="14.00">service_files : set</text>
<text text-anchor="start" x="3971.23" y="-189.3" font-family="Times,serif" font-size="14.00">type_files : set</text>
<polyline fill="none" stroke="black" points="3902.23,-180.5 4220.23,-180.5 "/>
<text text-anchor="start" x="3930.73" y="-166.3" font-family="Times,serif" font-size="14.00">get_cmd_line_output(output)</text>
<text text-anchor="start" x="3930.73" y="-152.3" font-family="Times,serif" font-size="14.00">parse_output(output, xsd_directory)</text>
<text text-anchor="start" x="3930.73" y="-138.3" font-family="Times,serif" font-size="14.00">parse_project(xsd_directory)</text>
<text text-anchor="start" x="3930.73" y="-124.3" font-family="Times,serif" font-size="14.00">reset_project()</text>
</g>
<!-- ecoa.parsers.project_parser.ECOAProject&#45;&gt;ecoa.ecoa_global_config.ECOA_Global_Config -->
<g id="edge32" class="edge"><title>ecoa.parsers.project_parser.ECOAProject&#45;&gt;ecoa.ecoa_global_config.ECOA_Global_Config</title>
<path fill="none" stroke="black" d="M3908.16,-408.542C3903.23,-411.215 3898.26,-413.711 3893.23,-416 3471.91,-607.844 2052.49,-683.465 1538.25,-704.983"/>
<polygon fill="black" stroke="black" points="1537.89,-704.998 1532.06,-709.244 1525.9,-705.497 1531.73,-701.251 1537.89,-704.998"/>
<text text-anchor="middle" x="3872.73" y="-438.3" font-family="Times,serif" font-size="14.00" fill="green">ECOAProject</text>
</g>
<!-- ecoa_genplatform.ecoa_generate_config.ECOA_Generate_Config -->
<g id="node10" class="node"><title>ecoa_genplatform.ecoa_generate_config.ECOA_Generate_Config</title>
<polygon fill="none" stroke="black" points="4238.73,-234.5 4238.73,-289.5 4825.73,-289.5 4825.73,-234.5 4238.73,-234.5"/>
<text text-anchor="start" x="4299.23" y="-275.3" font-family="Times,serif" font-size="14.00">ecoa_genplatform.ecoa_generate_config.ECOA_Generate_Config</text>
<polyline fill="none" stroke="black" points="4238.73,-266.5 4825.73,-266.5 "/>
<polyline fill="none" stroke="black" points="4238.73,-257.5 4825.73,-257.5 "/>
<text text-anchor="start" x="4246.73" y="-243.3" font-family="Times,serif" font-size="14.00">generate(file_log_dir, force_flag, debug_flag, coverage_flag, gen_bin_desc_info)</text>
</g>
<!-- ecoa_genplatform.ecoa_generate_config.ECOA_Generate_Config&#45;&gt;ecoa.ecoa_global_config.ECOA_Global_Config -->
<g id="edge1" class="edge"><title>ecoa_genplatform.ecoa_generate_config.ECOA_Generate_Config&#45;&gt;ecoa.ecoa_global_config.ECOA_Global_Config</title>
<path fill="none" stroke="black" d="M4491.55,-289.511C4435.17,-324.831 4328.91,-386.308 4229.23,-416 4098.93,-454.81 4060.41,-435.563 3925.23,-450 3030.49,-545.552 1959.95,-651.928 1536.11,-693.729"/>
<polygon fill="none" stroke="black" points="1535.52,-690.271 1525.91,-694.735 1536.2,-697.237 1535.52,-690.271"/>
</g>
</g>
</svg>
