<?xml version="1.0" encoding="UTF-8" standalone="no"?><svg xmlns="http://www.w3.org/2000/svg" xmlns:xlink="http://www.w3.org/1999/xlink" contentStyleType="text/css" height="1507px" preserveAspectRatio="none" style="width:3036px;height:1507px;background:#FFFFFF;" version="1.1" viewBox="0 0 3036 1507" width="3036px" zoomAndPan="magnify"><defs/><g><!--MD5=[6c483a3ca72f8469c5d47cac6edfb3c8]
cluster ecoa_toolset.generators--><g id="cluster_ecoa_toolset.generators"><path d="M8.5,6 L182.5,6 A3.75,3.75 0 0 1 185,8.5 L192,29.6094 L3026.5,29.6094 A2.5,2.5 0 0 1 3029,32.1094 L3029,1497.5 A2.5,2.5 0 0 1 3026.5,1500 L8.5,1500 A2.5,2.5 0 0 1 6,1497.5 L6,8.5 A2.5,2.5 0 0 1 8.5,6 " fill="none" style="stroke:#000000;stroke-width:1.5;"/><line style="stroke:#000000;stroke-width:1.5;" x1="6" x2="192" y1="29.6094" y2="29.6094"/><text fill="#000000" font-family="sans-serif" font-size="14" font-weight="bold" lengthAdjust="spacing" textLength="173" x="10" y="22.5332">ecoa_toolset.generators</text></g><!--MD5=[ce5ccd5b359d4259c2ab78015c688698]
cluster container--><g id="cluster_container"><path d="M32.5,50 L100.5,50 A3.75,3.75 0 0 1 103,52.5 L110,73.6094 L3002.5,73.6094 A2.5,2.5 0 0 1 3005,76.1094 L3005,1261.5 A2.5,2.5 0 0 1 3002.5,1264 L32.5,1264 A2.5,2.5 0 0 1 30,1261.5 L30,52.5 A2.5,2.5 0 0 1 32.5,50 " fill="none" style="stroke:#000000;stroke-width:1.5;"/><line style="stroke:#000000;stroke-width:1.5;" x1="30" x2="110" y1="73.6094" y2="73.6094"/><text fill="#000000" font-family="sans-serif" font-size="14" font-weight="bold" lengthAdjust="spacing" textLength="67" x="34" y="66.5332">container</text></g><!--MD5=[9a53b195b9e6dcc8c7a5cc20ca36bc92]
cluster functions--><g id="cluster_functions"><path d="M56.5,768 L123.5,768 A3.75,3.75 0 0 1 126,770.5 L133,791.6094 L2978.5,791.6094 A2.5,2.5 0 0 1 2981,794.1094 L2981,1237.5 A2.5,2.5 0 0 1 2978.5,1240 L56.5,1240 A2.5,2.5 0 0 1 54,1237.5 L54,770.5 A2.5,2.5 0 0 1 56.5,768 " fill="none" style="stroke:#000000;stroke-width:1.5;"/><line style="stroke:#000000;stroke-width:1.5;" x1="54" x2="133" y1="791.6094" y2="791.6094"/><text fill="#000000" font-family="sans-serif" font-size="14" font-weight="bold" lengthAdjust="spacing" textLength="66" x="58" y="784.5332">functions</text></g><!--MD5=[2007d752bd3057394614678d7f1dd572]
cluster variables--><g id="cluster_variables"><path d="M1016.5,94 L1082.5,94 A3.75,3.75 0 0 1 1085,96.5 L1092,117.6094 L1574.5,117.6094 A2.5,2.5 0 0 1 1577,120.1094 L1577,473.5 A2.5,2.5 0 0 1 1574.5,476 L1016.5,476 A2.5,2.5 0 0 1 1014,473.5 L1014,96.5 A2.5,2.5 0 0 1 1016.5,94 " fill="none" style="stroke:#000000;stroke-width:1.5;"/><line style="stroke:#000000;stroke-width:1.5;" x1="1014" x2="1092" y1="117.6094" y2="117.6094"/><text fill="#000000" font-family="sans-serif" font-size="14" font-weight="bold" lengthAdjust="spacing" textLength="65" x="1018" y="110.5332">variables</text></g><!--MD5=[c52f45833d539af9e29a9d34b8b7302b]
cluster utils--><g id="cluster_utils"><path d="M963.5,1288 L994.5,1288 A3.75,3.75 0 0 1 997,1290.5 L1004,1311.6094 L1152.5,1311.6094 A2.5,2.5 0 0 1 1155,1314.1094 L1155,1473.5 A2.5,2.5 0 0 1 1152.5,1476 L963.5,1476 A2.5,2.5 0 0 1 961,1473.5 L961,1290.5 A2.5,2.5 0 0 1 963.5,1288 " fill="none" style="stroke:#000000;stroke-width:1.5;"/><line style="stroke:#000000;stroke-width:1.5;" x1="961" x2="1004" y1="1311.6094" y2="1311.6094"/><text fill="#000000" font-family="sans-serif" font-size="14" font-weight="bold" lengthAdjust="spacing" textLength="30" x="965" y="1304.5332">utils</text></g><!--MD5=[2f68b7eda24590530a4cc5ecaaf63c8d]
class ContainerGenerator--><g id="elem_ContainerGenerator"><rect codeLine="8" fill="#F1F1F1" height="224.0938" id="ContainerGenerator" rx="2.5" ry="2.5" style="stroke:#181818;stroke-width:0.5;" width="263" x="1146.5" y="520"/><ellipse cx="1210.25" cy="536" fill="#ADD1B2" rx="11" ry="11" style="stroke:#181818;stroke-width:1.0;"/><path d="M1213.0156,531.875 Q1213.1719,531.6563 1213.3594,531.5469 Q1213.5469,531.4375 1213.7656,531.4375 Q1214.1406,531.4375 1214.375,531.6953 Q1214.6094,531.9531 1214.6094,532.5625 L1214.6094,534.0156 Q1214.6094,534.625 1214.375,534.8906 Q1214.1406,535.1563 1213.7656,535.1563 Q1213.4219,535.1563 1213.2188,534.9531 Q1213.0156,534.7656 1212.9063,534.25 Q1212.8594,533.8906 1212.6719,533.7031 Q1212.3438,533.3281 1211.7344,533.1094 Q1211.125,532.8906 1210.5,532.8906 Q1209.7344,532.8906 1209.1016,533.2188 Q1208.4688,533.5469 1207.9766,534.2969 Q1207.4844,535.0469 1207.4844,536.0781 L1207.4844,537.1719 Q1207.4844,538.4063 1208.375,539.2266 Q1209.2656,540.0469 1210.8594,540.0469 Q1211.7969,540.0469 1212.4531,539.7969 Q1212.8438,539.6406 1213.2656,539.2031 Q1213.5313,538.9375 1213.6797,538.8594 Q1213.8281,538.7813 1214.0313,538.7813 Q1214.3594,538.7813 1214.6172,539.0391 Q1214.875,539.2969 1214.875,539.6406 Q1214.875,539.9844 1214.5313,540.3906 Q1214.0313,540.9688 1213.2344,541.2969 Q1212.1563,541.75 1210.8594,541.75 Q1209.3438,541.75 1208.1406,541.125 Q1207.1563,540.625 1206.4688,539.5547 Q1205.7813,538.4844 1205.7813,537.2031 L1205.7813,536.0469 Q1205.7813,534.7188 1206.3984,533.5703 Q1207.0156,532.4219 1208.1094,531.8047 Q1209.2031,531.1875 1210.4375,531.1875 Q1211.1719,531.1875 1211.8203,531.3516 Q1212.4688,531.5156 1213.0156,531.875 Z " fill="#000000"/><text fill="#000000" font-family="sans-serif" font-size="14" lengthAdjust="spacing" textLength="127" x="1230.75" y="541.7285">ContainerGenerator</text><line style="stroke:#181818;stroke-width:0.5;" x1="1147.5" x2="1408.5" y1="552" y2="552"/><rect fill="none" height="6" style="stroke:#C82930;stroke-width:1.0;" width="6" x="1154.5" y="563.3047"/><text fill="#000000" font-family="sans-serif" font-size="14" lengthAdjust="spacing" textLength="99" x="1166.5" y="570.5332">indent_level: int</text><rect fill="none" height="6" style="stroke:#C82930;stroke-width:1.0;" width="6" x="1154.5" y="580.9141"/><text fill="#000000" font-family="sans-serif" font-size="14" lengthAdjust="spacing" textLength="97" x="1166.5" y="588.1426">indent_step: int</text><line style="stroke:#181818;stroke-width:0.5;" x1="1147.5" x2="1408.5" y1="595.2188" y2="595.2188"/><ellipse cx="1157.5" cy="609.5234" fill="#84BE84" rx="3" ry="3" style="stroke:#038048;stroke-width:1.0;"/><text fill="#000000" font-family="sans-serif" font-size="14" lengthAdjust="spacing" textLength="237" x="1166.5" y="613.752">generate_container_constructor(): str</text><ellipse cx="1157.5" cy="627.1328" fill="#84BE84" rx="3" ry="3" style="stroke:#038048;stroke-width:1.0;"/><text fill="#000000" font-family="sans-serif" font-size="14" lengthAdjust="spacing" textLength="171" x="1166.5" y="631.3613">generate_modules_id(): str</text><rect fill="#F24D5C" height="6" style="stroke:#C82930;stroke-width:1.0;" width="6" x="1154.5" y="641.7422"/><text fill="#000000" font-family="sans-serif" font-size="14" lengthAdjust="spacing" textLength="177" x="1166.5" y="648.9707">generate_open_pinfos(): str</text><rect fill="#F24D5C" height="6" style="stroke:#C82930;stroke-width:1.0;" width="6" x="1154.5" y="659.3516"/><text fill="#000000" font-family="sans-serif" font-size="14" lengthAdjust="spacing" textLength="170" x="1166.5" y="666.5801">generate_init_context(): str</text><rect fill="#F24D5C" height="6" style="stroke:#C82930;stroke-width:1.0;" width="6" x="1154.5" y="676.9609"/><text fill="#000000" font-family="sans-serif" font-size="14" lengthAdjust="spacing" textLength="171" x="1166.5" y="684.1895">generate_init_module(): str</text><ellipse cx="1157.5" cy="697.5703" fill="#84BE84" rx="3" ry="3" style="stroke:#038048;stroke-width:1.0;"/><text fill="#000000" font-family="sans-serif" font-size="14" lengthAdjust="spacing" textLength="174" x="1166.5" y="701.7988">generate_cm_initialize(): str</text><rect fill="#F24D5C" height="6" style="stroke:#C82930;stroke-width:1.0;" width="6" x="1154.5" y="712.1797"/><text fill="#000000" font-family="sans-serif" font-size="14" lengthAdjust="spacing" textLength="178" x="1166.5" y="719.4082">generate_close_pinfos(): str</text><ellipse cx="1157.5" cy="732.7891" fill="#84BE84" rx="3" ry="3" style="stroke:#038048;stroke-width:1.0;"/><text fill="#000000" font-family="sans-serif" font-size="14" lengthAdjust="spacing" textLength="185" x="1166.5" y="737.0176">generate_cm_shutdown(): str</text></g><!--MD5=[f80462cc4500d56665537f2fc7ee3e70]
class EventSendGenerator--><g id="elem_EventSendGenerator"><rect codeLine="23" fill="#F1F1F1" height="118.4375" id="EventSendGenerator" rx="2.5" ry="2.5" style="stroke:#181818;stroke-width:0.5;" width="258" x="452" y="874.5"/><ellipse cx="509.75" cy="890.5" fill="#ADD1B2" rx="11" ry="11" style="stroke:#181818;stroke-width:1.0;"/><path d="M512.5156,886.375 Q512.6719,886.1563 512.8594,886.0469 Q513.0469,885.9375 513.2656,885.9375 Q513.6406,885.9375 513.875,886.1953 Q514.1094,886.4531 514.1094,887.0625 L514.1094,888.5156 Q514.1094,889.125 513.875,889.3906 Q513.6406,889.6563 513.2656,889.6563 Q512.9219,889.6563 512.7188,889.4531 Q512.5156,889.2656 512.4063,888.75 Q512.3594,888.3906 512.1719,888.2031 Q511.8438,887.8281 511.2344,887.6094 Q510.625,887.3906 510,887.3906 Q509.2344,887.3906 508.6016,887.7188 Q507.9688,888.0469 507.4766,888.7969 Q506.9844,889.5469 506.9844,890.5781 L506.9844,891.6719 Q506.9844,892.9063 507.875,893.7266 Q508.7656,894.5469 510.3594,894.5469 Q511.2969,894.5469 511.9531,894.2969 Q512.3438,894.1406 512.7656,893.7031 Q513.0313,893.4375 513.1797,893.3594 Q513.3281,893.2813 513.5313,893.2813 Q513.8594,893.2813 514.1172,893.5391 Q514.375,893.7969 514.375,894.1406 Q514.375,894.4844 514.0313,894.8906 Q513.5313,895.4688 512.7344,895.7969 Q511.6563,896.25 510.3594,896.25 Q508.8438,896.25 507.6406,895.625 Q506.6563,895.125 505.9688,894.0547 Q505.2813,892.9844 505.2813,891.7031 L505.2813,890.5469 Q505.2813,889.2188 505.8984,888.0703 Q506.5156,886.9219 507.6094,886.3047 Q508.7031,885.6875 509.9375,885.6875 Q510.6719,885.6875 511.3203,885.8516 Q511.9688,886.0156 512.5156,886.375 Z " fill="#000000"/><text fill="#000000" font-family="sans-serif" font-size="14" lengthAdjust="spacing" textLength="134" x="530.25" y="896.2285">EventSendGenerator</text><line style="stroke:#181818;stroke-width:0.5;" x1="453" x2="709" y1="906.5" y2="906.5"/><rect fill="none" height="6" style="stroke:#C82930;stroke-width:1.0;" width="6" x="460" y="917.8047"/><text fill="#000000" font-family="sans-serif" font-size="14" lengthAdjust="spacing" textLength="89" x="472" y="925.0332">unit_test: bool</text><line style="stroke:#181818;stroke-width:0.5;" x1="453" x2="709" y1="932.1094" y2="932.1094"/><rect fill="#F24D5C" height="6" style="stroke:#C82930;stroke-width:1.0;" width="6" x="460" y="943.4141"/><text fill="#000000" font-family="sans-serif" font-size="14" lengthAdjust="spacing" textLength="159" x="472" y="950.6426">generate_prototype(): str</text><rect fill="#F24D5C" height="6" style="stroke:#C82930;stroke-width:1.0;" width="6" x="460" y="961.0234"/><text fill="#000000" font-family="sans-serif" font-size="14" lengthAdjust="spacing" textLength="232" x="472" y="968.252">generate_event_received_calls(): str</text><rect fill="#F24D5C" height="6" style="stroke:#C82930;stroke-width:1.0;" width="6" x="460" y="978.6328"/><text fill="#000000" font-family="sans-serif" font-size="14" lengthAdjust="spacing" textLength="130" x="472" y="985.8613">generate_body(): str</text></g><!--MD5=[5b4b331521b428b7259af2271a585197]
class ExternalGenerator--><g id="elem_ExternalGenerator"><rect codeLine="30" fill="#F1F1F1" height="83.2188" id="ExternalGenerator" rx="2.5" ry="2.5" style="stroke:#181818;stroke-width:0.5;" width="185" x="745.5" y="892"/><ellipse cx="777.15" cy="908" fill="#ADD1B2" rx="11" ry="11" style="stroke:#181818;stroke-width:1.0;"/><path d="M779.9156,903.875 Q780.0719,903.6563 780.2594,903.5469 Q780.4469,903.4375 780.6656,903.4375 Q781.0406,903.4375 781.275,903.6953 Q781.5094,903.9531 781.5094,904.5625 L781.5094,906.0156 Q781.5094,906.625 781.275,906.8906 Q781.0406,907.1563 780.6656,907.1563 Q780.3219,907.1563 780.1188,906.9531 Q779.9156,906.7656 779.8063,906.25 Q779.7594,905.8906 779.5719,905.7031 Q779.2438,905.3281 778.6344,905.1094 Q778.025,904.8906 777.4,904.8906 Q776.6344,904.8906 776.0016,905.2188 Q775.3688,905.5469 774.8766,906.2969 Q774.3844,907.0469 774.3844,908.0781 L774.3844,909.1719 Q774.3844,910.4063 775.275,911.2266 Q776.1656,912.0469 777.7594,912.0469 Q778.6969,912.0469 779.3531,911.7969 Q779.7438,911.6406 780.1656,911.2031 Q780.4313,910.9375 780.5797,910.8594 Q780.7281,910.7813 780.9313,910.7813 Q781.2594,910.7813 781.5172,911.0391 Q781.775,911.2969 781.775,911.6406 Q781.775,911.9844 781.4313,912.3906 Q780.9313,912.9688 780.1344,913.2969 Q779.0563,913.75 777.7594,913.75 Q776.2438,913.75 775.0406,913.125 Q774.0563,912.625 773.3688,911.5547 Q772.6813,910.4844 772.6813,909.2031 L772.6813,908.0469 Q772.6813,906.7188 773.2984,905.5703 Q773.9156,904.4219 775.0094,903.8047 Q776.1031,903.1875 777.3375,903.1875 Q778.0719,903.1875 778.7203,903.3516 Q779.3688,903.5156 779.9156,903.875 Z " fill="#000000"/><text fill="#000000" font-family="sans-serif" font-size="14" lengthAdjust="spacing" textLength="116" x="794.85" y="913.7285">ExternalGenerator</text><line style="stroke:#181818;stroke-width:0.5;" x1="746.5" x2="929.5" y1="924" y2="924"/><line style="stroke:#181818;stroke-width:0.5;" x1="746.5" x2="929.5" y1="932" y2="932"/><rect fill="#F24D5C" height="6" style="stroke:#C82930;stroke-width:1.0;" width="6" x="753.5" y="943.3047"/><text fill="#000000" font-family="sans-serif" font-size="14" lengthAdjust="spacing" textLength="159" x="765.5" y="950.5332">generate_prototype(): str</text><rect fill="#F24D5C" height="6" style="stroke:#C82930;stroke-width:1.0;" width="6" x="753.5" y="960.9141"/><text fill="#000000" font-family="sans-serif" font-size="14" lengthAdjust="spacing" textLength="130" x="765.5" y="968.1426">generate_body(): str</text></g><!--MD5=[022d7f9c114aa5341a250c90b21eea83]
class GetValueGenerator--><g id="elem_GetValueGenerator"><rect codeLine="35" fill="#F1F1F1" height="83.2188" id="GetValueGenerator" rx="2.5" ry="2.5" style="stroke:#181818;stroke-width:0.5;" width="185" x="965.5" y="892"/><ellipse cx="993.55" cy="908" fill="#ADD1B2" rx="11" ry="11" style="stroke:#181818;stroke-width:1.0;"/><path d="M996.3156,903.875 Q996.4719,903.6563 996.6594,903.5469 Q996.8469,903.4375 997.0656,903.4375 Q997.4406,903.4375 997.675,903.6953 Q997.9094,903.9531 997.9094,904.5625 L997.9094,906.0156 Q997.9094,906.625 997.675,906.8906 Q997.4406,907.1563 997.0656,907.1563 Q996.7219,907.1563 996.5188,906.9531 Q996.3156,906.7656 996.2063,906.25 Q996.1594,905.8906 995.9719,905.7031 Q995.6438,905.3281 995.0344,905.1094 Q994.425,904.8906 993.8,904.8906 Q993.0344,904.8906 992.4016,905.2188 Q991.7688,905.5469 991.2766,906.2969 Q990.7844,907.0469 990.7844,908.0781 L990.7844,909.1719 Q990.7844,910.4063 991.675,911.2266 Q992.5656,912.0469 994.1594,912.0469 Q995.0969,912.0469 995.7531,911.7969 Q996.1438,911.6406 996.5656,911.2031 Q996.8313,910.9375 996.9797,910.8594 Q997.1281,910.7813 997.3313,910.7813 Q997.6594,910.7813 997.9172,911.0391 Q998.175,911.2969 998.175,911.6406 Q998.175,911.9844 997.8313,912.3906 Q997.3313,912.9688 996.5344,913.2969 Q995.4563,913.75 994.1594,913.75 Q992.6438,913.75 991.4406,913.125 Q990.4563,912.625 989.7688,911.5547 Q989.0813,910.4844 989.0813,909.2031 L989.0813,908.0469 Q989.0813,906.7188 989.6984,905.5703 Q990.3156,904.4219 991.4094,903.8047 Q992.5031,903.1875 993.7375,903.1875 Q994.4719,903.1875 995.1203,903.3516 Q995.7688,903.5156 996.3156,903.875 Z " fill="#000000"/><text fill="#000000" font-family="sans-serif" font-size="14" lengthAdjust="spacing" textLength="124" x="1010.45" y="913.7285">GetValueGenerator</text><line style="stroke:#181818;stroke-width:0.5;" x1="966.5" x2="1149.5" y1="924" y2="924"/><line style="stroke:#181818;stroke-width:0.5;" x1="966.5" x2="1149.5" y1="932" y2="932"/><rect fill="#F24D5C" height="6" style="stroke:#C82930;stroke-width:1.0;" width="6" x="973.5" y="943.3047"/><text fill="#000000" font-family="sans-serif" font-size="14" lengthAdjust="spacing" textLength="159" x="985.5" y="950.5332">generate_prototype(): str</text><rect fill="#F24D5C" height="6" style="stroke:#C82930;stroke-width:1.0;" width="6" x="973.5" y="960.9141"/><text fill="#000000" font-family="sans-serif" font-size="14" lengthAdjust="spacing" textLength="130" x="985.5" y="968.1426">generate_body(): str</text></g><!--MD5=[16d450459b859cb11c1495ac68fcbaf5]
class LogsGenerator--><g id="elem_LogsGenerator"><rect codeLine="40" fill="#F1F1F1" height="118.4375" id="LogsGenerator" rx="2.5" ry="2.5" style="stroke:#181818;stroke-width:0.5;" width="185" x="1185.5" y="874.5"/><ellipse cx="1226.15" cy="890.5" fill="#ADD1B2" rx="11" ry="11" style="stroke:#181818;stroke-width:1.0;"/><path d="M1228.9156,886.375 Q1229.0719,886.1563 1229.2594,886.0469 Q1229.4469,885.9375 1229.6656,885.9375 Q1230.0406,885.9375 1230.275,886.1953 Q1230.5094,886.4531 1230.5094,887.0625 L1230.5094,888.5156 Q1230.5094,889.125 1230.275,889.3906 Q1230.0406,889.6563 1229.6656,889.6563 Q1229.3219,889.6563 1229.1188,889.4531 Q1228.9156,889.2656 1228.8063,888.75 Q1228.7594,888.3906 1228.5719,888.2031 Q1228.2438,887.8281 1227.6344,887.6094 Q1227.025,887.3906 1226.4,887.3906 Q1225.6344,887.3906 1225.0016,887.7188 Q1224.3688,888.0469 1223.8766,888.7969 Q1223.3844,889.5469 1223.3844,890.5781 L1223.3844,891.6719 Q1223.3844,892.9063 1224.275,893.7266 Q1225.1656,894.5469 1226.7594,894.5469 Q1227.6969,894.5469 1228.3531,894.2969 Q1228.7438,894.1406 1229.1656,893.7031 Q1229.4313,893.4375 1229.5797,893.3594 Q1229.7281,893.2813 1229.9313,893.2813 Q1230.2594,893.2813 1230.5172,893.5391 Q1230.775,893.7969 1230.775,894.1406 Q1230.775,894.4844 1230.4313,894.8906 Q1229.9313,895.4688 1229.1344,895.7969 Q1228.0563,896.25 1226.7594,896.25 Q1225.2438,896.25 1224.0406,895.625 Q1223.0563,895.125 1222.3688,894.0547 Q1221.6813,892.9844 1221.6813,891.7031 L1221.6813,890.5469 Q1221.6813,889.2188 1222.2984,888.0703 Q1222.9156,886.9219 1224.0094,886.3047 Q1225.1031,885.6875 1226.3375,885.6875 Q1227.0719,885.6875 1227.7203,885.8516 Q1228.3688,886.0156 1228.9156,886.375 Z " fill="#000000"/><text fill="#000000" font-family="sans-serif" font-size="14" lengthAdjust="spacing" textLength="96" x="1245.85" y="896.2285">LogsGenerator</text><line style="stroke:#181818;stroke-width:0.5;" x1="1186.5" x2="1369.5" y1="906.5" y2="906.5"/><rect fill="none" height="6" style="stroke:#C82930;stroke-width:1.0;" width="6" x="1193.5" y="917.8047"/><text fill="#000000" font-family="sans-serif" font-size="14" lengthAdjust="spacing" textLength="79" x="1205.5" y="925.0332">log_level: int</text><line style="stroke:#181818;stroke-width:0.5;" x1="1186.5" x2="1369.5" y1="932.1094" y2="932.1094"/><rect fill="#F24D5C" height="6" style="stroke:#C82930;stroke-width:1.0;" width="6" x="1193.5" y="943.4141"/><text fill="#000000" font-family="sans-serif" font-size="14" lengthAdjust="spacing" textLength="159" x="1205.5" y="950.6426">generate_prototype(): str</text><rect fill="#F24D5C" height="6" style="stroke:#C82930;stroke-width:1.0;" width="6" x="1193.5" y="961.0234"/><text fill="#000000" font-family="sans-serif" font-size="14" lengthAdjust="spacing" textLength="130" x="1205.5" y="968.252">generate_body(): str</text><ellipse cx="1196.5" cy="981.6328" fill="#84BE84" rx="3" ry="3" style="stroke:#038048;stroke-width:1.0;"/><text fill="#000000" font-family="sans-serif" font-size="14" lengthAdjust="spacing" textLength="91" x="1205.5" y="985.8613">generate(): str</text></g><!--MD5=[be7d0547c5413f300701cac254f2d6d2]
class PinfoGenerator--><g id="elem_PinfoGenerator"><rect codeLine="47" fill="#F1F1F1" height="48" id="PinfoGenerator" rx="2.5" ry="2.5" style="stroke:#181818;stroke-width:0.5;" width="129" x="287.5" y="909.5"/><ellipse cx="302.5" cy="925.5" fill="#ADD1B2" rx="11" ry="11" style="stroke:#181818;stroke-width:1.0;"/><path d="M305.2656,921.375 Q305.4219,921.1563 305.6094,921.0469 Q305.7969,920.9375 306.0156,920.9375 Q306.3906,920.9375 306.625,921.1953 Q306.8594,921.4531 306.8594,922.0625 L306.8594,923.5156 Q306.8594,924.125 306.625,924.3906 Q306.3906,924.6563 306.0156,924.6563 Q305.6719,924.6563 305.4688,924.4531 Q305.2656,924.2656 305.1563,923.75 Q305.1094,923.3906 304.9219,923.2031 Q304.5938,922.8281 303.9844,922.6094 Q303.375,922.3906 302.75,922.3906 Q301.9844,922.3906 301.3516,922.7188 Q300.7188,923.0469 300.2266,923.7969 Q299.7344,924.5469 299.7344,925.5781 L299.7344,926.6719 Q299.7344,927.9063 300.625,928.7266 Q301.5156,929.5469 303.1094,929.5469 Q304.0469,929.5469 304.7031,929.2969 Q305.0938,929.1406 305.5156,928.7031 Q305.7813,928.4375 305.9297,928.3594 Q306.0781,928.2813 306.2813,928.2813 Q306.6094,928.2813 306.8672,928.5391 Q307.125,928.7969 307.125,929.1406 Q307.125,929.4844 306.7813,929.8906 Q306.2813,930.4688 305.4844,930.7969 Q304.4063,931.25 303.1094,931.25 Q301.5938,931.25 300.3906,930.625 Q299.4063,930.125 298.7188,929.0547 Q298.0313,927.9844 298.0313,926.7031 L298.0313,925.5469 Q298.0313,924.2188 298.6484,923.0703 Q299.2656,921.9219 300.3594,921.3047 Q301.4531,920.6875 302.6875,920.6875 Q303.4219,920.6875 304.0703,920.8516 Q304.7188,921.0156 305.2656,921.375 Z " fill="#000000"/><text fill="#000000" font-family="sans-serif" font-size="14" lengthAdjust="spacing" textLength="97" x="316.5" y="931.2285">PinfoGenerator</text><line style="stroke:#181818;stroke-width:0.5;" x1="288.5" x2="415.5" y1="941.5" y2="941.5"/><line style="stroke:#181818;stroke-width:0.5;" x1="288.5" x2="415.5" y1="949.5" y2="949.5"/></g><!--MD5=[693036b1ddcd487a01c315f1c3db0d7c]
class ReadGenerator--><g id="elem_ReadGenerator"><rect codeLine="49" fill="#F1F1F1" height="83.2188" id="ReadGenerator" rx="2.5" ry="2.5" style="stroke:#181818;stroke-width:0.5;" width="185" x="537.5" y="1132"/><ellipse cx="576.8" cy="1148" fill="#ADD1B2" rx="11" ry="11" style="stroke:#181818;stroke-width:1.0;"/><path d="M579.5656,1143.875 Q579.7219,1143.6563 579.9094,1143.5469 Q580.0969,1143.4375 580.3156,1143.4375 Q580.6906,1143.4375 580.925,1143.6953 Q581.1594,1143.9531 581.1594,1144.5625 L581.1594,1146.0156 Q581.1594,1146.625 580.925,1146.8906 Q580.6906,1147.1563 580.3156,1147.1563 Q579.9719,1147.1563 579.7688,1146.9531 Q579.5656,1146.7656 579.4563,1146.25 Q579.4094,1145.8906 579.2219,1145.7031 Q578.8938,1145.3281 578.2844,1145.1094 Q577.675,1144.8906 577.05,1144.8906 Q576.2844,1144.8906 575.6516,1145.2188 Q575.0188,1145.5469 574.5266,1146.2969 Q574.0344,1147.0469 574.0344,1148.0781 L574.0344,1149.1719 Q574.0344,1150.4063 574.925,1151.2266 Q575.8156,1152.0469 577.4094,1152.0469 Q578.3469,1152.0469 579.0031,1151.7969 Q579.3938,1151.6406 579.8156,1151.2031 Q580.0813,1150.9375 580.2297,1150.8594 Q580.3781,1150.7813 580.5813,1150.7813 Q580.9094,1150.7813 581.1672,1151.0391 Q581.425,1151.2969 581.425,1151.6406 Q581.425,1151.9844 581.0813,1152.3906 Q580.5813,1152.9688 579.7844,1153.2969 Q578.7063,1153.75 577.4094,1153.75 Q575.8938,1153.75 574.6906,1153.125 Q573.7063,1152.625 573.0188,1151.5547 Q572.3313,1150.4844 572.3313,1149.2031 L572.3313,1148.0469 Q572.3313,1146.7188 572.9484,1145.5703 Q573.5656,1144.4219 574.6594,1143.8047 Q575.7531,1143.1875 576.9875,1143.1875 Q577.7219,1143.1875 578.3703,1143.3516 Q579.0188,1143.5156 579.5656,1143.875 Z " fill="#000000"/><text fill="#000000" font-family="sans-serif" font-size="14" lengthAdjust="spacing" textLength="99" x="596.2" y="1153.7285">ReadGenerator</text><line style="stroke:#181818;stroke-width:0.5;" x1="538.5" x2="721.5" y1="1164" y2="1164"/><line style="stroke:#181818;stroke-width:0.5;" x1="538.5" x2="721.5" y1="1172" y2="1172"/><rect fill="#F24D5C" height="6" style="stroke:#C82930;stroke-width:1.0;" width="6" x="545.5" y="1183.3047"/><text fill="#000000" font-family="sans-serif" font-size="14" lengthAdjust="spacing" textLength="159" x="557.5" y="1190.5332">generate_prototype(): str</text><rect fill="#F24D5C" height="6" style="stroke:#C82930;stroke-width:1.0;" width="6" x="545.5" y="1200.9141"/><text fill="#000000" font-family="sans-serif" font-size="14" lengthAdjust="spacing" textLength="130" x="557.5" y="1208.1426">generate_body(): str</text></g><!--MD5=[0c1f42cedfa5d886417aa9b9475aa58e]
class SeekGenerator--><g id="elem_SeekGenerator"><rect codeLine="54" fill="#F1F1F1" height="83.2188" id="SeekGenerator" rx="2.5" ry="2.5" style="stroke:#181818;stroke-width:0.5;" width="185" x="760.5" y="1132"/><ellipse cx="800.7" cy="1148" fill="#ADD1B2" rx="11" ry="11" style="stroke:#181818;stroke-width:1.0;"/><path d="M803.4656,1143.875 Q803.6219,1143.6563 803.8094,1143.5469 Q803.9969,1143.4375 804.2156,1143.4375 Q804.5906,1143.4375 804.825,1143.6953 Q805.0594,1143.9531 805.0594,1144.5625 L805.0594,1146.0156 Q805.0594,1146.625 804.825,1146.8906 Q804.5906,1147.1563 804.2156,1147.1563 Q803.8719,1147.1563 803.6688,1146.9531 Q803.4656,1146.7656 803.3563,1146.25 Q803.3094,1145.8906 803.1219,1145.7031 Q802.7938,1145.3281 802.1844,1145.1094 Q801.575,1144.8906 800.95,1144.8906 Q800.1844,1144.8906 799.5516,1145.2188 Q798.9188,1145.5469 798.4266,1146.2969 Q797.9344,1147.0469 797.9344,1148.0781 L797.9344,1149.1719 Q797.9344,1150.4063 798.825,1151.2266 Q799.7156,1152.0469 801.3094,1152.0469 Q802.2469,1152.0469 802.9031,1151.7969 Q803.2938,1151.6406 803.7156,1151.2031 Q803.9813,1150.9375 804.1297,1150.8594 Q804.2781,1150.7813 804.4813,1150.7813 Q804.8094,1150.7813 805.0672,1151.0391 Q805.325,1151.2969 805.325,1151.6406 Q805.325,1151.9844 804.9813,1152.3906 Q804.4813,1152.9688 803.6844,1153.2969 Q802.6063,1153.75 801.3094,1153.75 Q799.7938,1153.75 798.5906,1153.125 Q797.6063,1152.625 796.9188,1151.5547 Q796.2313,1150.4844 796.2313,1149.2031 L796.2313,1148.0469 Q796.2313,1146.7188 796.8484,1145.5703 Q797.4656,1144.4219 798.5594,1143.8047 Q799.6531,1143.1875 800.8875,1143.1875 Q801.6219,1143.1875 802.2703,1143.3516 Q802.9188,1143.5156 803.4656,1143.875 Z " fill="#000000"/><text fill="#000000" font-family="sans-serif" font-size="14" lengthAdjust="spacing" textLength="97" x="820.3" y="1153.7285">SeekGenerator</text><line style="stroke:#181818;stroke-width:0.5;" x1="761.5" x2="944.5" y1="1164" y2="1164"/><line style="stroke:#181818;stroke-width:0.5;" x1="761.5" x2="944.5" y1="1172" y2="1172"/><rect fill="#F24D5C" height="6" style="stroke:#C82930;stroke-width:1.0;" width="6" x="768.5" y="1183.3047"/><text fill="#000000" font-family="sans-serif" font-size="14" lengthAdjust="spacing" textLength="159" x="780.5" y="1190.5332">generate_prototype(): str</text><rect fill="#F24D5C" height="6" style="stroke:#C82930;stroke-width:1.0;" width="6" x="768.5" y="1200.9141"/><text fill="#000000" font-family="sans-serif" font-size="14" lengthAdjust="spacing" textLength="130" x="780.5" y="1208.1426">generate_body(): str</text></g><!--MD5=[828b95f8aacc86ee6779b99731cedf1b]
class RecoveryActionGenerator--><g id="elem_RecoveryActionGenerator"><rect codeLine="59" fill="#F1F1F1" height="136.0469" id="RecoveryActionGenerator" rx="2.5" ry="2.5" style="stroke:#181818;stroke-width:0.5;" width="221" x="1405.5" y="865.5"/><ellipse cx="1431.75" cy="881.5" fill="#ADD1B2" rx="11" ry="11" style="stroke:#181818;stroke-width:1.0;"/><path d="M1434.5156,877.375 Q1434.6719,877.1563 1434.8594,877.0469 Q1435.0469,876.9375 1435.2656,876.9375 Q1435.6406,876.9375 1435.875,877.1953 Q1436.1094,877.4531 1436.1094,878.0625 L1436.1094,879.5156 Q1436.1094,880.125 1435.875,880.3906 Q1435.6406,880.6563 1435.2656,880.6563 Q1434.9219,880.6563 1434.7188,880.4531 Q1434.5156,880.2656 1434.4063,879.75 Q1434.3594,879.3906 1434.1719,879.2031 Q1433.8438,878.8281 1433.2344,878.6094 Q1432.625,878.3906 1432,878.3906 Q1431.2344,878.3906 1430.6016,878.7188 Q1429.9688,879.0469 1429.4766,879.7969 Q1428.9844,880.5469 1428.9844,881.5781 L1428.9844,882.6719 Q1428.9844,883.9063 1429.875,884.7266 Q1430.7656,885.5469 1432.3594,885.5469 Q1433.2969,885.5469 1433.9531,885.2969 Q1434.3438,885.1406 1434.7656,884.7031 Q1435.0313,884.4375 1435.1797,884.3594 Q1435.3281,884.2813 1435.5313,884.2813 Q1435.8594,884.2813 1436.1172,884.5391 Q1436.375,884.7969 1436.375,885.1406 Q1436.375,885.4844 1436.0313,885.8906 Q1435.5313,886.4688 1434.7344,886.7969 Q1433.6563,887.25 1432.3594,887.25 Q1430.8438,887.25 1429.6406,886.625 Q1428.6563,886.125 1427.9688,885.0547 Q1427.2813,883.9844 1427.2813,882.7031 L1427.2813,881.5469 Q1427.2813,880.2188 1427.8984,879.0703 Q1428.5156,877.9219 1429.6094,877.3047 Q1430.7031,876.6875 1431.9375,876.6875 Q1432.6719,876.6875 1433.3203,876.8516 Q1433.9688,877.0156 1434.5156,877.375 Z " fill="#000000"/><text fill="#000000" font-family="sans-serif" font-size="14" lengthAdjust="spacing" textLength="164" x="1448.25" y="887.2285">RecoveryActionGenerator</text><line style="stroke:#181818;stroke-width:0.5;" x1="1406.5" x2="1625.5" y1="897.5" y2="897.5"/><rect fill="none" height="6" style="stroke:#C82930;stroke-width:1.0;" width="6" x="1413.5" y="908.8047"/><text fill="#000000" font-family="sans-serif" font-size="14" lengthAdjust="spacing" textLength="70" x="1425.5" y="916.0332">visited: List</text><line style="stroke:#181818;stroke-width:0.5;" x1="1406.5" x2="1625.5" y1="923.1094" y2="923.1094"/><rect fill="#F24D5C" height="6" style="stroke:#C82930;stroke-width:1.0;" width="6" x="1413.5" y="934.4141"/><text fill="#000000" font-family="sans-serif" font-size="14" lengthAdjust="spacing" textLength="195" x="1425.5" y="941.6426">generate_global_function(): str</text><rect fill="#F24D5C" height="6" style="stroke:#C82930;stroke-width:1.0;" width="6" x="1413.5" y="952.0234"/><text fill="#000000" font-family="sans-serif" font-size="14" lengthAdjust="spacing" textLength="159" x="1425.5" y="959.252">generate_prototype(): str</text><rect fill="#F24D5C" height="6" style="stroke:#C82930;stroke-width:1.0;" width="6" x="1413.5" y="969.6328"/><text fill="#000000" font-family="sans-serif" font-size="14" lengthAdjust="spacing" textLength="130" x="1425.5" y="976.8613">generate_body(): str</text><ellipse cx="1416.5" cy="990.2422" fill="#84BE84" rx="3" ry="3" style="stroke:#038048;stroke-width:1.0;"/><text fill="#000000" font-family="sans-serif" font-size="14" lengthAdjust="spacing" textLength="91" x="1425.5" y="994.4707">generate(): str</text></g><!--MD5=[85453b296deee3b6eba9ef00ddfe6348]
class RequestSendGenerator--><g id="elem_RequestSendGenerator"><rect codeLine="67" fill="#F1F1F1" height="118.4375" id="RequestSendGenerator" rx="2.5" ry="2.5" style="stroke:#181818;stroke-width:0.5;" width="271" x="1661.5" y="874.5"/><ellipse cx="1717.25" cy="890.5" fill="#ADD1B2" rx="11" ry="11" style="stroke:#181818;stroke-width:1.0;"/><path d="M1720.0156,886.375 Q1720.1719,886.1563 1720.3594,886.0469 Q1720.5469,885.9375 1720.7656,885.9375 Q1721.1406,885.9375 1721.375,886.1953 Q1721.6094,886.4531 1721.6094,887.0625 L1721.6094,888.5156 Q1721.6094,889.125 1721.375,889.3906 Q1721.1406,889.6563 1720.7656,889.6563 Q1720.4219,889.6563 1720.2188,889.4531 Q1720.0156,889.2656 1719.9063,888.75 Q1719.8594,888.3906 1719.6719,888.2031 Q1719.3438,887.8281 1718.7344,887.6094 Q1718.125,887.3906 1717.5,887.3906 Q1716.7344,887.3906 1716.1016,887.7188 Q1715.4688,888.0469 1714.9766,888.7969 Q1714.4844,889.5469 1714.4844,890.5781 L1714.4844,891.6719 Q1714.4844,892.9063 1715.375,893.7266 Q1716.2656,894.5469 1717.8594,894.5469 Q1718.7969,894.5469 1719.4531,894.2969 Q1719.8438,894.1406 1720.2656,893.7031 Q1720.5313,893.4375 1720.6797,893.3594 Q1720.8281,893.2813 1721.0313,893.2813 Q1721.3594,893.2813 1721.6172,893.5391 Q1721.875,893.7969 1721.875,894.1406 Q1721.875,894.4844 1721.5313,894.8906 Q1721.0313,895.4688 1720.2344,895.7969 Q1719.1563,896.25 1717.8594,896.25 Q1716.3438,896.25 1715.1406,895.625 Q1714.1563,895.125 1713.4688,894.0547 Q1712.7813,892.9844 1712.7813,891.7031 L1712.7813,890.5469 Q1712.7813,889.2188 1713.3984,888.0703 Q1714.0156,886.9219 1715.1094,886.3047 Q1716.2031,885.6875 1717.4375,885.6875 Q1718.1719,885.6875 1718.8203,885.8516 Q1719.4688,886.0156 1720.0156,886.375 Z " fill="#000000"/><text fill="#000000" font-family="sans-serif" font-size="14" lengthAdjust="spacing" textLength="151" x="1737.75" y="896.2285">RequestSendGenerator</text><line style="stroke:#181818;stroke-width:0.5;" x1="1662.5" x2="1931.5" y1="906.5" y2="906.5"/><rect fill="none" height="6" style="stroke:#C82930;stroke-width:1.0;" width="6" x="1669.5" y="917.8047"/><text fill="#000000" font-family="sans-serif" font-size="14" lengthAdjust="spacing" textLength="89" x="1681.5" y="925.0332">unit_test: bool</text><line style="stroke:#181818;stroke-width:0.5;" x1="1662.5" x2="1931.5" y1="932.1094" y2="932.1094"/><rect fill="#F24D5C" height="6" style="stroke:#C82930;stroke-width:1.0;" width="6" x="1669.5" y="943.4141"/><text fill="#000000" font-family="sans-serif" font-size="14" lengthAdjust="spacing" textLength="159" x="1681.5" y="950.6426">generate_prototype(): str</text><rect fill="#F24D5C" height="6" style="stroke:#C82930;stroke-width:1.0;" width="6" x="1669.5" y="961.0234"/><text fill="#000000" font-family="sans-serif" font-size="14" lengthAdjust="spacing" textLength="245" x="1681.5" y="968.252">generate_request_received_calls(): str</text><rect fill="#F24D5C" height="6" style="stroke:#C82930;stroke-width:1.0;" width="6" x="1669.5" y="978.6328"/><text fill="#000000" font-family="sans-serif" font-size="14" lengthAdjust="spacing" textLength="130" x="1681.5" y="985.8613">generate_body(): str</text></g><!--MD5=[c443e5df433b112532a769e8122be03e]
class ResponseSendGenerator--><g id="elem_ResponseSendGenerator"><rect codeLine="74" fill="#F1F1F1" height="136.0469" id="ResponseSendGenerator" rx="2.5" ry="2.5" style="stroke:#181818;stroke-width:0.5;" width="275" x="1967.5" y="865.5"/><ellipse cx="2019.75" cy="881.5" fill="#ADD1B2" rx="11" ry="11" style="stroke:#181818;stroke-width:1.0;"/><path d="M2022.5156,877.375 Q2022.6719,877.1563 2022.8594,877.0469 Q2023.0469,876.9375 2023.2656,876.9375 Q2023.6406,876.9375 2023.875,877.1953 Q2024.1094,877.4531 2024.1094,878.0625 L2024.1094,879.5156 Q2024.1094,880.125 2023.875,880.3906 Q2023.6406,880.6563 2023.2656,880.6563 Q2022.9219,880.6563 2022.7188,880.4531 Q2022.5156,880.2656 2022.4063,879.75 Q2022.3594,879.3906 2022.1719,879.2031 Q2021.8438,878.8281 2021.2344,878.6094 Q2020.625,878.3906 2020,878.3906 Q2019.2344,878.3906 2018.6016,878.7188 Q2017.9688,879.0469 2017.4766,879.7969 Q2016.9844,880.5469 2016.9844,881.5781 L2016.9844,882.6719 Q2016.9844,883.9063 2017.875,884.7266 Q2018.7656,885.5469 2020.3594,885.5469 Q2021.2969,885.5469 2021.9531,885.2969 Q2022.3438,885.1406 2022.7656,884.7031 Q2023.0313,884.4375 2023.1797,884.3594 Q2023.3281,884.2813 2023.5313,884.2813 Q2023.8594,884.2813 2024.1172,884.5391 Q2024.375,884.7969 2024.375,885.1406 Q2024.375,885.4844 2024.0313,885.8906 Q2023.5313,886.4688 2022.7344,886.7969 Q2021.6563,887.25 2020.3594,887.25 Q2018.8438,887.25 2017.6406,886.625 Q2016.6563,886.125 2015.9688,885.0547 Q2015.2813,883.9844 2015.2813,882.7031 L2015.2813,881.5469 Q2015.2813,880.2188 2015.8984,879.0703 Q2016.5156,877.9219 2017.6094,877.3047 Q2018.7031,876.6875 2019.9375,876.6875 Q2020.6719,876.6875 2021.3203,876.8516 Q2021.9688,877.0156 2022.5156,877.375 Z " fill="#000000"/><text fill="#000000" font-family="sans-serif" font-size="14" lengthAdjust="spacing" textLength="162" x="2040.25" y="887.2285">ResponseSendGenerator</text><line style="stroke:#181818;stroke-width:0.5;" x1="1968.5" x2="2241.5" y1="897.5" y2="897.5"/><rect fill="none" height="6" style="stroke:#C82930;stroke-width:1.0;" width="6" x="1975.5" y="908.8047"/><text fill="#000000" font-family="sans-serif" font-size="14" lengthAdjust="spacing" textLength="89" x="1987.5" y="916.0332">unit_test: bool</text><line style="stroke:#181818;stroke-width:0.5;" x1="1968.5" x2="2241.5" y1="923.1094" y2="923.1094"/><rect fill="#F24D5C" height="6" style="stroke:#C82930;stroke-width:1.0;" width="6" x="1975.5" y="934.4141"/><text fill="#000000" font-family="sans-serif" font-size="14" lengthAdjust="spacing" textLength="159" x="1987.5" y="941.6426">generate_prototype(): str</text><rect fill="#F24D5C" height="6" style="stroke:#C82930;stroke-width:1.0;" width="6" x="1975.5" y="952.0234"/><text fill="#000000" font-family="sans-serif" font-size="14" lengthAdjust="spacing" textLength="187" x="1987.5" y="959.252">generate_memcpy_calls(): str</text><rect fill="#F24D5C" height="6" style="stroke:#C82930;stroke-width:1.0;" width="6" x="1975.5" y="969.6328"/><text fill="#000000" font-family="sans-serif" font-size="14" lengthAdjust="spacing" textLength="249" x="1987.5" y="976.8613">generate_response_received_call(): str</text><rect fill="#F24D5C" height="6" style="stroke:#C82930;stroke-width:1.0;" width="6" x="1975.5" y="987.2422"/><text fill="#000000" font-family="sans-serif" font-size="14" lengthAdjust="spacing" textLength="130" x="1987.5" y="994.4707">generate_body(): str</text></g><!--MD5=[d9ebb20967923ac7ea72d77db03958fd]
class SaveWarmStartContextGenerator--><g id="elem_SaveWarmStartContextGenerator"><rect codeLine="82" fill="#F1F1F1" height="83.2188" id="SaveWarmStartContextGenerator" rx="2.5" ry="2.5" style="stroke:#181818;stroke-width:0.5;" width="244" x="2278" y="892"/><ellipse cx="2293" cy="908" fill="#ADD1B2" rx="11" ry="11" style="stroke:#181818;stroke-width:1.0;"/><path d="M2295.7656,903.875 Q2295.9219,903.6563 2296.1094,903.5469 Q2296.2969,903.4375 2296.5156,903.4375 Q2296.8906,903.4375 2297.125,903.6953 Q2297.3594,903.9531 2297.3594,904.5625 L2297.3594,906.0156 Q2297.3594,906.625 2297.125,906.8906 Q2296.8906,907.1563 2296.5156,907.1563 Q2296.1719,907.1563 2295.9688,906.9531 Q2295.7656,906.7656 2295.6563,906.25 Q2295.6094,905.8906 2295.4219,905.7031 Q2295.0938,905.3281 2294.4844,905.1094 Q2293.875,904.8906 2293.25,904.8906 Q2292.4844,904.8906 2291.8516,905.2188 Q2291.2188,905.5469 2290.7266,906.2969 Q2290.2344,907.0469 2290.2344,908.0781 L2290.2344,909.1719 Q2290.2344,910.4063 2291.125,911.2266 Q2292.0156,912.0469 2293.6094,912.0469 Q2294.5469,912.0469 2295.2031,911.7969 Q2295.5938,911.6406 2296.0156,911.2031 Q2296.2813,910.9375 2296.4297,910.8594 Q2296.5781,910.7813 2296.7813,910.7813 Q2297.1094,910.7813 2297.3672,911.0391 Q2297.625,911.2969 2297.625,911.6406 Q2297.625,911.9844 2297.2813,912.3906 Q2296.7813,912.9688 2295.9844,913.2969 Q2294.9063,913.75 2293.6094,913.75 Q2292.0938,913.75 2290.8906,913.125 Q2289.9063,912.625 2289.2188,911.5547 Q2288.5313,910.4844 2288.5313,909.2031 L2288.5313,908.0469 Q2288.5313,906.7188 2289.1484,905.5703 Q2289.7656,904.4219 2290.8594,903.8047 Q2291.9531,903.1875 2293.1875,903.1875 Q2293.9219,903.1875 2294.5703,903.3516 Q2295.2188,903.5156 2295.7656,903.875 Z " fill="#000000"/><text fill="#000000" font-family="sans-serif" font-size="14" lengthAdjust="spacing" textLength="212" x="2307" y="913.7285">SaveWarmStartContextGenerator</text><line style="stroke:#181818;stroke-width:0.5;" x1="2279" x2="2521" y1="924" y2="924"/><line style="stroke:#181818;stroke-width:0.5;" x1="2279" x2="2521" y1="932" y2="932"/><rect fill="#F24D5C" height="6" style="stroke:#C82930;stroke-width:1.0;" width="6" x="2286" y="943.3047"/><text fill="#000000" font-family="sans-serif" font-size="14" lengthAdjust="spacing" textLength="159" x="2298" y="950.5332">generate_prototype(): str</text><rect fill="#F24D5C" height="6" style="stroke:#C82930;stroke-width:1.0;" width="6" x="2286" y="960.9141"/><text fill="#000000" font-family="sans-serif" font-size="14" lengthAdjust="spacing" textLength="130" x="2298" y="968.1426">generate_body(): str</text></g><!--MD5=[91c4897f7df416fb02c9e2f9fbf44dd4]
class TimeServicesGenerator--><g id="elem_TimeServicesGenerator"><rect codeLine="87" fill="#F1F1F1" height="48" id="TimeServicesGenerator" rx="2.5" ry="2.5" style="stroke:#181818;stroke-width:0.5;" width="182" x="70" y="909.5"/><ellipse cx="85" cy="925.5" fill="#ADD1B2" rx="11" ry="11" style="stroke:#181818;stroke-width:1.0;"/><path d="M87.7656,921.375 Q87.9219,921.1563 88.1094,921.0469 Q88.2969,920.9375 88.5156,920.9375 Q88.8906,920.9375 89.125,921.1953 Q89.3594,921.4531 89.3594,922.0625 L89.3594,923.5156 Q89.3594,924.125 89.125,924.3906 Q88.8906,924.6563 88.5156,924.6563 Q88.1719,924.6563 87.9688,924.4531 Q87.7656,924.2656 87.6563,923.75 Q87.6094,923.3906 87.4219,923.2031 Q87.0938,922.8281 86.4844,922.6094 Q85.875,922.3906 85.25,922.3906 Q84.4844,922.3906 83.8516,922.7188 Q83.2188,923.0469 82.7266,923.7969 Q82.2344,924.5469 82.2344,925.5781 L82.2344,926.6719 Q82.2344,927.9063 83.125,928.7266 Q84.0156,929.5469 85.6094,929.5469 Q86.5469,929.5469 87.2031,929.2969 Q87.5938,929.1406 88.0156,928.7031 Q88.2813,928.4375 88.4297,928.3594 Q88.5781,928.2813 88.7813,928.2813 Q89.1094,928.2813 89.3672,928.5391 Q89.625,928.7969 89.625,929.1406 Q89.625,929.4844 89.2813,929.8906 Q88.7813,930.4688 87.9844,930.7969 Q86.9063,931.25 85.6094,931.25 Q84.0938,931.25 82.8906,930.625 Q81.9063,930.125 81.2188,929.0547 Q80.5313,927.9844 80.5313,926.7031 L80.5313,925.5469 Q80.5313,924.2188 81.1484,923.0703 Q81.7656,921.9219 82.8594,921.3047 Q83.9531,920.6875 85.1875,920.6875 Q85.9219,920.6875 86.5703,920.8516 Q87.2188,921.0156 87.7656,921.375 Z " fill="#000000"/><text fill="#000000" font-family="sans-serif" font-size="14" lengthAdjust="spacing" textLength="150" x="99" y="931.2285">TimeServicesGenerator</text><line style="stroke:#181818;stroke-width:0.5;" x1="71" x2="251" y1="941.5" y2="941.5"/><line style="stroke:#181818;stroke-width:0.5;" x1="71" x2="251" y1="949.5" y2="949.5"/></g><!--MD5=[32b8e91b0c852347628233c03b766add]
class TimeGenerator--><g id="elem_TimeGenerator"><rect codeLine="89" fill="#F1F1F1" height="100.8281" id="TimeGenerator" rx="2.5" ry="2.5" style="stroke:#181818;stroke-width:0.5;" width="185" x="71.5" y="1123"/><ellipse cx="112.15" cy="1139" fill="#ADD1B2" rx="11" ry="11" style="stroke:#181818;stroke-width:1.0;"/><path d="M114.9156,1134.875 Q115.0719,1134.6563 115.2594,1134.5469 Q115.4469,1134.4375 115.6656,1134.4375 Q116.0406,1134.4375 116.275,1134.6953 Q116.5094,1134.9531 116.5094,1135.5625 L116.5094,1137.0156 Q116.5094,1137.625 116.275,1137.8906 Q116.0406,1138.1563 115.6656,1138.1563 Q115.3219,1138.1563 115.1188,1137.9531 Q114.9156,1137.7656 114.8063,1137.25 Q114.7594,1136.8906 114.5719,1136.7031 Q114.2438,1136.3281 113.6344,1136.1094 Q113.025,1135.8906 112.4,1135.8906 Q111.6344,1135.8906 111.0016,1136.2188 Q110.3688,1136.5469 109.8766,1137.2969 Q109.3844,1138.0469 109.3844,1139.0781 L109.3844,1140.1719 Q109.3844,1141.4063 110.275,1142.2266 Q111.1656,1143.0469 112.7594,1143.0469 Q113.6969,1143.0469 114.3531,1142.7969 Q114.7438,1142.6406 115.1656,1142.2031 Q115.4313,1141.9375 115.5797,1141.8594 Q115.7281,1141.7813 115.9313,1141.7813 Q116.2594,1141.7813 116.5172,1142.0391 Q116.775,1142.2969 116.775,1142.6406 Q116.775,1142.9844 116.4313,1143.3906 Q115.9313,1143.9688 115.1344,1144.2969 Q114.0563,1144.75 112.7594,1144.75 Q111.2438,1144.75 110.0406,1144.125 Q109.0563,1143.625 108.3688,1142.5547 Q107.6813,1141.4844 107.6813,1140.2031 L107.6813,1139.0469 Q107.6813,1137.7188 108.2984,1136.5703 Q108.9156,1135.4219 110.0094,1134.8047 Q111.1031,1134.1875 112.3375,1134.1875 Q113.0719,1134.1875 113.7203,1134.3516 Q114.3688,1134.5156 114.9156,1134.875 Z " fill="#000000"/><text fill="#000000" font-family="sans-serif" font-size="14" lengthAdjust="spacing" textLength="96" x="131.85" y="1144.7285">TimeGenerator</text><line style="stroke:#181818;stroke-width:0.5;" x1="72.5" x2="255.5" y1="1155" y2="1155"/><rect fill="none" height="6" style="stroke:#C82930;stroke-width:1.0;" width="6" x="79.5" y="1166.3047"/><text fill="#000000" font-family="sans-serif" font-size="14" lengthAdjust="spacing" textLength="51" x="91.5" y="1173.5332">type: str</text><line style="stroke:#181818;stroke-width:0.5;" x1="72.5" x2="255.5" y1="1180.6094" y2="1180.6094"/><rect fill="#F24D5C" height="6" style="stroke:#C82930;stroke-width:1.0;" width="6" x="79.5" y="1191.9141"/><text fill="#000000" font-family="sans-serif" font-size="14" lengthAdjust="spacing" textLength="159" x="91.5" y="1199.1426">generate_prototype(): str</text><rect fill="#F24D5C" height="6" style="stroke:#C82930;stroke-width:1.0;" width="6" x="79.5" y="1209.5234"/><text fill="#000000" font-family="sans-serif" font-size="14" lengthAdjust="spacing" textLength="130" x="91.5" y="1216.752">generate_body(): str</text></g><!--MD5=[01c8ac357490edaeefcd43041bbe61b7]
class TimeResolutionGenerator--><g id="elem_TimeResolutionGenerator"><rect codeLine="95" fill="#F1F1F1" height="100.8281" id="TimeResolutionGenerator" rx="2.5" ry="2.5" style="stroke:#181818;stroke-width:0.5;" width="195" x="302.5" y="1123"/><ellipse cx="317.5" cy="1139" fill="#ADD1B2" rx="11" ry="11" style="stroke:#181818;stroke-width:1.0;"/><path d="M320.2656,1134.875 Q320.4219,1134.6563 320.6094,1134.5469 Q320.7969,1134.4375 321.0156,1134.4375 Q321.3906,1134.4375 321.625,1134.6953 Q321.8594,1134.9531 321.8594,1135.5625 L321.8594,1137.0156 Q321.8594,1137.625 321.625,1137.8906 Q321.3906,1138.1563 321.0156,1138.1563 Q320.6719,1138.1563 320.4688,1137.9531 Q320.2656,1137.7656 320.1563,1137.25 Q320.1094,1136.8906 319.9219,1136.7031 Q319.5938,1136.3281 318.9844,1136.1094 Q318.375,1135.8906 317.75,1135.8906 Q316.9844,1135.8906 316.3516,1136.2188 Q315.7188,1136.5469 315.2266,1137.2969 Q314.7344,1138.0469 314.7344,1139.0781 L314.7344,1140.1719 Q314.7344,1141.4063 315.625,1142.2266 Q316.5156,1143.0469 318.1094,1143.0469 Q319.0469,1143.0469 319.7031,1142.7969 Q320.0938,1142.6406 320.5156,1142.2031 Q320.7813,1141.9375 320.9297,1141.8594 Q321.0781,1141.7813 321.2813,1141.7813 Q321.6094,1141.7813 321.8672,1142.0391 Q322.125,1142.2969 322.125,1142.6406 Q322.125,1142.9844 321.7813,1143.3906 Q321.2813,1143.9688 320.4844,1144.2969 Q319.4063,1144.75 318.1094,1144.75 Q316.5938,1144.75 315.3906,1144.125 Q314.4063,1143.625 313.7188,1142.5547 Q313.0313,1141.4844 313.0313,1140.2031 L313.0313,1139.0469 Q313.0313,1137.7188 313.6484,1136.5703 Q314.2656,1135.4219 315.3594,1134.8047 Q316.4531,1134.1875 317.6875,1134.1875 Q318.4219,1134.1875 319.0703,1134.3516 Q319.7188,1134.5156 320.2656,1134.875 Z " fill="#000000"/><text fill="#000000" font-family="sans-serif" font-size="14" lengthAdjust="spacing" textLength="163" x="331.5" y="1144.7285">TimeResolutionGenerator</text><line style="stroke:#181818;stroke-width:0.5;" x1="303.5" x2="496.5" y1="1155" y2="1155"/><rect fill="none" height="6" style="stroke:#C82930;stroke-width:1.0;" width="6" x="310.5" y="1166.3047"/><text fill="#000000" font-family="sans-serif" font-size="14" lengthAdjust="spacing" textLength="51" x="322.5" y="1173.5332">type: str</text><line style="stroke:#181818;stroke-width:0.5;" x1="303.5" x2="496.5" y1="1180.6094" y2="1180.6094"/><rect fill="#F24D5C" height="6" style="stroke:#C82930;stroke-width:1.0;" width="6" x="310.5" y="1191.9141"/><text fill="#000000" font-family="sans-serif" font-size="14" lengthAdjust="spacing" textLength="159" x="322.5" y="1199.1426">generate_prototype(): str</text><rect fill="#F24D5C" height="6" style="stroke:#C82930;stroke-width:1.0;" width="6" x="310.5" y="1209.5234"/><text fill="#000000" font-family="sans-serif" font-size="14" lengthAdjust="spacing" textLength="130" x="322.5" y="1216.752">generate_body(): str</text></g><!--MD5=[d65c74aa9a0da28c7b5659274aca0c07]
class VersionedDataGenerator--><g id="elem_VersionedDataGenerator"><rect codeLine="101" fill="#F1F1F1" height="259.3125" id="VersionedDataGenerator" rx="2.5" ry="2.5" style="stroke:#181818;stroke-width:0.5;" width="407" x="2557.5" y="804"/><ellipse cx="2677.25" cy="820" fill="#ADD1B2" rx="11" ry="11" style="stroke:#181818;stroke-width:1.0;"/><path d="M2680.0156,815.875 Q2680.1719,815.6563 2680.3594,815.5469 Q2680.5469,815.4375 2680.7656,815.4375 Q2681.1406,815.4375 2681.375,815.6953 Q2681.6094,815.9531 2681.6094,816.5625 L2681.6094,818.0156 Q2681.6094,818.625 2681.375,818.8906 Q2681.1406,819.1563 2680.7656,819.1563 Q2680.4219,819.1563 2680.2188,818.9531 Q2680.0156,818.7656 2679.9063,818.25 Q2679.8594,817.8906 2679.6719,817.7031 Q2679.3438,817.3281 2678.7344,817.1094 Q2678.125,816.8906 2677.5,816.8906 Q2676.7344,816.8906 2676.1016,817.2188 Q2675.4688,817.5469 2674.9766,818.2969 Q2674.4844,819.0469 2674.4844,820.0781 L2674.4844,821.1719 Q2674.4844,822.4063 2675.375,823.2266 Q2676.2656,824.0469 2677.8594,824.0469 Q2678.7969,824.0469 2679.4531,823.7969 Q2679.8438,823.6406 2680.2656,823.2031 Q2680.5313,822.9375 2680.6797,822.8594 Q2680.8281,822.7813 2681.0313,822.7813 Q2681.3594,822.7813 2681.6172,823.0391 Q2681.875,823.2969 2681.875,823.6406 Q2681.875,823.9844 2681.5313,824.3906 Q2681.0313,824.9688 2680.2344,825.2969 Q2679.1563,825.75 2677.8594,825.75 Q2676.3438,825.75 2675.1406,825.125 Q2674.1563,824.625 2673.4688,823.5547 Q2672.7813,822.4844 2672.7813,821.2031 L2672.7813,820.0469 Q2672.7813,818.7188 2673.3984,817.5703 Q2674.0156,816.4219 2675.1094,815.8047 Q2676.2031,815.1875 2677.4375,815.1875 Q2678.1719,815.1875 2678.8203,815.3516 Q2679.4688,815.5156 2680.0156,815.875 Z " fill="#000000"/><text fill="#000000" font-family="sans-serif" font-size="14" lengthAdjust="spacing" textLength="159" x="2697.75" y="825.7285">VersionedDataGenerator</text><line style="stroke:#181818;stroke-width:0.5;" x1="2558.5" x2="2963.5" y1="836" y2="836"/><rect fill="none" height="6" style="stroke:#C82930;stroke-width:1.0;" width="6" x="2565.5" y="847.3047"/><text fill="#000000" font-family="sans-serif" font-size="14" lengthAdjust="spacing" textLength="51" x="2577.5" y="854.5332">type: str</text><rect fill="none" height="6" style="stroke:#C82930;stroke-width:1.0;" width="6" x="2565.5" y="864.9141"/><text fill="#000000" font-family="sans-serif" font-size="14" lengthAdjust="spacing" textLength="59" x="2577.5" y="872.1426">mode: str</text><rect fill="none" height="6" style="stroke:#C82930;stroke-width:1.0;" width="6" x="2565.5" y="882.5234"/><text fill="#000000" font-family="sans-serif" font-size="14" lengthAdjust="spacing" textLength="89" x="2577.5" y="889.752">unit_test: bool</text><line style="stroke:#181818;stroke-width:0.5;" x1="2558.5" x2="2963.5" y1="896.8281" y2="896.8281"/><rect fill="#F24D5C" height="6" style="stroke:#C82930;stroke-width:1.0;" width="6" x="2565.5" y="908.1328"/><text fill="#000000" font-family="sans-serif" font-size="14" lengthAdjust="spacing" textLength="159" x="2577.5" y="915.3613">generate_prototype(): str</text><rect fill="#F24D5C" height="6" style="stroke:#C82930;stroke-width:1.0;" width="6" x="2565.5" y="925.7422"/><text fill="#000000" font-family="sans-serif" font-size="14" lengthAdjust="spacing" textLength="247" x="2577.5" y="932.9707">generate_get_read_access_body(): str</text><rect fill="#F24D5C" height="6" style="stroke:#C82930;stroke-width:1.0;" width="6" x="2565.5" y="943.3516"/><text fill="#000000" font-family="sans-serif" font-size="14" lengthAdjust="spacing" textLength="247" x="2577.5" y="950.5801">generate_get_write_access_body(): str</text><rect fill="#F24D5C" height="6" style="stroke:#C82930;stroke-width:1.0;" width="6" x="2565.5" y="960.9609"/><text fill="#000000" font-family="sans-serif" font-size="14" lengthAdjust="spacing" textLength="272" x="2577.5" y="968.1895">generate_publish_write_access_body(): str</text><rect fill="#F24D5C" height="6" style="stroke:#C82930;stroke-width:1.0;" width="6" x="2565.5" y="978.5703"/><text fill="#000000" font-family="sans-serif" font-size="14" lengthAdjust="spacing" textLength="381" x="2577.5" y="985.7988">generate_release_read_or_cancel_write_access_body(): str</text><rect fill="#F24D5C" height="6" style="stroke:#C82930;stroke-width:1.0;" width="6" x="2565.5" y="996.1797"/><text fill="#000000" font-family="sans-serif" font-size="14" lengthAdjust="spacing" textLength="130" x="2577.5" y="1003.4082">generate_body(): str</text><rect fill="#F24D5C" height="6" style="stroke:#C82930;stroke-width:1.0;" width="6" x="2565.5" y="1013.7891"/><text fill="#000000" font-family="sans-serif" font-size="14" lengthAdjust="spacing" textLength="164" x="2577.5" y="1021.0176">generate_data_read(): str</text><rect fill="#F24D5C" height="6" style="stroke:#C82930;stroke-width:1.0;" width="6" x="2565.5" y="1031.3984"/><text fill="#000000" font-family="sans-serif" font-size="14" lengthAdjust="spacing" textLength="176" x="2577.5" y="1038.627">generate_data_written(): str</text><ellipse cx="2568.5" cy="1052.0078" fill="#84BE84" rx="3" ry="3" style="stroke:#038048;stroke-width:1.0;"/><text fill="#000000" font-family="sans-serif" font-size="14" lengthAdjust="spacing" textLength="91" x="2577.5" y="1056.2363">generate(): str</text></g><!--MD5=[f91faa4f40462b6741f9bff5aa53201d]
class CMGlobalVariableGenerator--><g id="elem_CMGlobalVariableGenerator"><rect codeLine="120" fill="#F1F1F1" height="65.6094" id="CMGlobalVariableGenerator" rx="2.5" ry="2.5" style="stroke:#181818;stroke-width:0.5;" width="211" x="1030.5" y="262"/><ellipse cx="1045.5" cy="278" fill="#ADD1B2" rx="11" ry="11" style="stroke:#181818;stroke-width:1.0;"/><path d="M1048.2656,273.875 Q1048.4219,273.6563 1048.6094,273.5469 Q1048.7969,273.4375 1049.0156,273.4375 Q1049.3906,273.4375 1049.625,273.6953 Q1049.8594,273.9531 1049.8594,274.5625 L1049.8594,276.0156 Q1049.8594,276.625 1049.625,276.8906 Q1049.3906,277.1563 1049.0156,277.1563 Q1048.6719,277.1563 1048.4688,276.9531 Q1048.2656,276.7656 1048.1563,276.25 Q1048.1094,275.8906 1047.9219,275.7031 Q1047.5938,275.3281 1046.9844,275.1094 Q1046.375,274.8906 1045.75,274.8906 Q1044.9844,274.8906 1044.3516,275.2188 Q1043.7188,275.5469 1043.2266,276.2969 Q1042.7344,277.0469 1042.7344,278.0781 L1042.7344,279.1719 Q1042.7344,280.4063 1043.625,281.2266 Q1044.5156,282.0469 1046.1094,282.0469 Q1047.0469,282.0469 1047.7031,281.7969 Q1048.0938,281.6406 1048.5156,281.2031 Q1048.7813,280.9375 1048.9297,280.8594 Q1049.0781,280.7813 1049.2813,280.7813 Q1049.6094,280.7813 1049.8672,281.0391 Q1050.125,281.2969 1050.125,281.6406 Q1050.125,281.9844 1049.7813,282.3906 Q1049.2813,282.9688 1048.4844,283.2969 Q1047.4063,283.75 1046.1094,283.75 Q1044.5938,283.75 1043.3906,283.125 Q1042.4063,282.625 1041.7188,281.5547 Q1041.0313,280.4844 1041.0313,279.2031 L1041.0313,278.0469 Q1041.0313,276.7188 1041.6484,275.5703 Q1042.2656,274.4219 1043.3594,273.8047 Q1044.4531,273.1875 1045.6875,273.1875 Q1046.4219,273.1875 1047.0703,273.3516 Q1047.7188,273.5156 1048.2656,273.875 Z " fill="#000000"/><text fill="#000000" font-family="sans-serif" font-size="14" lengthAdjust="spacing" textLength="179" x="1059.5" y="283.7285">CMGlobalVariableGenerator</text><line style="stroke:#181818;stroke-width:0.5;" x1="1031.5" x2="1240.5" y1="294" y2="294"/><line style="stroke:#181818;stroke-width:0.5;" x1="1031.5" x2="1240.5" y1="302" y2="302"/><ellipse cx="1041.5" cy="316.3047" fill="#84BE84" rx="3" ry="3" style="stroke:#038048;stroke-width:1.0;"/><text fill="#000000" font-family="sans-serif" font-size="14" lengthAdjust="spacing" textLength="91" x="1050.5" y="320.5332">generate(): str</text></g><!--MD5=[6bdd61a7fbc14246d160b72ab6388a30]
class ModuleInstantiationGenerator--><g id="elem_ModuleInstantiationGenerator"><rect codeLine="124" fill="#F1F1F1" height="329.75" id="ModuleInstantiationGenerator" rx="2.5" ry="2.5" style="stroke:#181818;stroke-width:0.5;" width="284" x="1277" y="130"/><ellipse cx="1321.25" cy="146" fill="#ADD1B2" rx="11" ry="11" style="stroke:#181818;stroke-width:1.0;"/><path d="M1324.0156,141.875 Q1324.1719,141.6563 1324.3594,141.5469 Q1324.5469,141.4375 1324.7656,141.4375 Q1325.1406,141.4375 1325.375,141.6953 Q1325.6094,141.9531 1325.6094,142.5625 L1325.6094,144.0156 Q1325.6094,144.625 1325.375,144.8906 Q1325.1406,145.1563 1324.7656,145.1563 Q1324.4219,145.1563 1324.2188,144.9531 Q1324.0156,144.7656 1323.9063,144.25 Q1323.8594,143.8906 1323.6719,143.7031 Q1323.3438,143.3281 1322.7344,143.1094 Q1322.125,142.8906 1321.5,142.8906 Q1320.7344,142.8906 1320.1016,143.2188 Q1319.4688,143.5469 1318.9766,144.2969 Q1318.4844,145.0469 1318.4844,146.0781 L1318.4844,147.1719 Q1318.4844,148.4063 1319.375,149.2266 Q1320.2656,150.0469 1321.8594,150.0469 Q1322.7969,150.0469 1323.4531,149.7969 Q1323.8438,149.6406 1324.2656,149.2031 Q1324.5313,148.9375 1324.6797,148.8594 Q1324.8281,148.7813 1325.0313,148.7813 Q1325.3594,148.7813 1325.6172,149.0391 Q1325.875,149.2969 1325.875,149.6406 Q1325.875,149.9844 1325.5313,150.3906 Q1325.0313,150.9688 1324.2344,151.2969 Q1323.1563,151.75 1321.8594,151.75 Q1320.3438,151.75 1319.1406,151.125 Q1318.1563,150.625 1317.4688,149.5547 Q1316.7813,148.4844 1316.7813,147.2031 L1316.7813,146.0469 Q1316.7813,144.7188 1317.3984,143.5703 Q1318.0156,142.4219 1319.1094,141.8047 Q1320.2031,141.1875 1321.4375,141.1875 Q1322.1719,141.1875 1322.8203,141.3516 Q1323.4688,141.5156 1324.0156,141.875 Z " fill="#000000"/><text fill="#000000" font-family="sans-serif" font-size="14" lengthAdjust="spacing" textLength="187" x="1341.75" y="151.7285">ModuleInstantiationGenerator</text><line style="stroke:#181818;stroke-width:0.5;" x1="1278" x2="1560" y1="162" y2="162"/><rect fill="none" height="6" style="stroke:#C82930;stroke-width:1.0;" width="6" x="1285" y="173.3047"/><text fill="#000000" font-family="sans-serif" font-size="14" lengthAdjust="spacing" textLength="99" x="1297" y="180.5332">indent_level: int</text><rect fill="none" height="6" style="stroke:#C82930;stroke-width:1.0;" width="6" x="1285" y="190.9141"/><text fill="#000000" font-family="sans-serif" font-size="14" lengthAdjust="spacing" textLength="97" x="1297" y="198.1426">indent_step: int</text><rect fill="none" height="6" style="stroke:#C82930;stroke-width:1.0;" width="6" x="1285" y="208.5234"/><text fill="#000000" font-family="sans-serif" font-size="14" lengthAdjust="spacing" textLength="70" x="1297" y="215.752">visited: List</text><line style="stroke:#181818;stroke-width:0.5;" x1="1278" x2="1560" y1="222.8281" y2="222.8281"/><rect fill="#F24D5C" height="6" style="stroke:#C82930;stroke-width:1.0;" width="6" x="1285" y="234.1328"/><text fill="#000000" font-family="sans-serif" font-size="14" lengthAdjust="spacing" textLength="232" x="1297" y="241.3613">generate_properties_struct_init(): str</text><rect fill="#F24D5C" height="6" style="stroke:#C82930;stroke-width:1.0;" width="6" x="1285" y="251.7422"/><text fill="#000000" font-family="sans-serif" font-size="14" lengthAdjust="spacing" textLength="206" x="1297" y="258.9707">generate_properties_struct(): str</text><rect fill="#F24D5C" height="6" style="stroke:#C82930;stroke-width:1.0;" width="6" x="1285" y="269.3516"/><text fill="#000000" font-family="sans-serif" font-size="14" lengthAdjust="spacing" textLength="199" x="1297" y="276.5801">generate_pinfo_struct_init(): str</text><rect fill="#F24D5C" height="6" style="stroke:#C82930;stroke-width:1.0;" width="6" x="1285" y="286.9609"/><text fill="#000000" font-family="sans-serif" font-size="14" lengthAdjust="spacing" textLength="163" x="1297" y="294.1895">generate_pinfo_files(): str</text><rect fill="#F24D5C" height="6" style="stroke:#C82930;stroke-width:1.0;" width="6" x="1285" y="304.5703"/><text fill="#000000" font-family="sans-serif" font-size="14" lengthAdjust="spacing" textLength="173" x="1297" y="311.7988">generate_pinfo_struct(): str</text><rect fill="#F24D5C" height="6" style="stroke:#C82930;stroke-width:1.0;" width="6" x="1285" y="322.1797"/><text fill="#000000" font-family="sans-serif" font-size="14" lengthAdjust="spacing" textLength="258" x="1297" y="329.4082">generate_platform_hook_struct_init(): str</text><rect fill="#F24D5C" height="6" style="stroke:#C82930;stroke-width:1.0;" width="6" x="1285" y="339.7891"/><text fill="#000000" font-family="sans-serif" font-size="14" lengthAdjust="spacing" textLength="232" x="1297" y="347.0176">generate_platform_hook_struct(): str</text><rect fill="#F24D5C" height="6" style="stroke:#C82930;stroke-width:1.0;" width="6" x="1285" y="357.3984"/><text fill="#000000" font-family="sans-serif" font-size="14" lengthAdjust="spacing" textLength="158" x="1297" y="364.627">generate_container(): str</text><rect fill="#F24D5C" height="6" style="stroke:#C82930;stroke-width:1.0;" width="6" x="1285" y="375.0078"/><text fill="#000000" font-family="sans-serif" font-size="14" lengthAdjust="spacing" textLength="180" x="1297" y="382.2363">generate_user_context(): str</text><rect fill="#F24D5C" height="6" style="stroke:#C82930;stroke-width:1.0;" width="6" x="1285" y="392.6172"/><text fill="#000000" font-family="sans-serif" font-size="14" lengthAdjust="spacing" textLength="221" x="1297" y="399.8457">generate_warm_start_context(): str</text><rect fill="#F24D5C" height="6" style="stroke:#C82930;stroke-width:1.0;" width="6" x="1285" y="410.2266"/><text fill="#000000" font-family="sans-serif" font-size="14" lengthAdjust="spacing" textLength="187" x="1297" y="417.4551">generate_context_struct(): str</text><rect fill="#F24D5C" height="6" style="stroke:#C82930;stroke-width:1.0;" width="6" x="1285" y="427.8359"/><text fill="#000000" font-family="sans-serif" font-size="14" lengthAdjust="spacing" textLength="145" x="1297" y="435.0645">generate_module(): str</text><ellipse cx="1288" cy="448.4453" fill="#84BE84" rx="3" ry="3" style="stroke:#038048;stroke-width:1.0;"/><text fill="#000000" font-family="sans-serif" font-size="14" lengthAdjust="spacing" textLength="91" x="1297" y="452.6738">generate(): str</text></g><!--MD5=[29a96405ec67f473718fdaab5be35188]
class FunctionGenerator--><g id="elem_FunctionGenerator"><rect codeLine="149" fill="#F1F1F1" height="136.0469" id="FunctionGenerator" rx="2.5" ry="2.5" style="stroke:#181818;stroke-width:0.5;" width="161" x="977.5" y="1324"/><ellipse cx="996.55" cy="1340" fill="#A9DCDF" rx="11" ry="11" style="stroke:#181818;stroke-width:1.0;"/><path d="M998.7375,1341.7656 L994.5969,1341.7656 L994.175,1342.7969 L994.5969,1342.7969 Q995.2063,1342.7969 995.4719,1343.0313 Q995.7375,1343.2656 995.7375,1343.6563 Q995.7375,1344.0313 995.4719,1344.2656 Q995.2063,1344.5 994.5969,1344.5 L992.3,1344.5 Q991.6906,1344.5 991.4328,1344.2656 Q991.175,1344.0313 991.175,1343.6406 Q991.175,1343.2656 991.4484,1343.0234 Q991.7219,1342.7813 992.3469,1342.7969 L995.0188,1336.1406 L993.9094,1336.1406 Q993.3,1336.1406 993.0344,1335.9063 Q992.7688,1335.6719 992.7688,1335.2813 Q992.7688,1334.9063 993.0344,1334.6719 Q993.3,1334.4375 993.9094,1334.4375 L997.5813,1334.4375 L1000.9719,1342.7969 Q1001.5656,1342.7969 1001.7531,1342.9375 Q1002.1438,1343.2031 1002.1438,1343.6563 Q1002.1438,1344.0313 1001.8859,1344.2656 Q1001.6281,1344.5 1001.0188,1344.5 L998.7219,1344.5 Q998.1125,1344.5 997.8469,1344.2656 Q997.5813,1344.0313 997.5813,1343.6406 Q997.5813,1343.2656 997.8469,1343.0313 Q998.1125,1342.7969 998.7219,1342.7969 L999.1438,1342.7969 L998.7375,1341.7656 Z M998.0188,1340.0625 L996.6594,1336.6875 L995.2844,1340.0625 L998.0188,1340.0625 Z " fill="#000000"/><text fill="#000000" font-family="sans-serif" font-size="14" font-style="italic" lengthAdjust="spacing" textLength="120" x="1011.45" y="1345.7285">FunctionGenerator</text><line style="stroke:#181818;stroke-width:0.5;" x1="978.5" x2="1137.5" y1="1356" y2="1356"/><rect fill="none" height="6" style="stroke:#C82930;stroke-width:1.0;" width="6" x="985.5" y="1367.3047"/><text fill="#000000" font-family="sans-serif" font-size="14" lengthAdjust="spacing" textLength="99" x="997.5" y="1374.5332">indent_level: int</text><rect fill="none" height="6" style="stroke:#C82930;stroke-width:1.0;" width="6" x="985.5" y="1384.9141"/><text fill="#000000" font-family="sans-serif" font-size="14" lengthAdjust="spacing" textLength="97" x="997.5" y="1392.1426">indent_step: int</text><line style="stroke:#181818;stroke-width:0.5;" x1="978.5" x2="1137.5" y1="1399.2188" y2="1399.2188"/><rect fill="#F24D5C" height="6" style="stroke:#C82930;stroke-width:1.0;" width="6" x="985.5" y="1410.5234"/><text fill="#000000" font-family="sans-serif" font-size="14" font-style="italic" lengthAdjust="spacing" textLength="135" x="997.5" y="1417.752">generate_prototype()</text><rect fill="#F24D5C" height="6" style="stroke:#C82930;stroke-width:1.0;" width="6" x="985.5" y="1428.1328"/><text fill="#000000" font-family="sans-serif" font-size="14" font-style="italic" lengthAdjust="spacing" textLength="106" x="997.5" y="1435.3613">generate_body()</text><ellipse cx="988.5" cy="1448.7422" fill="#84BE84" rx="3" ry="3" style="stroke:#038048;stroke-width:1.0;"/><text fill="#000000" font-family="sans-serif" font-size="14" lengthAdjust="spacing" textLength="91" x="997.5" y="1452.9707">generate(): str</text></g><!--MD5=[90600e691f5fb3174f23a127b8330877]
reverse link ContainerGenerator to EventSendGenerator--><g id="link_ContainerGenerator_EventSendGenerator"><path codeLine="161" d="M1133.22,641.51 C1016.51,653.99 851.99,684.66 728,760 C681.6,788.2 642.5,836.12 616.33,874.31 " fill="none" id="ContainerGenerator-backto-EventSendGenerator" style="stroke:#181818;stroke-width:1.0;"/><polygon fill="none" points="1146.49,640.15,1140.1129,636.7836,1134.5527,641.3753,1140.9298,644.7418,1146.49,640.15" style="stroke:#181818;stroke-width:1.0;"/></g><!--MD5=[059207affd3f917655a6bcc5f7ddec07]
reverse link ContainerGenerator to ExternalGenerator--><g id="link_ContainerGenerator_ExternalGenerator"><path codeLine="162" d="M1133.58,666.78 C1071.68,686.47 1001.47,716.29 948,760 C904.41,795.63 872.63,853.26 854.75,892 " fill="none" id="ContainerGenerator-backto-ExternalGenerator" style="stroke:#181818;stroke-width:1.0;"/><polygon fill="none" points="1146.25,662.85,1139.334,660.8081,1134.7892,666.4068,1141.7052,668.4487,1146.25,662.85" style="stroke:#181818;stroke-width:1.0;"/></g><!--MD5=[02b2b17128c5ff60d18c1c4e98e8841b]
reverse link ContainerGenerator to GetValueGenerator--><g id="link_ContainerGenerator_GetValueGenerator"><path codeLine="163" d="M1172.1,754.56 C1170.72,756.38 1169.35,758.19 1168,760 C1135.73,803.28 1103,855.98 1081.73,891.65 " fill="none" id="ContainerGenerator-backto-GetValueGenerator" style="stroke:#181818;stroke-width:1.0;"/><polygon fill="none" points="1180.19,744.1,1173.3569,746.4041,1172.8556,753.5977,1179.6887,751.2937,1180.19,744.1" style="stroke:#181818;stroke-width:1.0;"/></g><!--MD5=[502b6562610096a62910f37a241ffc96]
reverse link ContainerGenerator to LogsGenerator--><g id="link_ContainerGenerator_LogsGenerator"><path codeLine="164" d="M1278,757.19 C1278,797.86 1278,841.11 1278,874.48 " fill="none" id="ContainerGenerator-backto-LogsGenerator" style="stroke:#181818;stroke-width:1.0;"/><polygon fill="none" points="1278,744.1,1274,750.1,1278,756.1,1282,750.1,1278,744.1" style="stroke:#181818;stroke-width:1.0;"/></g><!--MD5=[dcbb0a24816d667b34d2843c29017576]
reverse link ContainerGenerator to PinfoGenerator--><g id="link_ContainerGenerator_PinfoGenerator"><path codeLine="165" d="M1133.08,638.73 C921.94,649.71 543.1,680.19 435,760 C385.13,796.81 363.87,871.54 356,909.4 " fill="none" id="ContainerGenerator-backto-PinfoGenerator" style="stroke:#181818;stroke-width:1.0;"/><polygon fill="none" points="1146.12,638.06,1139.9255,634.3684,1134.1353,638.6665,1140.3298,642.3581,1146.12,638.06" style="stroke:#181818;stroke-width:1.0;"/></g><!--MD5=[e293a9cb8367c768b668a68411aebed8]
reverse link ContainerGenerator to RecoveryActionGenerator--><g id="link_ContainerGenerator_RecoveryActionGenerator"><path codeLine="166" d="M1383.63,754.58 C1385.1,756.39 1386.56,758.2 1388,760 C1415.3,794.03 1444.38,832.99 1467.92,865.26 " fill="none" id="ContainerGenerator-backto-RecoveryActionGenerator" style="stroke:#181818;stroke-width:1.0;"/><polygon fill="none" points="1375.06,744.1,1375.7636,751.2767,1382.6589,753.3875,1381.9553,746.2108,1375.06,744.1" style="stroke:#181818;stroke-width:1.0;"/></g><!--MD5=[32c85f69eabdd8b4f1411003ec9fde35]
reverse link ContainerGenerator to RequestSendGenerator--><g id="link_ContainerGenerator_RequestSendGenerator"><path codeLine="167" d="M1422.52,664.78 C1493.24,684.75 1577.29,715.37 1644,760 C1689.25,790.27 1729.6,837.06 1757.49,874.28 " fill="none" id="ContainerGenerator-backto-RequestSendGenerator" style="stroke:#181818;stroke-width:1.0;"/><polygon fill="none" points="1409.93,661.3,1414.6498,666.7519,1421.4977,664.492,1416.7778,659.0401,1409.93,661.3" style="stroke:#181818;stroke-width:1.0;"/></g><!--MD5=[a8876b6fb2ad9fee4b642a0f7fc92d18]
reverse link ContainerGenerator to ResponseSendGenerator--><g id="link_ContainerGenerator_ResponseSendGenerator"><path codeLine="168" d="M1422.76,649.35 C1592.44,670.41 1861.71,710.29 1950,760 C1994.91,785.28 2033.66,828.41 2061.18,865.21 " fill="none" id="ContainerGenerator-backto-ResponseSendGenerator" style="stroke:#181818;stroke-width:1.0;"/><polygon fill="none" points="1409.7,647.75,1415.1672,652.4521,1421.6104,649.2141,1416.1432,644.5119,1409.7,647.75" style="stroke:#181818;stroke-width:1.0;"/></g><!--MD5=[10281f4e4504a50739546f7ca628e551]
reverse link ContainerGenerator to SaveWarmStartContextGenerator--><g id="link_ContainerGenerator_SaveWarmStartContextGenerator"><path codeLine="169" d="M1423.1,638.65 C1660.52,650.04 2119.66,681.71 2260,760 C2314.4,790.34 2355.88,851.05 2379.09,891.74 " fill="none" id="ContainerGenerator-backto-SaveWarmStartContextGenerator" style="stroke:#181818;stroke-width:1.0;"/><polygon fill="none" points="1409.88,638.02,1415.6843,642.299,1421.8666,638.587,1416.0623,634.308,1409.88,638.02" style="stroke:#181818;stroke-width:1.0;"/></g><!--MD5=[6887398b31321e08c9cdae1f48788359]
reverse link ContainerGenerator to TimeServicesGenerator--><g id="link_ContainerGenerator_TimeServicesGenerator"><path codeLine="170" d="M1133.15,636.26 C889.41,644.17 410.13,670.91 270,760 C214.1,795.54 181.7,871.2 168.3,909.41 " fill="none" id="ContainerGenerator-backto-TimeServicesGenerator" style="stroke:#181818;stroke-width:1.0;"/><polygon fill="none" points="1146.36,635.84,1140.2356,632.0331,1134.3661,636.2222,1140.4905,640.0291,1146.36,635.84" style="stroke:#181818;stroke-width:1.0;"/></g><!--MD5=[d304566af61a42476ee41cc316b36a4d]
reverse link ContainerGenerator to VersionedDataGenerator--><g id="link_ContainerGenerator_VersionedDataGenerator"><path codeLine="171" d="M1423.11,637.51 C1710.24,648.09 2340.33,679.9 2540,760 C2567.56,771.05 2594.53,786.64 2619.63,803.96 " fill="none" id="ContainerGenerator-backto-VersionedDataGenerator" style="stroke:#181818;stroke-width:1.0;"/><polygon fill="none" points="1409.7,637.03,1415.5511,641.2448,1421.6921,637.4649,1415.841,633.2501,1409.7,637.03" style="stroke:#181818;stroke-width:1.0;"/></g><!--MD5=[2d226b5a103ca372beaeb9a056e68ff1]
link CMGlobalVariableGenerator to ContainerGenerator--><g id="link_CMGlobalVariableGenerator_ContainerGenerator"><path codeLine="172" d="M1149.62,328.12 C1167.06,369.28 1198.31,443 1225.61,507.4 " fill="none" id="CMGlobalVariableGenerator-to-ContainerGenerator" style="stroke:#181818;stroke-width:1.0;"/><polygon fill="none" points="1230.83,519.73,1232.1727,512.645,1226.1492,508.6806,1224.8064,515.7656,1230.83,519.73" style="stroke:#181818;stroke-width:1.0;"/></g><!--MD5=[62b72d18026c1893dd5a59a1391decd6]
link ModuleInstantiationGenerator to ContainerGenerator--><g id="link_ModuleInstantiationGenerator_ContainerGenerator"><path codeLine="173" d="M1349.95,460.07 C1343.23,476.02 1336.49,492.02 1329.99,507.49 " fill="none" id="ModuleInstantiationGenerator-to-ContainerGenerator" style="stroke:#181818;stroke-width:1.0;"/><polygon fill="none" points="1324.82,519.76,1330.8338,515.7808,1329.4737,508.6991,1323.4599,512.6783,1324.82,519.76" style="stroke:#181818;stroke-width:1.0;"/></g><!--MD5=[92b862e337f183427b2879c231633817]
reverse link PinfoGenerator to ReadGenerator--><g id="link_PinfoGenerator_ReadGenerator"><path codeLine="175" d="M368.73,969.77 C383.28,997.64 406.47,1036.18 435,1063 C464.56,1090.79 502.48,1114.14 537.01,1132.04 " fill="none" id="PinfoGenerator-backto-ReadGenerator" style="stroke:#181818;stroke-width:1.0;"/><polygon fill="none" points="362.67,957.79,361.8107,964.9497,368.0892,968.4966,368.9485,961.3369,362.67,957.79" style="stroke:#181818;stroke-width:1.0;"/></g><!--MD5=[a5fa960fe3d293a2fc912170ce4eda4a]
reverse link PinfoGenerator to SeekGenerator--><g id="link_PinfoGenerator_SeekGenerator"><path codeLine="176" d="M365.53,969.93 C378.72,999.53 401.68,1040.41 435,1063 C549.35,1140.52 608.16,1081.7 740,1123 C748.38,1125.62 756.97,1128.68 765.5,1131.96 " fill="none" id="PinfoGenerator-backto-SeekGenerator" style="stroke:#181818;stroke-width:1.0;"/><polygon fill="none" points="360.32,957.62,358.9773,964.705,365.0008,968.6694,366.3436,961.5844,360.32,957.62" style="stroke:#181818;stroke-width:1.0;"/></g><!--MD5=[94f0772337ebaabc9ec85873237cd30d]
reverse link TimeServicesGenerator to TimeGenerator--><g id="link_TimeServicesGenerator_TimeGenerator"><path codeLine="178" d="M161.46,970.98 C161.97,1011.57 162.8,1077.39 163.37,1122.7 " fill="none" id="TimeServicesGenerator-backto-TimeGenerator" style="stroke:#181818;stroke-width:1.0;"/><polygon fill="none" points="161.29,957.75,157.3628,963.7979,161.435,969.7491,165.3622,963.7012,161.29,957.75" style="stroke:#181818;stroke-width:1.0;"/></g><!--MD5=[d19fa3e9e3551edc53e2bb923110de80]
reverse link TimeServicesGenerator to TimeResolutionGenerator--><g id="link_TimeServicesGenerator_TimeResolutionGenerator"><path codeLine="179" d="M186.98,968.16 C208.22,994.9 239.59,1032.69 270,1063 C290.69,1083.62 314.82,1104.67 336.64,1122.73 " fill="none" id="TimeServicesGenerator-backto-TimeResolutionGenerator" style="stroke:#181818;stroke-width:1.0;"/><polygon fill="none" points="178.82,957.79,179.3892,964.9786,186.2438,967.218,185.6746,960.0294,178.82,957.79" style="stroke:#181818;stroke-width:1.0;"/></g><!--MD5=[701e3f3b417b6bb66b0cc15341f82dfa]
link EventSendGenerator to FunctionGenerator--><g id="link_EventSendGenerator_FunctionGenerator"><path codeLine="181" d="M634.94,992.65 C660.91,1017.56 693.8,1045.01 728,1063 C823.41,1113.18 890.03,1043.65 963,1123 C1008.45,1172.43 965.04,1208.9 988,1272 C992.15,1283.39 997.39,1294.93 1003.13,1306.11 " fill="none" id="EventSendGenerator-to-FunctionGenerator" style="stroke:#181818;stroke-width:1.0;stroke-dasharray:7.0,7.0;"/><polygon fill="none" points="1009.39,1302.98,1012.81,1323.89,997.1,1309.67,1009.39,1302.98" style="stroke:#181818;stroke-width:1.0;"/></g><!--MD5=[dac5a41c167ef899f00c1ede57443c02]
link ExternalGenerator to FunctionGenerator--><g id="link_ExternalGenerator_FunctionGenerator"><path codeLine="182" d="M872.75,975.07 C915.59,1025.38 983.79,1106.55 992,1123 C1020.43,1179.92 1037.13,1249.9 1046.61,1304.07 " fill="none" id="ExternalGenerator-to-FunctionGenerator" style="stroke:#181818;stroke-width:1.0;stroke-dasharray:7.0,7.0;"/><polygon fill="none" points="1053.55,1303.13,1049.9,1324,1039.73,1305.41,1053.55,1303.13" style="stroke:#181818;stroke-width:1.0;"/></g><!--MD5=[9097b1d8d750b0c367bc32a37f35b7b9]
link GetValueGenerator to FunctionGenerator--><g id="link_GetValueGenerator_FunctionGenerator"><path codeLine="183" d="M1058,975.01 C1058,1048.45 1058,1205.09 1058,1303.81 " fill="none" id="GetValueGenerator-to-FunctionGenerator" style="stroke:#181818;stroke-width:1.0;stroke-dasharray:7.0,7.0;"/><polygon fill="none" points="1065,1303.95,1058,1323.95,1051,1303.95,1065,1303.95" style="stroke:#181818;stroke-width:1.0;"/></g><!--MD5=[245b9b1525df96046e7781fb520fbb73]
link LogsGenerator to FunctionGenerator--><g id="link_LogsGenerator_FunctionGenerator"><path codeLine="184" d="M1249.91,992.78 C1211.71,1072.05 1143.1,1214.41 1099.11,1305.7 " fill="none" id="LogsGenerator-to-FunctionGenerator" style="stroke:#181818;stroke-width:1.0;stroke-dasharray:7.0,7.0;"/><polygon fill="none" points="1105.37,1308.83,1090.38,1323.81,1092.76,1302.75,1105.37,1308.83" style="stroke:#181818;stroke-width:1.0;"/></g><!--MD5=[45f5d80f3cebd6e688796771a7f65980]
link ReadGenerator to FunctionGenerator--><g id="link_ReadGenerator_FunctionGenerator"><path codeLine="185" d="M669.94,1215.08 C690.44,1234.25 716.61,1256.3 743,1272 C810.62,1312.22 894.2,1343.04 958.27,1363.22 " fill="none" id="ReadGenerator-to-FunctionGenerator" style="stroke:#181818;stroke-width:1.0;stroke-dasharray:7.0,7.0;"/><polygon fill="none" points="960.43,1356.57,977.48,1369.15,956.31,1369.95,960.43,1356.57" style="stroke:#181818;stroke-width:1.0;"/></g><!--MD5=[b9ba77cecf177881cfc05f24dd5897cc]
link SeekGenerator to FunctionGenerator--><g id="link_SeekGenerator_FunctionGenerator"><path codeLine="186" d="M891.56,1215.22 C916.49,1241.55 949.83,1276.76 980.11,1308.74 " fill="none" id="SeekGenerator-to-FunctionGenerator" style="stroke:#181818;stroke-width:1.0;stroke-dasharray:7.0,7.0;"/><polygon fill="none" points="985.56,1304.31,994.23,1323.65,975.39,1313.94,985.56,1304.31" style="stroke:#181818;stroke-width:1.0;"/></g><!--MD5=[8ad0242fd0f16727146213524eda2d11]
link RecoveryActionGenerator to FunctionGenerator--><g id="link_RecoveryActionGenerator_FunctionGenerator"><path codeLine="187" d="M1449.3,1001.59 C1429.58,1021.39 1407.94,1043.08 1388,1063 C1303.61,1147.3 1206.78,1243.48 1139.94,1309.79 " fill="none" id="RecoveryActionGenerator-to-FunctionGenerator" style="stroke:#181818;stroke-width:1.0;stroke-dasharray:7.0,7.0;"/><polygon fill="none" points="1144.85,1314.77,1125.72,1323.88,1134.99,1304.83,1144.85,1314.77" style="stroke:#181818;stroke-width:1.0;"/></g><!--MD5=[22f83cc4068c6083d2391d7694047ed8]
link RequestSendGenerator to FunctionGenerator--><g id="link_RequestSendGenerator_FunctionGenerator"><path codeLine="188" d="M1733.25,992.66 C1706.58,1015.76 1674.68,1041.81 1644,1063 C1480.83,1175.69 1275.81,1283.43 1156.57,1343.05 " fill="none" id="RequestSendGenerator-to-FunctionGenerator" style="stroke:#181818;stroke-width:1.0;stroke-dasharray:7.0,7.0;"/><polygon fill="none" points="1159.57,1349.37,1138.55,1352.02,1153.33,1336.84,1159.57,1349.37" style="stroke:#181818;stroke-width:1.0;"/></g><!--MD5=[b0d899a4e869d060944d7459f143c803]
link ResponseSendGenerator to FunctionGenerator--><g id="link_ResponseSendGenerator_FunctionGenerator"><path codeLine="189" d="M2033.18,1001.82 C2008.09,1023.16 1978.95,1045.68 1950,1063 C1684.42,1221.91 1329.14,1324.04 1158.19,1367.29 " fill="none" id="ResponseSendGenerator-to-FunctionGenerator" style="stroke:#181818;stroke-width:1.0;stroke-dasharray:7.0,7.0;"/><polygon fill="none" points="1159.87,1374.08,1138.77,1372.14,1156.48,1360.5,1159.87,1374.08" style="stroke:#181818;stroke-width:1.0;"/></g><!--MD5=[44ab907c88ddd7d219f4fb40d4c70e10]
link SaveWarmStartContextGenerator to FunctionGenerator--><g id="link_SaveWarmStartContextGenerator_FunctionGenerator"><path codeLine="190" d="M2364.16,975.02 C2337.69,1002.92 2299.53,1039.11 2260,1063 C1893.48,1284.54 1374.93,1359.59 1158.73,1382.23 " fill="none" id="SaveWarmStartContextGenerator-to-FunctionGenerator" style="stroke:#181818;stroke-width:1.0;stroke-dasharray:7.0,7.0;"/><polygon fill="none" points="1159.38,1389.2,1138.77,1384.26,1157.96,1375.28,1159.38,1389.2" style="stroke:#181818;stroke-width:1.0;"/></g><!--MD5=[c870b823d2985e474c0662bbd3c9a721]
link TimeGenerator to FunctionGenerator--><g id="link_TimeGenerator_FunctionGenerator"><path codeLine="191" d="M213.29,1224.06 C233.83,1241.93 258.96,1260.51 285,1272 C403.72,1324.38 776.06,1364.88 957.13,1382.04 " fill="none" id="TimeGenerator-to-FunctionGenerator" style="stroke:#181818;stroke-width:1.0;stroke-dasharray:7.0,7.0;"/><polygon fill="none" points="957.93,1375.08,977.19,1383.92,956.62,1389.02,957.93,1375.08" style="stroke:#181818;stroke-width:1.0;"/></g><!--MD5=[65db7f2c34b3e5c1a655e8e3df41f076]
link TimeResolutionGenerator to FunctionGenerator--><g id="link_TimeResolutionGenerator_FunctionGenerator"><path codeLine="192" d="M450.38,1224.21 C470.58,1241.67 494.98,1259.92 520,1272 C662.52,1340.84 845.54,1370.41 957.18,1382.71 " fill="none" id="TimeResolutionGenerator-to-FunctionGenerator" style="stroke:#181818;stroke-width:1.0;stroke-dasharray:7.0,7.0;"/><polygon fill="none" points="958.01,1375.76,977.17,1384.81,956.55,1389.68,958.01,1375.76" style="stroke:#181818;stroke-width:1.0;"/></g><!--MD5=[140d85bde46287278b4ead5c5511e00c]
link VersionedDataGenerator to FunctionGenerator--><g id="link_VersionedDataGenerator_FunctionGenerator"><path codeLine="193" d="M2557.32,1054.7 C2551.51,1057.56 2545.73,1060.33 2540,1063 C2291.25,1178.89 2225.67,1207.22 1959,1272 C1673.46,1341.37 1326.54,1372.78 1158.66,1384.76 " fill="none" id="VersionedDataGenerator-to-FunctionGenerator" style="stroke:#181818;stroke-width:1.0;stroke-dasharray:7.0,7.0;"/><polygon fill="none" points="1159.04,1391.75,1138.61,1386.16,1158.07,1377.78,1159.04,1391.75" style="stroke:#181818;stroke-width:1.0;"/></g><!--MD5=[60478d5841aef65a43adeeba2e814cc5]
@startuml

skinparam packageStyle folder

package ecoa_toolset.generators {

package container {

class ContainerGenerator {
    - indent_level: int
    - indent_step: int
    + generate_container_constructor(): str
    + generate_modules_id(): str
    - generate_open_pinfos(): str
    - generate_init_context(): str
    - generate_init_module(): str
    + generate_cm_initialize(): str
    - generate_close_pinfos(): str
    + generate_cm_shutdown(): str
}

package functions {

class EventSendGenerator {
    - unit_test: bool
    - generate_prototype(): str
    - generate_event_received_calls(): str
    - generate_body(): str
}

class ExternalGenerator {
    - generate_prototype(): str
    - generate_body(): str
}

class GetValueGenerator {
    - generate_prototype(): str
    - generate_body(): str
}

class LogsGenerator {
    - log_level: int
    - generate_prototype(): str
    - generate_body(): str
    + generate(): str
}

class PinfoGenerator

class ReadGenerator {
    - generate_prototype(): str
    - generate_body(): str
}

class SeekGenerator {
    - generate_prototype(): str
    - generate_body(): str
}

class RecoveryActionGenerator {
    - visited: List
    - generate_global_function(): str
    - generate_prototype(): str
    - generate_body(): str
    + generate(): str
}

class RequestSendGenerator {
    - unit_test: bool
    - generate_prototype(): str
    - generate_request_received_calls(): str
    - generate_body(): str
}

class ResponseSendGenerator {
    - unit_test: bool
    - generate_prototype(): str
    - generate_memcpy_calls(): str
    - generate_response_received_call(): str
    - generate_body(): str
}

class SaveWarmStartContextGenerator {
    - generate_prototype(): str
    - generate_body(): str
}

class TimeServicesGenerator

class TimeGenerator {
    - type: str
    - generate_prototype(): str
    - generate_body(): str
}

class TimeResolutionGenerator {
    - type: str
    - generate_prototype(): str
    - generate_body(): str
}

class VersionedDataGenerator {
    - type: str
    - mode: str
    - unit_test: bool
    - generate_prototype(): str
    - generate_get_read_access_body(): str
    - generate_get_write_access_body(): str
    - generate_publish_write_access_body(): str
    - generate_release_read_or_cancel_write_access_body(): str
    - generate_body(): str
    - generate_data_read(): str
    - generate_data_written(): str
    + generate(): str
}

}

package variables {

class CMGlobalVariableGenerator {
    + generate(): str
}

class ModuleInstantiationGenerator {
    - indent_level: int
    - indent_step: int
    - visited: List
    - generate_properties_struct_init(): str
    - generate_properties_struct(): str
    - generate_pinfo_struct_init(): str
    - generate_pinfo_files(): str
    - generate_pinfo_struct(): str
    - generate_platform_hook_struct_init(): str
    - generate_platform_hook_struct(): str
    - generate_container(): str
    - generate_user_context(): str
    - generate_warm_start_context(): str
    - generate_context_struct(): str
    - generate_module(): str
    + generate(): str
}

}

}

package utils {

abstract class FunctionGenerator {
    - indent_level: int
    - indent_step: int
    - {abstract} generate_prototype()
    - {abstract} generate_body()
    + generate(): str
}

}

}

ContainerGenerator o- - EventSendGenerator
ContainerGenerator o- - ExternalGenerator
ContainerGenerator o- - GetValueGenerator
ContainerGenerator o- - LogsGenerator
ContainerGenerator o- - PinfoGenerator
ContainerGenerator o- - RecoveryActionGenerator
ContainerGenerator o- - RequestSendGenerator
ContainerGenerator o- - ResponseSendGenerator
ContainerGenerator o- - SaveWarmStartContextGenerator
ContainerGenerator o- - TimeServicesGenerator
ContainerGenerator o- - VersionedDataGenerator
ContainerGenerator o-u- CMGlobalVariableGenerator
ContainerGenerator o-u- ModuleInstantiationGenerator

PinfoGenerator o- - ReadGenerator
PinfoGenerator o- - SeekGenerator

TimeServicesGenerator o- - TimeGenerator
TimeServicesGenerator o- - TimeResolutionGenerator

EventSendGenerator ..|> FunctionGenerator
ExternalGenerator ..|> FunctionGenerator
GetValueGenerator ..|> FunctionGenerator
LogsGenerator ..|> FunctionGenerator
ReadGenerator ..|> FunctionGenerator
SeekGenerator ..|> FunctionGenerator
RecoveryActionGenerator ..|> FunctionGenerator
RequestSendGenerator ..|> FunctionGenerator
ResponseSendGenerator ..|> FunctionGenerator
SaveWarmStartContextGenerator ..|> FunctionGenerator
TimeGenerator ..|> FunctionGenerator
TimeResolutionGenerator ..|> FunctionGenerator
VersionedDataGenerator ..|> FunctionGenerator

@enduml

PlantUML version 1.2022.7(Mon Aug 22 19:01:30 CEST 2022)
(GPL source distribution)
Java Runtime: Java(TM) SE Runtime Environment
JVM: Java HotSpot(TM) 64-Bit Server VM
Default Encoding: Cp1252
Language: fr
Country: FR
--></g></svg>